<svg width="60" height="56" fill="none" xmlns="http://www.w3.org/2000/svg"><circle cx="39.638" cy="33.5" r="19.5" fill="#A8D29F"/><g clip-path="url(#clip0)" fill="#000"><path d="M27.513 1.668v1.237a.826.826 0 01-1.652 0V1.668a12.055 12.055 0 00-7.014 2.85l.908.898c.322.32.322.84 0 1.16a.826.826 0 01-1.167 0l-.918-.911a11.881 11.881 0 00-3 6.975h1.389a.821.821 0 110 1.64h-1.411a11.77 11.77 0 001.02 4.21 11.922 11.922 0 001.855 2.91l1.065-1.055a.831.831 0 011.167 0c.322.32.322.84 0 1.16l-.818.812h15.5l-.818-.813a.812.812 0 010-1.159.831.831 0 011.168 0l1.062 1.054a12 12 0 001.857-2.908c.58-1.296.936-2.713 1.018-4.21h-1.408a.823.823 0 01-.828-.819c0-.456.372-.822.828-.822h1.389a11.904 11.904 0 00-3.003-6.975l-.915.911a.826.826 0 01-1.168 0 .812.812 0 010-1.16l.906-.899a12.047 12.047 0 00-7.012-2.849zM26.686 0c3.786 0 7.214 1.525 9.693 3.987a13.525 13.525 0 014.015 9.627c0 1.928-.406 3.764-1.136 5.432h13.29c.455 0 .823.369.823.822v13.948c.821 0 1.561.286 2.145.865.537.537.871 1.272.871 2.08v1.644a.826.826 0 01-1.651 0v-1.643a1.314 1.314 0 00-1.311-1.305H39.754c-.362 0-.693.148-.93.384a1.294 1.294 0 00-.384.92v7.008c0 .356.146.682.383.918.238.235.569.384.93.384h13.672a1.314 1.314 0 001.31-1.302v-1.646a.826.826 0 011.652 0v1.646c0 .806-.334 1.544-.871 2.077-.584.58-1.324.865-2.145.865v4.456c0 1.49-.328 2.678-1.124 3.528-.796.855-2.004 1.305-3.743 1.305h-20.32a.823.823 0 01-.827-.819c0-.452.371-.821.827-.821h20.32c1.246 0 2.06-.27 2.538-.778.478-.515.678-1.334.678-2.416v-4.455H39.754a2.963 2.963 0 01-2.092-.865 2.918 2.918 0 01-.874-2.077v-7.007c0-.81.334-1.544.874-2.08a2.963 2.963 0 012.092-.866H51.72v-6.588H4.12a4.117 4.117 0 01-2.468-.818v25.5c0 .673.277 1.284.727 1.73a2.47 2.47 0 001.742.72h20.32c.456 0 .827.369.827.821a.823.823 0 01-.827.819H4.121a4.12 4.12 0 01-2.91-1.2A4.053 4.053 0 010 51.91V23.14c0-1.126.462-2.15 1.211-2.89a4.11 4.11 0 012.91-1.203h9.993a13.503 13.503 0 01-1.137-5.432 13.53 13.53 0 014.015-9.627A13.726 13.726 0 0126.686 0zm11.713 20.686a13.23 13.23 0 01-1.174 1.631H49.25c.46 0 .828.369.828.822a.821.821 0 01-.828.818H4.12a.823.823 0 01-.826-.818c0-.453.371-.822.827-.822h12.025a13.534 13.534 0 01-1.174-1.63H4.121a2.46 2.46 0 00-1.742.721 2.426 2.426 0 00-.727 1.73c0 .673.277 1.284.727 1.73a2.47 2.47 0 001.742.72H51.72v-4.902H38.399zm5.416 16.575c.834 0 1.59.338 2.136.88a2.984 2.984 0 010 4.245 3.01 3.01 0 01-2.136.88 3.012 3.012 0 01-2.138-.88 2.982 2.982 0 010-4.245 3.026 3.026 0 012.138-.88zm.968 2.04a1.374 1.374 0 00-2.341.964c0 .376.156.716.402.961.247.248.59.4.971.4.378 0 .721-.151.968-.4a1.35 1.35 0 000-1.925z"/><rect x="22.389" y="8.647" width="9.121" height="1.647" rx=".824"/><rect x="22.389" y="11.529" width="9.121" height="1.647" rx=".824"/><rect x="27.779" y="11.941" width="6.176" height="1.658" rx=".829" transform="rotate(90 27.779 11.941)"/></g><defs><clipPath id="clip0"><path fill="#fff" d="M0 0h56.387v56H0z"/></clipPath></defs></svg>