<svg width="64" height="56" fill="none" xmlns="http://www.w3.org/2000/svg"><circle cx="43.666" cy="33.5" r="19.5" fill="#97E2FD"/><path d="M48.942 40.92a44.71 44.71 0 00-.823.434c-1.225-.981-3.433-1.92-5.895-.653-3.233 1.665-5.083 3.09-6.038 3.95l-2.276-.21-4.18-3.32c1.166.316 2.36.623 3.4.853a6.9 6.9 0 001.481.17 5.06 5.06 0 002.897-.868c2.265-1.533 2.766-4.557 2.786-4.685a1.088 1.088 0 00-.161-.76 1.1 1.1 0 00-.63-.462l-14.537-4.047a1.113 1.113 0 00-.297-.04H1.762c-.292 0-.573.114-.78.32a1.09 1.09 0 000 1.546c.207.205.488.32.78.32h22.755l13.344 3.715c-.259.731-.746 1.716-1.602 2.291-.716.481-1.583.6-2.65.365-3.354-.74-8.557-2.366-8.609-2.382-1.156-.352-1.957 1.14-1.02 1.897l8.811 7c.168.134.372.215.586.235l3.096.286 6.376.589a1.092 1.092 0 00.958-.402c.015-.018 1.54-1.828 6.148-4.2a2.997 2.997 0 013.036.088l-7.664 7.611-12.541.83-16.5-6.9a1.11 1.11 0 00-.428-.085H1.762c-.292 0-.573.116-.78.32a1.09 1.09 0 000 1.547c.207.205.488.32.78.32h13.874l16.535 6.915a1.11 1.11 0 00.5.083l13.216-.875a1.1 1.1 0 00.706-.318l8.81-8.75a1.09 1.09 0 00.053-1.49c-.959-1.095-3.554-2.763-6.514-1.238zm-6.425 4.316l-3.155-.291a33.76 33.76 0 013.875-2.302c1.119-.576 2.083-.388 2.767-.056-1.867 1.175-2.95 2.121-3.487 2.65zm5.838-14.509a1.106 1.106 0 00-1.554.003 1.09 1.09 0 00-.003 1.543l3.524 3.5a1.105 1.105 0 001.557 0l3.525-3.5a1.09 1.09 0 00-.004-1.543 1.106 1.106 0 00-1.554-.003l-1.644 1.632V26.25c0-.29-.116-.568-.323-.773a1.106 1.106 0 00-1.557 0 1.09 1.09 0 00-.323.773v6.11l-1.644-1.633zm2.745-7.758c.293 0 .573-.116.78-.32a1.09 1.09 0 00.322-.774V21c0-.29-.116-.568-.322-.773a1.106 1.106 0 00-1.558 0 1.09 1.09 0 00-.323.773v.875a1.1 1.1 0 001.102 1.093zm-34.258-6.446a1.105 1.105 0 001.558 0l3.524-3.5a1.09 1.09 0 00-.004-1.543 1.105 1.105 0 00-1.554-.003l-1.644 1.632V7c0-.29-.116-.568-.322-.773a1.105 1.105 0 00-1.558 0A1.09 1.09 0 0016.52 7v6.11l-1.645-1.633a1.106 1.106 0 00-1.554.003 1.09 1.09 0 00-.003 1.543l3.524 3.5zm.778-12.804c.293 0 .573-.115.78-.32a1.09 1.09 0 00.322-.774V1.75c0-.29-.116-.568-.322-.773a1.105 1.105 0 00-1.558 0 1.09 1.09 0 00-.322.773v.875c0 .29.116.568.322.773.207.206.487.32.779.32zM6.27 27.023a1.105 1.105 0 001.557 0l3.524-3.5a1.09 1.09 0 00-.003-1.543 1.106 1.106 0 00-1.554-.003L8.15 23.609V17.5c0-.29-.116-.568-.323-.773a1.105 1.105 0 00-1.557 0 1.09 1.09 0 00-.323.773v6.11l-1.644-1.633a1.106 1.106 0 00-1.554.003 1.09 1.09 0 00-.004 1.543l3.525 3.5zm.778-12.804c.292 0 .573-.115.78-.32a1.09 1.09 0 00.322-.774v-.875c0-.29-.116-.568-.323-.773a1.105 1.105 0 00-1.557 0 1.09 1.09 0 00-.323.773v.875a1.099 1.099 0 001.101 1.093z" fill="#000"/><path fill-rule="evenodd" clip-rule="evenodd" d="M38.926 25.318c5.928 0 10.733-4.772 10.733-10.659C49.659 8.772 44.854 4 38.926 4 33 4 28.193 8.772 28.193 14.66c0 5.886 4.806 10.658 10.733 10.658zm0-1.332c5.186 0 9.39-4.176 9.39-9.327 0-5.15-4.204-9.327-9.39-9.327-5.187 0-9.392 4.176-9.392 9.327s4.205 9.327 9.391 9.327z" fill="#000"/><rect x="38.255" y="4.666" width="1.341" height="1.999" rx=".67" fill="#000"/><rect x="38.255" y="22.653" width="1.341" height="1.999" rx=".67" fill="#000"/><rect x="28.864" y="15.325" width="1.332" height="2.012" rx=".666" transform="rotate(-90 28.864 15.325)" fill="#000"/><rect x="46.976" y="15.325" width="1.332" height="2.012" rx=".666" transform="rotate(-90 46.976 15.325)" fill="#000"/><rect width="1.337" height="2.005" rx=".668" transform="matrix(.70954 -.70467 .70954 .70467 31.337 8.064)" fill="#000"/><rect width="1.337" height="2.005" rx=".668" transform="matrix(.70954 -.70467 .70954 .70467 44.144 20.782)" fill="#000"/><rect width="1.337" height="2.005" rx=".668" transform="matrix(-.70954 -.70467 -.70954 .70467 46.516 8.064)" fill="#000"/><rect width="1.337" height="2.005" rx=".668" transform="matrix(-.70954 -.70467 -.70954 .70467 33.709 20.783)" fill="#000"/><rect x="35.349" y="11.106" width="7.202" height="1.3" rx=".65" fill="#000"/><rect x="35.349" y="13.382" width="7.202" height="1.3" rx=".65" fill="#000"/><rect x="39.605" y="13.707" width="4.877" height="1.309" rx=".654" transform="rotate(90 39.605 13.707)" fill="#000"/></svg>