<svg width="74" height="56" fill="none" xmlns="http://www.w3.org/2000/svg"><circle cx="53.735" cy="33.5" r="19.5" fill="#B6ABFA"/><g clip-path="url(#clip0)" fill="#000"><path fill-rule="evenodd" clip-rule="evenodd" d="M43.297 55.39c7.23 0 13.09-5.82 13.09-13s-5.86-13-13.09-13c-7.23 0-13.09 5.82-13.09 13s5.86 13 13.09 13zm0-1.624c6.326 0 11.454-5.093 11.454-11.375s-5.128-11.375-11.453-11.375c-6.326 0-11.454 5.093-11.454 11.375s5.128 11.375 11.454 11.375z"/><rect x="42.479" y="30.203" width="1.636" height="2.438" rx=".818"/><rect x="42.479" y="52.14" width="1.636" height="2.438" rx=".818"/><rect x="31.025" y="43.203" width="1.625" height="2.454" rx=".812" transform="rotate(-90 31.025 43.203)"/><rect x="53.114" y="43.203" width="1.625" height="2.454" rx=".812" transform="rotate(-90 53.114 43.203)"/><rect width="1.63" height="2.445" rx=".815" transform="matrix(.70954 -.70467 .70954 .70467 34.042 34.346)"/><rect width="1.63" height="2.445" rx=".815" transform="scale(1.00344 .99654) rotate(-45 85.14 -34.724)"/><rect width="1.63" height="2.445" rx=".815" transform="matrix(-.70954 -.70467 -.70954 .70467 52.554 34.348)"/><rect width="1.63" height="2.445" rx=".815" transform="scale(-1.00344 .99654) rotate(-45 41.99 69.447)"/><rect x="37.999" y="37.116" width="11.531" height="2.082" rx="1.041"/><rect x="37.999" y="40.76" width="11.531" height="2.082" rx="1.041"/><rect x="44.813" y="41.281" width="7.808" height="2.097" rx="1.048" transform="rotate(90 44.813 41.28)"/><path fill-rule="evenodd" clip-rule="evenodd" d="M28.194 3.778c-1.822 0-3.304 1.472-3.304 3.281 0 1.81 1.482 3.282 3.303 3.282 1.822 0 3.304-1.472 3.304-3.281 0-1.81-1.482-3.282-3.303-3.282zm0 4.922a1.648 1.648 0 01-1.652-1.64c0-.905.74-1.641 1.651-1.641s1.652.736 1.652 1.64c0 .905-.74 1.641-1.651 1.641zm28.192 3.87a.826.826 0 00-.507-.744L28.964.209a1.944 1.944 0 00-1.54 0L.508 11.826c-.284.12-.519.418-.508.768v2.682c0 1.659 1.359 3.008 3.029 3.008h.65c-.239.44-.375.942-.375 1.476 0 1.719 1.408 3.117 3.139 3.117.245 0 .485-.03.716-.085V46.18c-1.074-.15-2.093.595-2.093 1.695v1.555H3.03C1.359 49.429 0 50.778 0 52.436v2.147c0 .754.618 1.367 1.377 1.367H55.01c.76 0 1.377-.614 1.377-1.367v-2.147c0-1.658-1.359-3.007-3.029-3.007h-.223c-.371.583-.79 1.131-1.253 1.64h1.476c.76 0 1.377.613 1.377 1.367v1.873h-7.712A11.972 11.972 0 0143 55c-1.411 0-2.765-.243-4.023-.69H1.652v-1.874c0-.754.618-1.367 1.377-1.367h31.089a12.029 12.029 0 01-1.74-2.48v.84h-8.37v-1.555c0-.03.025-.055.056-.055h7.943A11.959 11.959 0 0131 43c0-1.652.334-3.227.938-4.66V22.793c.231.054.47.085.716.085 1.73 0 3.139-1.398 3.139-3.117 0-.534-.136-1.037-.376-1.476h2.843c-.239.44-.375.942-.375 1.476 0 1.719 1.408 3.117 3.139 3.117.245 0 .484-.03.716-.085v8.273a12.146 12.146 0 011.651-.059v-9.201c.35-.4.602-.89.71-1.437a.826.826 0 00-1.62-.318 1.484 1.484 0 01-1.457 1.186c-.82 0-1.487-.662-1.487-1.476 0-.813.665-1.475 1.483-1.477h8.927a1.483 1.483 0 011.484 1.477c0 .814-.667 1.477-1.487 1.477-.708 0-1.32-.5-1.457-1.186a.826.826 0 00-.97-.646.82.82 0 00-.65.963c.108.547.359 1.038.71 1.437v10.099c.574.237 1.126.517 1.651.837v-9.949c.232.054.47.085.716.085 1.731 0 3.139-1.398 3.139-3.117 0-.534-.136-1.037-.375-1.476h.65c1.67 0 3.029-1.35 3.029-3.008v-2.706zM6.443 21.237c-.82 0-1.487-.663-1.487-1.477 0-.813.665-1.475 1.484-1.476h8.927a1.483 1.483 0 011.483 1.476c0 .814-.667 1.477-1.487 1.477-.707 0-1.32-.5-1.457-1.186a.826.826 0 00-1.62.317c.108.547.36 1.038.71 1.437v14.16c0 .452.37.82.826.82a.823.823 0 00.826-.82V22.791c.23.054.47.085.715.085 1.731 0 3.14-1.398 3.14-3.117 0-.534-.137-1.037-.376-1.476h2.843a3.07 3.07 0 00-.375 1.476c0 1.719 1.408 3.117 3.138 3.117.246 0 .485-.03.716-.085V46.18c-1.074-.15-2.092.595-2.092 1.695v1.555H16.74v-1.555c0-1.15-1.023-1.81-2.092-1.695v-6.387c0-.453-.37-.82-.826-.82a.823.823 0 00-.826.82v6.387H8.81V21.805c.35-.4.601-.89.71-1.437a.826.826 0 00-1.62-.318 1.484 1.484 0 01-1.458 1.187zm26.21 0c-.707 0-1.32-.5-1.456-1.186a.826.826 0 00-1.621.317c.108.547.36 1.038.71 1.437v24.374h-4.185V21.805c.35-.4.602-.89.71-1.437a.826.826 0 00-1.62-.318 1.484 1.484 0 01-1.458 1.186c-.82 0-1.486-.662-1.486-1.476 0-.813.665-1.475 1.483-1.477h8.927a1.483 1.483 0 011.484 1.477c0 .814-.667 1.477-1.487 1.477zM6.719 47.874c0-.03.025-.055.055-.055h8.26c.03 0 .055.025.055.055v1.555h-8.37v-1.555zm48.017-32.598c0 .754-.618 1.367-1.377 1.367H3.028a1.373 1.373 0 01-1.376-1.367v-1.873h38.566a.823.823 0 00.826-.82c0-.453-.37-.82-.826-.82H4.8l23.285-10.05a.28.28 0 01.22 0l23.284 10.05h-7.515a.823.823 0 00-.826.82c0 .453.37.82.826.82h10.662v1.873z"/></g><defs><clipPath id="clip0"><path fill="#fff" d="M0 0h56.387v56H0z"/></clipPath></defs></svg>