<svg width="63" height="56" fill="none" xmlns="http://www.w3.org/2000/svg"><circle cx="42.659" cy="33.5" r="19.5" fill="#E9AEB1"/><g clip-path="url(#clip0)" fill="#000"><path d="M48.159 41.004h-4.541v1.503h4.54v-1.503zm-6.055 0h-4.54v1.503h4.54v-1.503zm-6.054 0h-4.54v1.503h4.54v-1.503z"/><path d="M55.717 26.576L40.742 11.702a2.268 2.268 0 00-1.609-.665h-.007c-.6 0-1.175.24-1.596.665L21.645 27.475h-8.299a2.263 2.263 0 00-2.27 2.255v21.045a2.263 2.263 0 002.27 2.255H24.56l2.258 2.245a2.27 2.27 0 001.61.665h.005c.6 0 1.176-.24 1.597-.665l2.263-2.245h17.38c1.254 0 2.27-1.01 2.27-2.255V33.514l3.77-3.745c.431-.418.674-.99.675-1.589a2.238 2.238 0 00-.67-1.604zm-9.628-7.436l-8.392 8.335H31.27L42.876 15.95l3.213 3.191zm-7.487-6.379a.75.75 0 011.055-.012l.013.012 2.136 2.125-12.677 12.59h-5.344l14.817-14.714zm-9.645 41.454a.738.738 0 01-.53.225.759.759 0 01-.538-.225l-1.19-1.186h3.452l-1.194 1.186zm21.472-3.44a.754.754 0 01-.757.751H13.346a.754.754 0 01-.756-.751V40.252h37.839v10.523zm0-12.026h-37.84v-4.51h37.84v4.51zm0-6.012h-37.84V29.73c0-.415.34-.751.757-.751h36.326c.418 0 .757.336.757.751v3.007zm4.217-4.034l-2.704 2.685V29.73a2.263 2.263 0 00-2.27-2.255h-9.838l7.322-7.272 7.487 7.436a.749.749 0 01.227.537.735.735 0 01-.224.527z"/><path d="M18.334 50.043c.111-.094.215-.197.31-.307a3.015 3.015 0 003.984.51 3.05 3.05 0 001.314-2.478 3.017 3.017 0 00-3.028-3.006c-.15-.002-.3.01-.448.038l-.02.005h-.021a2.993 2.993 0 00-1.781.998 3.041 3.041 0 00-4.27-.307 2.992 2.992 0 00-.31 4.24 3.042 3.042 0 004.27.307zm2.389-3.762a.925.925 0 01.191-.016c.836 0 1.514.673 1.514 1.503 0 .318-.105.628-.297.882-.028.037-.049.075-.08.113-.005.006-.013.01-.019.016a1.512 1.512 0 01-1.118.492 1.508 1.508 0 01-1.487-1.528 1.507 1.507 0 011.296-1.462zm-4.35-.016c.837 0 1.514.673 1.514 1.503 0 .83-.677 1.504-1.513 1.504a1.508 1.508 0 01-1.514-1.504c0-.83.678-1.503 1.514-1.503z"/><path fill-rule="evenodd" clip-rule="evenodd" d="M17.299 28.36c7.329 0 13.27-5.901 13.27-13.18C30.57 7.9 24.629 2 17.3 2 9.969 2 4.028 7.9 4.028 15.18c0 7.279 5.941 13.18 13.27 13.18zm0-1.648c6.413 0 11.612-5.163 11.612-11.532 0-6.37-5.2-11.532-11.613-11.532-6.413 0-11.612 5.163-11.612 11.532 0 6.37 5.2 11.532 11.613 11.532z"/><rect x="16.469" y="2.823" width="1.659" height="2.471" rx=".829"/><rect x="16.469" y="25.065" width="1.659" height="2.471" rx=".829"/><rect x="4.856" y="16.004" width="1.647" height="2.488" rx=".824" transform="rotate(-90 4.856 16.004)"/><rect x="27.252" y="16.004" width="1.647" height="2.488" rx=".824" transform="rotate(-90 27.252 16.004)"/><rect width="1.653" height="2.479" rx=".826" transform="matrix(.70954 -.70467 .70954 .70467 7.914 7.025)"/><rect width="1.653" height="2.479" rx=".826" transform="matrix(.70954 -.70467 .70954 .70467 23.75 22.752)"/><rect width="1.653" height="2.479" rx=".826" transform="matrix(-.70954 -.70467 -.70954 .70467 26.683 7.025)"/><rect width="1.653" height="2.479" rx=".826" transform="matrix(-.70954 -.70467 -.70954 .70467 10.848 22.752)"/><rect x="11.928" y="9.832" width="11.691" height="2.111" rx="1.056"/><rect x="11.927" y="13.527" width="11.691" height="2.111" rx="1.056"/><rect x="18.836" y="14.054" width="7.916" height="2.126" rx="1.063" transform="rotate(90 18.836 14.054)"/></g><defs><clipPath id="clip0"><path fill="#fff" d="M0 0h56.387v56H0z"/></clipPath></defs></svg>