<svg width="61" height="56" fill="none" xmlns="http://www.w3.org/2000/svg"><circle cx="40.645" cy="33.5" r="19.5" fill="#AFCDFB"/><g clip-path="url(#clip0)" fill="#000"><path d="M28.209 56a1.13 1.13 0 01-.225-.023l-.023-.005A29.985 29.985 0 0110.879 45.65a29.618 29.618 0 01-6.694-18.712V22.75c0-.604.493-1.094 1.101-1.094.609 0 1.102.49 1.102 1.094v4.187c0 12.876 9.164 24.135 21.82 26.851C40.85 51.062 50 39.808 50 26.943V8.32L28.193 2.23 6.389 8.32v4.586c0 .604-.493 1.094-1.102 1.094-.608 0-1.101-.49-1.101-1.094V7.492c0-.49.328-.92.803-1.053L27.895.041a1.1 1.1 0 01.597 0l22.907 6.398c.475.133.803.563.803 1.053v19.45a29.618 29.618 0 01-6.692 18.71 29.985 29.985 0 01-17.077 10.325 1.11 1.11 0 01-.224.023z"/><path d="M28.206 50.611c-.093 0-.185-.011-.275-.034-5.216-1.333-9.928-4.416-13.267-8.679-3.348-4.277-5.193-9.59-5.193-14.961V11.469c0-.49.328-.92.803-1.053l17.621-4.922a1.12 1.12 0 01.597 0l17.62 4.922c.476.133.804.563.804 1.053v15.474c0 5.366-1.842 10.676-5.186 14.95-3.333 4.262-8.038 7.346-13.248 8.683a1.129 1.129 0 01-.276.035zM11.674 12.298v14.639c0 10.049 6.783 18.828 16.531 21.449 9.735-2.629 16.508-11.406 16.508-21.443V12.298l-16.52-4.614-16.52 4.614z"/><path fill-rule="evenodd" clip-rule="evenodd" d="M28.697 39.14c7.507 0 13.593-6.044 13.593-13.5 0-7.455-6.086-13.5-13.593-13.5s-13.593 6.045-13.593 13.5c0 7.456 6.086 13.5 13.593 13.5zm0-1.687c6.569 0 11.894-5.289 11.894-11.812 0-6.524-5.325-11.813-11.894-11.813s-11.894 5.289-11.894 11.813c0 6.523 5.325 11.812 11.894 11.812z"/><rect x="27.847" y="12.984" width="1.699" height="2.531" rx=".85"/><rect x="27.847" y="35.766" width="1.699" height="2.531" rx=".85"/><rect x="15.953" y="26.484" width="1.687" height="2.549" rx=".844" transform="rotate(-90 15.953 26.484)"/><rect x="38.892" y="26.484" width="1.687" height="2.549" rx=".844" transform="rotate(-90 38.892 26.484)"/><rect width="1.693" height="2.539" rx=".846" transform="matrix(.70954 -.70467 .70954 .70467 19.085 17.288)"/><rect width="1.693" height="2.539" rx=".846" transform="matrix(.70954 -.70467 .70954 .70467 35.305 33.397)"/><rect width="1.693" height="2.539" rx=".846" transform="matrix(-.70954 -.70467 -.70954 .70467 38.31 17.288)"/><rect width="1.693" height="2.539" rx=".846" transform="matrix(-.70954 -.70467 -.70954 .70467 22.088 33.397)"/><rect x="24.166" y="21.141" width="9.121" height="1.647" rx=".824"/><rect x="24.166" y="24.023" width="9.121" height="1.647" rx=".824"/><rect x="29.556" y="24.435" width="6.176" height="1.658" rx=".829" transform="rotate(90 29.556 24.435)"/><path d="M5.286 18.922a1.098 1.098 0 01-1.101-1.094 1.098 1.098 0 011.101-1.094 1.098 1.098 0 011.101 1.094 1.098 1.098 0 01-1.1 1.094z"/></g><defs><clipPath id="clip0"><path fill="#fff" d="M0 0h56.387v56H0z"/></clipPath></defs></svg>