<svg width="57" height="56" fill="none" xmlns="http://www.w3.org/2000/svg"><circle cx="36.618" cy="33.5" r="19.5" fill="#FEE570"/><path d="M46.093 30.5l-8.269-12.873a3.653 3.653 0 001.973-3.235c0-1.536-.96-2.852-2.315-3.391l2.505-8.698a1.07 1.07 0 00-.275-1.055 4.3 4.3 0 00-6.044 0 2.104 2.104 0 01-1.492.614 2.105 2.105 0 01-1.495-.617l-.005-.005a4.303 4.303 0 00-6.034-.01l-.031.03a2.125 2.125 0 01-2.98-.004l-.007-.008a4.3 4.3 0 00-6.044 0 1.07 1.07 0 00-.275 1.056l2.51 8.695a3.658 3.658 0 00-2.32 3.393 3.65 3.65 0 001.973 3.235l-8.27 12.874C6 35.48 5.798 41.547 8.657 46.727S16.774 55 22.723 55h9.846c5.948 0 11.207-3.093 14.066-8.273 2.86-5.18 2.657-11.246-.542-16.226zm-26-27.733l.009.008a4.303 4.303 0 006.034.01l.03-.031a2.125 2.125 0 012.982.008l.006.005a4.3 4.3 0 006.044 0 2.125 2.125 0 012.508-.356l-2.399 8.329H19.991l-2.404-8.33a2.125 2.125 0 012.507.356zm24.645 42.928c-2.474 4.481-7.023 7.157-12.169 7.157h-9.846c-5.146 0-9.696-2.676-12.17-7.157-2.473-4.482-2.298-9.73.47-14.039l8.742-13.611h3.013c.598 0 1.082-.481 1.082-1.075 0-.593-.484-1.074-1.082-1.074h-3.605a1.51 1.51 0 01-1.515-1.504c0-.83.68-1.504 1.514-1.504H36.12a1.51 1.51 0 011.515 1.504c0 .83-.68 1.504-1.515 1.504h-3.605c-.598 0-1.082.481-1.082 1.074 0 .594.484 1.075 1.082 1.075h3.012l8.743 13.611c2.768 4.309 2.943 9.557.47 14.038z" fill="#000"/><path d="M27.646 18.045a1.079 1.079 0 001.082-1.074 1.079 1.079 0 00-1.082-1.075 1.078 1.078 0 00-1.082 1.074 1.079 1.079 0 001.082 1.075z" fill="#000"/><path fill-rule="evenodd" clip-rule="evenodd" d="M27.69 50c6.951 0 12.586-5.596 12.586-12.5S34.641 25 27.69 25c-6.951 0-12.586 5.596-12.586 12.5S20.739 50 27.69 50zm0-1.562c6.082 0 11.013-4.897 11.013-10.938 0-6.04-4.93-10.937-11.013-10.937S16.677 31.459 16.677 37.5c0 6.04 4.93 10.938 11.013 10.938z" fill="#000"/><rect x="26.903" y="25.781" width="1.573" height="2.344" rx=".787" fill="#000"/><rect x="26.903" y="46.875" width="1.573" height="2.344" rx=".787" fill="#000"/><rect x="15.89" y="38.281" width="1.562" height="2.36" rx=".781" transform="rotate(-90 15.89 38.281)" fill="#000"/><rect x="37.13" y="38.281" width="1.562" height="2.36" rx=".781" transform="rotate(-90 37.13 38.281)" fill="#000"/><rect width="1.567" height="2.351" rx=".784" transform="matrix(.70954 -.70467 .70954 .70467 18.79 29.766)" fill="#000"/><rect width="1.567" height="2.351" rx=".784" transform="matrix(.70954 -.70467 .70954 .70467 33.81 44.682)" fill="#000"/><rect width="1.567" height="2.351" rx=".784" transform="matrix(-.70954 -.70467 -.70954 .70467 36.59 29.766)" fill="#000"/><rect width="1.567" height="2.351" rx=".784" transform="matrix(-.70954 -.70467 -.70954 .70467 21.572 44.68)" fill="#000"/><rect x="23.495" y="33.333" width="8.446" height="1.525" rx=".763" fill="#000"/><rect x="23.494" y="36.002" width="8.446" height="1.525" rx=".763" fill="#000"/><rect x="28.485" y="36.383" width="5.719" height="1.536" rx=".768" transform="rotate(90 28.485 36.383)" fill="#000"/></svg>