<svg width="61" height="56" fill="none" xmlns="http://www.w3.org/2000/svg"><circle cx="40.645" cy="33.5" r="19.5" fill="#FFC37D"/><path d="M17.797 21.35l-1.939-1.444-1.937 1.444a20.492 20.492 0 01-12.16 4.025h-.88v10.944c0 8.9 6.07 16.622 14.764 18.78l.213.053.213-.054c8.694-2.157 14.765-9.88 14.765-18.779V25.375h-.881c-4.355 0-8.674-1.43-12.158-4.025zm11.277 14.97c0 8.02-5.423 14.992-13.216 17.027-7.793-2.035-13.215-9.006-13.215-17.028v-9.212a22.276 22.276 0 0012.335-4.357l.88-.656.881.656a22.27 22.27 0 0012.335 4.357v9.212z" fill="#000"/><path d="M54.54 7.429l-3.761-3.736A9.663 9.663 0 0043.925.875H23.978a7.98 7.98 0 00-4.08 1.122L18.5 2.83V.875H.881v15.75H18.5v-1.75h3.264a11.387 11.387 0 006.08 1.75h1.229v3.5c0 1.93 1.58 3.5 3.524 3.5s3.524-1.57 3.524-3.5v-3.986c1.049-.608 1.762-1.724 1.762-3.014 0-.402-.082-.781-.208-1.141a3.5 3.5 0 011.97-.609c1.944 0 3.525 1.57 3.525 3.5v33.25h-1.628l-1.175 7H53.02l-1.175-7h-1.627v-33.25c0-.898-.127-1.776-.347-2.626a3.325 3.325 0 002.228.876h.11c1.817 0 3.295-1.468 3.295-3.273v-.109c0-.862-.351-1.704-.965-2.314zm-37.8 7.446H2.642V2.625h14.096v12.25zm17.62 5.25c0 .965-.79 1.75-1.762 1.75a1.758 1.758 0 01-1.762-1.75v-3.5h3.524v3.5zm15.994 29.75l.587 3.5h-8.493l.587-3.5h7.319zm-5.421-1.75v-33.25c0-2.895-2.371-5.25-5.286-5.25a5.25 5.25 0 00-2.942.906 3.513 3.513 0 00-2.345-.906h-2.278l.987-.98c.5-.497 1.163-.77 1.87-.77h9.415c.333 0 .655.066.956.182l-.057.068a8.7 8.7 0 013.204 6.75v33.25h-3.524zm8.81-38.273a1.53 1.53 0 01-1.533 1.523h-.11c-.403 0-.798-.163-1.084-.446L47.47 7.407a4.397 4.397 0 00-3.116-1.282h-9.415a4.393 4.393 0 00-3.115 1.282L29.59 9.625h-1.397v1.75h6.167c.972 0 1.762.785 1.762 1.75s-.79 1.75-1.762 1.75h-6.515a9.633 9.633 0 01-5.331-1.603l-.221-.147H18.5V4.87l2.302-1.373a6.215 6.215 0 013.175-.872h19.949c2.118 0 4.109.82 5.607 2.306l3.76 3.736c.286.283.45.675.45 1.076v.11z" fill="#000"/><path fill-rule="evenodd" clip-rule="evenodd" d="M15.859 48.364c5.927 0 10.732-4.773 10.732-10.66 0-5.886-4.805-10.659-10.732-10.659-5.928 0-10.733 4.773-10.733 10.66 0 5.886 4.805 10.659 10.733 10.659zm-.001-1.333c5.186 0 9.39-4.175 9.39-9.326 0-5.151-4.204-9.327-9.39-9.327-5.187 0-9.391 4.176-9.391 9.327 0 5.15 4.204 9.326 9.39 9.326z" fill="#000"/><rect x="15.188" y="27.711" width="1.341" height="1.999" rx=".67" fill="#000"/><rect x="15.188" y="45.699" width="1.341" height="1.999" rx=".67" fill="#000"/><rect x="5.796" y="38.371" width="1.332" height="2.012" rx=".666" transform="rotate(-90 5.796 38.37)" fill="#000"/><rect x="23.908" y="38.371" width="1.332" height="2.012" rx=".666" transform="rotate(-90 23.908 38.37)" fill="#000"/><rect width="1.337" height="2.005" rx=".668" transform="matrix(.70954 -.70467 .70954 .70467 8.27 31.11)" fill="#000"/><rect width="1.337" height="2.005" rx=".668" transform="matrix(.70954 -.70467 .70954 .70467 21.077 43.828)" fill="#000"/><rect width="1.337" height="2.005" rx=".668" transform="matrix(-.70954 -.70467 -.70954 .70467 23.448 31.11)" fill="#000"/><rect width="1.337" height="2.005" rx=".668" transform="matrix(-.70954 -.70467 -.70954 .70467 10.641 43.828)" fill="#000"/><rect x="12.282" y="34.151" width="7.202" height="1.3" rx=".65" fill="#000"/><rect x="12.281" y="36.427" width="7.202" height="1.3" rx=".65" fill="#000"/><rect x="16.537" y="36.752" width="4.877" height="1.309" rx=".654" transform="rotate(90 16.537 36.752)" fill="#000"/></svg>