<svg width="69" height="56" fill="none" xmlns="http://www.w3.org/2000/svg"><circle cx="49.5" cy="33.5" r="19.5" fill="#E8BBEC"/><path d="M50.88 31.04a19.407 19.407 0 00-8.853-7.166l-1.056-.427c1.345-1.346 2.079-2.907 2.079-4.526 0-.983-.276-1.966-.795-2.882l-6.916-11.88A8.288 8.288 0 0028.105 0a8.288 8.288 0 00-7.233 4.16L13.95 16.053h-.002c-.001.002-.003-.003-.004 0-.52.915-.782 1.884-.782 2.867 0 1.619.733 3.18 2.078 4.526l-1.058.427a19.406 19.406 0 00-8.852 7.166A19.406 19.406 0 002 41.932v4.638C2 51.77 6.23 56 11.43 56h33.35c5.2 0 9.43-4.23 9.43-9.43v-4.638c0-3.896-1.151-7.662-3.33-10.892zM22.762 5.26a6.122 6.122 0 015.343-3.072 6.122 6.122 0 015.343 3.072l5.602 9.624a48.776 48.776 0 00-21.89 0l5.602-9.624zm.213 10.854c3.41-.379 6.85-.379 10.26 0v3.475a5.136 5.136 0 01-5.13 5.13 5.135 5.135 0 01-5.13-5.13v-3.475zM52.023 46.57c0 3.64-2.698 6.659-6.2 7.166V37.078c0-3.8-3.09-6.89-6.89-6.89h-15.84a1.094 1.094 0 000 2.187h15.84a4.708 4.708 0 014.703 4.703v16.734H12.574V37.078a4.709 4.709 0 014.703-4.703h5.906a1.094 1.094 0 000-2.188h-5.906c-3.8 0-6.89 3.092-6.89 6.891v16.658c-3.501-.507-6.2-3.526-6.2-7.166v-4.638a17.213 17.213 0 0110.815-16.03l2.226-.899c.288.18.59.352.907.517a1.094 1.094 0 101.012-1.94c-2.413-1.257-3.797-2.956-3.797-4.659 0-.469.104-.937.306-1.398 1.694-.47 3.408-.84 5.132-1.114v3.18c0 4.035 3.282 7.317 7.317 7.317s7.317-3.282 7.317-7.317v-3.18a46.72 46.72 0 015.135 1.115c.202.46.305.928.305 1.397 0 1.704-1.384 3.402-3.797 4.66a1.094 1.094 0 001.012 1.94c.316-.165.618-.338.907-.517l2.224.898a17.213 17.213 0 0110.815 16.03v4.638z" fill="#000"/><path d="M42.254 16.039c.009.014-.008-.015 0 0z" fill="#000"/><path fill-rule="evenodd" clip-rule="evenodd" d="M27.5 55.856c6.904 0 12.5-5.558 12.5-12.414 0-6.857-5.596-12.415-12.5-12.415S15 36.585 15 43.442c0 6.856 5.596 12.414 12.5 12.414zm-.001-1.552c6.04 0 10.938-4.863 10.938-10.862 0-6-4.897-10.863-10.938-10.863-6.04 0-10.938 4.864-10.938 10.863S21.459 54.304 27.5 54.304z" fill="#000"/><rect x="26.719" y="31.803" width="1.561" height="2.328" rx=".781" fill="#000"/><rect x="26.719" y="52.752" width="1.561" height="2.328" rx=".781" fill="#000"/><rect x="15.781" y="44.218" width="1.552" height="2.344" rx=".776" transform="rotate(-90 15.781 44.218)" fill="#000"/><rect x="36.875" y="44.218" width="1.552" height="2.344" rx=".776" transform="rotate(-90 36.875 44.218)" fill="#000"/><rect width="1.557" height="2.335" rx=".778" transform="matrix(.70954 -.70467 .70954 .70467 18.66 35.76)" fill="#000"/><rect width="1.557" height="2.335" rx=".778" transform="matrix(.70954 -.70467 .70954 .70467 33.577 50.574)" fill="#000"/><rect width="1.557" height="2.335" rx=".778" transform="matrix(-.70954 -.70467 -.70954 .70467 36.339 35.761)" fill="#000"/><rect width="1.557" height="2.335" rx=".778" transform="matrix(-.70954 -.70467 -.70954 .70467 21.423 50.574)" fill="#000"/><rect x="23.334" y="39.303" width="8.388" height="1.515" rx=".757" fill="#000"/><rect x="23.334" y="41.954" width="8.388" height="1.515" rx=".757" fill="#000"/><rect x="28.291" y="42.333" width="5.68" height="1.524" rx=".762" transform="rotate(90 28.29 42.333)" fill="#000"/></svg>