<svg width="8" height="16" fill="none" xmlns="http://www.w3.org/2000/svg"><path d="M4.193 7.131A1.99 1.99 0 012.2 5.151a1.99 1.99 0 011.994-1.982c1.1 0 1.995.889 1.995 1.981 0 .438.357.793.798.793.44 0 .797-.355.797-.793 0-1.693-1.195-3.114-2.792-3.475V.792A.795.795 0 004.193 0a.795.795 0 00-.798.792v.883C1.8 2.036.603 3.457.603 5.15c0 1.966 1.61 3.566 3.59 3.566 1.1 0 1.995.889 1.995 1.98a1.99 1.99 0 01-1.995 1.982A1.99 1.99 0 012.2 10.697a.795.795 0 00-.798-.793.795.795 0 00-.798.793c0 1.694 1.196 3.114 2.792 3.476v.882c0 .437.358.792.798.792.44 0 .798-.355.798-.792v-.882c1.597-.362 2.792-1.783 2.792-3.476 0-1.966-1.61-3.566-3.59-3.566z" fill="#4CA261"/></svg>