<svg width="15" height="14" fill="none" xmlns="http://www.w3.org/2000/svg"><path d="M12.18 11.58a3.766 3.766 0 01-2.147.67c-1.623 0-3.03-1.064-3.792-2.625h2.91a.878.878 0 00.882-.875.878.878 0 00-.881-.875h-3.45A6.191 6.191 0 015.628 7c0-.3.033-.59.074-.875h4.33a.878.878 0 00.882-.875.878.878 0 00-.881-.875H6.24c.763-1.561 2.17-2.625 3.792-2.625.768 0 1.49.226 2.146.67a.885.885 0 001.225-.229.871.871 0 00-.231-1.216A5.587 5.587 0 0010.033 0C7.45 0 5.242 1.815 4.323 4.375H2.986a.878.878 0 00-.881.875c0 .483.394.875.88.875h.96c-.033.29-.078.576-.078.875 0 .3.045.585.077.875h-.958a.878.878 0 00-.881.875c0 .483.394.875.88.875h1.34C5.242 12.185 7.45 14 10.033 14a5.586 5.586 0 003.14-.975.871.871 0 00.23-1.216.886.886 0 00-1.224-.23z" fill="#4CA261"/></svg>