<svg width="40" height="40" fill="none" xmlns="http://www.w3.org/2000/svg"><path fill-rule="evenodd" clip-rule="evenodd" d="M10 25a5 5 0 100-10 5 5 0 000 10zm0 2.5a7.5 7.5 0 100-15 7.5 7.5 0 000 15zM30 25a5 5 0 100-10 5 5 0 000 10zm0 2.5a7.5 7.5 0 100-15 7.5 7.5 0 000 15z" fill="#000"/><path fill-rule="evenodd" clip-rule="evenodd" d="M20 17.5a2.5 2.5 0 00-2.5 2.5H15a5 5 0 1110 0h-2.5a2.5 2.5 0 00-2.5-2.5zM0 20a1.25 1.25 0 011.25-1.25h2.5v2.5h-2.5A1.25 1.25 0 010 20zm38.75 1.25h-2.5v-2.5h2.5a1.25 1.25 0 010 2.5z" fill="#000"/></svg>