<svg width="215" height="60" fill="none" xmlns="http://www.w3.org/2000/svg"><path d="M26.36 21.748a4.324 4.324 0 01-4.312 4.311 4.324 4.324 0 01-4.312-4.311 4.324 4.324 0 014.312-4.312 4.301 4.301 0 014.311 4.312zm-4.312 3.126a3.128 3.128 0 003.126-3.126 3.128 3.128 0 00-3.126-3.126 3.128 3.128 0 00-3.126 3.126 3.128 3.128 0 003.126 3.126zm0 .431a3.604 3.604 0 003.593-3.593 3.604 3.604 0 00-3.593-3.593 3.604 3.604 0 00-3.593 3.593 3.58 3.58 0 003.593 3.593zm-1.222-4.922h2.515v.43h-2.515v-.43zm2.551 1.257h-.97v1.437h-.647V21.64h-.934v-.575h2.515v.575h.036zm12.395-5.892a4.324 4.324 0 01-4.311 4.311 4.324 4.324 0 01-4.312-4.311 4.324 4.324 0 014.312-4.312 4.324 4.324 0 014.311 4.312zm-4.347 3.126a3.128 3.128 0 003.126-3.126 3.128 3.128 0 00-3.126-3.126 3.128 3.128 0 00-3.126 3.126 3.128 3.128 0 003.126 3.126zm0 .43a3.604 3.604 0 003.593-3.592 3.604 3.604 0 00-3.593-3.593 3.604 3.604 0 00-3.593 3.593 3.58 3.58 0 003.593 3.593zm-1.186-4.922h2.515v.431H30.24v-.43zm2.515 1.294h-.97v1.437h-.647v-1.437h-.934V15.1h2.515v.575h.036zm9.7 7.509a4.324 4.324 0 01-4.311 4.312 4.324 4.324 0 01-4.312-4.312 4.324 4.324 0 014.312-4.311 4.301 4.301 0 014.311 4.311zm-4.311 3.09a3.128 3.128 0 003.126-3.126 3.128 3.128 0 00-3.126-3.126 3.128 3.128 0 00-3.126 3.126 3.128 3.128 0 003.126 3.126zm0 .467a3.604 3.604 0 003.593-3.593 3.604 3.604 0 00-3.593-3.593 3.604 3.604 0 00-3.593 3.593 3.603 3.603 0 003.593 3.593zM36.92 21.82h2.515v.431H36.92v-.431zm2.551 1.257h-.97v1.438h-.647v-1.438h-.934v-.575h2.515v.575h.036zm-25.186 5.641c9.953 1.725 24.9 1.474 32.373-.18v2.732c-9.629 1.904-27.306 1.688-32.373-.36v-2.192z" fill="#926D0F"/><path d="M14.501 36.91s-2.622-5.03-.682-5.604c1.94-.575.682 5.605.682 5.605zm31.906.576s2.623-5.03.683-5.605c-1.94-.575-.683 5.605-.683 5.605zm-11.39 4.527c-3.018.467-6.036.43-9.09 0-.144-.288-.18-.54 0-.755 3.054.539 6.072.539 9.09 0 .252.18.18.467 0 .755zm2.192 6.072c-4.42.79-8.91.79-13.402 0-.252-.036-.395-.252-.395-.503v-.144c0-.323.287-.539.575-.467 4.383.862 8.73.898 13.042 0 .288-.072.575.18.575.467v.144c0 .251-.18.43-.395.503z" fill="#926D0F"/><path d="M24.202 46.468l1.94-4.024c3.09.467 5.965.467 8.695 0l1.94 4.204c-4.132.826-8.3.718-12.575-.18zm6.324-12.001c-.252 0-1.76.18-1.76 1.833 0 1.796 1.724 3.413 1.724 3.413s1.725-1.617 1.725-3.413c.035-1.653-1.438-1.833-1.69-1.833zm-10.024-.61c-.216 0-1.581.18-1.581 1.76 0 1.725 1.58 3.234 1.58 3.234s1.582-1.545 1.582-3.234c-.036-1.545-1.33-1.76-1.581-1.76zm19.798 0c-.216 0-1.581.18-1.581 1.76 0 1.725 1.58 3.234 1.58 3.234s1.581-1.545 1.581-3.234a1.693 1.693 0 00-1.58-1.76z" fill="#926D0F"/><path d="M15.041 31.845c.18.467.18 1.078.18 1.437 1.365.216 2.587.431 3.952.575.503-.431 1.186-.467 1.366-.467.18 0 1.185.108 1.688.79a83.24 83.24 0 006.683.36c.575-.611 1.402-.683 1.617-.683.216 0 1.006.108 1.581.718a99.738 99.738 0 006.504-.323c.502-.755 1.437-.898 1.652-.898.18 0 .863.108 1.366.61 1.365-.143 2.479-.359 3.952-.718.036-.467.072-1.078.395-1.401-10.168 1.904-20.66 1.868-30.936 0zm30.646 2.874l-.072-1.006a38.98 38.98 0 01-3.557.718c.108.288.18.611.18 1.007 0 1.077-.504 2.12-.97 2.874a22.808 22.808 0 004.419-3.593zm-7.364.215c-1.904.18-3.809.252-5.749.18 1.042 2.48-2.084 5.174-2.084 5.174s-3.234-2.73-1.94-5.174a49.56 49.56 0 01-6.108-.18c.036.144.036.324.036.503 0 1.545-.97 2.947-1.545 3.63 2.838 1.4 5.856 2.047 9.485 2.047 3.593-.072 6.575-.646 9.414-2.048-.575-.718-1.545-2.12-1.545-3.629 0-.18.036-.359.036-.503zm-19.582-.503c-1.15-.215-2.335-.43-3.485-.718v1.114a22.656 22.656 0 004.312 3.485c-.503-.755-.97-1.797-.97-2.874a2.206 2.206 0 01.143-1.007zm22.924-8.299a4.35 4.35 0 01-.575.575c2.372.215 3.845.503 3.845.826 0 .683-6.432 1.222-14.372 1.222-7.94 0-14.372-.54-14.372-1.222 0-.683 6.431-1.222 14.372-1.222 1.545 0 3.018.036 4.42.072a4.18 4.18 0 01-.504-.61c-1.257-.036-2.55-.036-3.88-.036-2.228 0-4.348.036-6.288.143-.647.36-1.401.54-2.192.54-.575 0-1.15-.109-1.689-.324-4.203.323-6.934.862-6.934 1.473 0 1.006 7.653 1.832 17.103 1.832 9.45 0 17.103-.826 17.103-1.832-.072-.575-2.408-1.078-6.037-1.437z" fill="#926D0F"/><path d="M30 0c-.135.135-.27.405-.27.71 0 .27.101.472.135.608a.261.261 0 01.034.1l-.034-.033c-.101-.135-.405-.54-.878-.304-.27.135-.304.338-.338.54 0 .068 0 .102-.034.17.372-.372 1.081-.102 1.081.168v1.25c-.507.102-.98-.135-1.419-.371-.473-.237-.912-.473-1.284-.17-.338.237-.236.677-.169.71-.236.17-.574.136-.878.136-.338-.034-.642-.034-.743.236-.135.44.236.71.371.71-.135.135-.405.135-.642.135-.337 0-.641-.034-.641.405 0 .304.168.372.54.372 0 .608-.372 1.824-1.081 1.993-.912.169-1.453-.17-1.25-.54.101-.237.27-.203.44-.203h.1c0-.54-.844-.744-1.08-.372-.305.44-.136.777-.034.98.034.034.034.067.034.101a.85.85 0 00-.71 0c-.304.135-.676.405-.71.54.845.136 2.737.17 3.244 0 .405-.135.608-.337.777-.439.067-.033.101-.067.135-.1 0 .54.372.911.372.911s.371-.54.168-.912c0 0 .913.71 1.791.71.71 0 1.014-.136 1.081-.17-.372-.033-.54-.135-.71-.371.136-.169.372-.676.372-1.25a1.4 1.4 0 00-.135-.642c-.067-.203-.135-.372-.034-.777.102-.405.27-.71.338-.845 0-.033.034-.033.034-.033-.034.033-.101.033-.169.067-.304.102-.743.237-.743.845 0 0-.203-.338-.372-.17-.371.373.068.947.17 1.082-.373-.169-.677 0-.71.169-.17.54.169.71.371.71-.067-.17-.034-.372.17-.372.54 0 .54.912.37 1.08-.134.136-1.08.17-1.452-.37-.372-.541-.169-1.791.54-2.535.71-.709 1.082-.912 1.791-1.08.575-.136 1.453.303 1.79.54v.912c-.168.54-.607.507-.911.372-.203-.102-.102-.372-.034-.575.034-.067.034-.135.034-.169-.71 0-.845.777-.54 1.082.236.236.64.168.979.1-.237.102-.54.339-.608.643-.136.439-.17.675-.17.71.237 0 .744-.035.913-.17.135-.135.304-.405.372-.54-.136.236-.338.777-.17 1.08.034.068.068.17.136.237.135.237.236.507.338.642.067-.101.168-.338.27-.54.067-.135.101-.237.169-.372.135-.304-.068-.845-.17-1.081.068.135.204.405.372.54.136.136.676.17.913.17 0-.068-.034-.305-.17-.71-.1-.304-.37-.507-.607-.642.338.101.777.135.98-.101.303-.304.168-1.081-.541-1.081 0 .033.034.101.034.169.067.202.168.473-.034.574-.304.135-.71.169-.912-.372v-.912c.371-.236 1.216-.676 1.79-.54.71.169 1.081.371 1.79 1.08.71.71.913 1.994.541 2.534-.371.541-1.317.473-1.452.372-.17-.169-.17-1.081.371-1.081.237 0 .237.169.17.372.168 0 .54-.17.37-.71-.067-.169-.37-.371-.709-.169.135-.135.54-.71.17-1.08-.17-.17-.372.168-.372.168 0-.608-.44-.743-.744-.845-.067-.033-.101-.033-.169-.067 0 0 0 .034.034.034.068.135.237.473.338.844.101.406.034.575-.034.777-.067.17-.135.338-.135.642 0 .575.237 1.081.372 1.25-.17.237-.338.338-.71.372.068.067.372.169 1.081.169.913 0 1.79-.71 1.79-.71-.168.372.17.912.17.912s.371-.371.371-.912c.034 0 .068.068.136.102.135.135.371.304.777.439.506.169 2.398.135 3.243 0-.068-.135-.44-.406-.71-.54-.304-.136-.608-.068-.71 0 0-.034.035-.068.035-.102.101-.203.236-.54-.034-.98-.237-.371-1.081-.169-1.081.372h.101c.135-.034.304-.034.44.203.168.371-.372.709-1.25.54-.71-.135-1.082-1.385-1.082-1.993.372 0 .54-.068.54-.372 0-.405-.303-.405-.641-.405-.236 0-.473 0-.642-.135.135 0 .507-.304.372-.71-.102-.304-.406-.27-.744-.236-.304.034-.608.034-.878-.135.068-.068.135-.473-.169-.71-.371-.27-.81-.067-1.284.17-.439.202-.912.438-1.419.37v-1.25c0-.303.71-.54 1.081-.168 0-.068-.033-.102-.033-.17-.034-.202-.068-.405-.338-.54-.473-.236-.743.17-.878.304 0 .034-.034.034-.034.034 0-.034 0-.067.034-.101.067-.135.135-.372.135-.608C30.27.439 30.135.136 30 0zm0 60a1.054 1.054 0 01-.27-.71c0-.27.101-.472.135-.608.034-.067.034-.1.034-.1l-.034.033c-.101.135-.405.54-.878.304-.27-.135-.304-.338-.338-.54 0-.068 0-.102-.034-.17.372.372 1.081.102 1.081-.168v-1.25c-.507-.102-.98.135-1.419.371-.473.237-.912.473-1.284.17-.338-.237-.236-.676-.169-.71-.236-.17-.574-.135-.878-.135-.338.033-.642.033-.743-.237-.135-.44.236-.71.371-.71-.135-.134-.405-.134-.642-.134-.337 0-.641 0-.641-.406 0-.304.168-.371.54-.371 0-.609-.372-1.825-1.081-1.994-.912-.169-1.453.17-1.25.54.101.237.27.204.44.204h.1c0 .54-.844.743-1.08.371-.305-.44-.136-.777-.034-.98.034-.033.034-.067.034-.101a.85.85 0 01-.71 0c-.304-.135-.676-.405-.71-.54.845-.136 2.737-.17 3.244 0 .405.135.608.337.777.439a.459.459 0 01.135.101c0-.54.372-.912.372-.912s.371.54.168.912c0 0 .913-.71 1.791-.71.71 0 1.014.136 1.081.17-.372.033-.54.135-.71.371.136.169.372.676.372 1.25a1.4 1.4 0 01-.135.642c-.067.203-.135.372-.034.777.102.405.27.71.338.845 0 .033.034.033.034.033-.034-.033-.101-.033-.169-.067-.304-.101-.743-.237-.743-.845 0 0-.203.338-.372.17-.371-.373.068-.947.17-1.082-.373.169-.677 0-.71-.169-.17-.54.169-.71.371-.71-.067.17-.034.372.17.372.54 0 .54-.912.37-1.08-.134-.136-1.08-.17-1.452.37-.372.541-.169 1.791.54 2.535.71.71 1.082.912 1.791 1.08.575.136 1.453-.303 1.79-.54v-.912c-.168-.54-.607-.507-.911-.372-.203.102-.102.372-.034.575a.364.364 0 01.034.169c-.71 0-.845-.777-.54-1.081.236-.237.64-.17.979-.102-.237-.101-.54-.338-.608-.642-.136-.439-.17-.675-.17-.71.237 0 .744.035.913.17.135.135.304.405.372.54-.136-.236-.338-.777-.17-1.08.034-.068.068-.17.136-.237.135-.237.236-.507.338-.642.067.101.168.338.27.54.067.136.101.237.169.372.135.304-.068.845-.17 1.081.068-.135.204-.405.372-.54.136-.136.676-.17.913-.17 0 .068-.034.305-.17.71-.1.304-.37.507-.607.642.338-.101.777-.135.98.101.303.304.168 1.081-.541 1.081 0-.033.034-.1.034-.168.067-.203.168-.474-.034-.575-.304-.135-.71-.169-.912.372v.912c.371.236 1.216.676 1.79.54.71-.168 1.081-.371 1.79-1.08.71-.71.913-1.994.541-2.534-.371-.54-1.317-.473-1.452-.372-.17.169-.17 1.081.371 1.081.237 0 .237-.169.17-.371.168 0 .54.168.37.709-.067.169-.37.371-.709.169.135.135.54.71.17 1.08-.17.17-.372-.168-.372-.168 0 .608-.44.743-.744.845-.067.033-.101.033-.169.067 0 0 0-.034.034-.034a4.66 4.66 0 00.338-.844c.101-.406.034-.575-.034-.777-.067-.17-.135-.338-.135-.642 0-.575.237-1.081.372-1.25-.17-.237-.338-.338-.71-.372.068-.067.372-.169 1.081-.169.913 0 1.79.71 1.79.71-.168-.372.17-.912.17-.912s.371.371.371.912c.034 0 .068-.068.136-.102.135-.135.371-.304.777-.439.506-.169 2.398-.135 3.243 0-.068.135-.44.406-.71.54-.304.136-.608.068-.71 0 0 .035.035.068.035.102.101.203.236.54-.034.98-.237.372-1.081.169-1.081-.372h.101c.135.034.304.034.44-.203.168-.371-.372-.709-1.25-.54-.71.135-1.082 1.385-1.082 1.993.372 0 .54.068.54.372 0 .405-.303.405-.641.405-.236 0-.473 0-.642.135.135 0 .507.305.372.71-.102.304-.406.27-.744.236-.304-.033-.608-.033-.878.136.068.067.135.473-.169.709-.371.27-.81.067-1.284-.169-.439-.203-.912-.44-1.419-.372v1.25c0 .305.71.541 1.081.17 0 .067-.033.1-.033.168-.034.203-.068.406-.338.54-.473.237-.743-.168-.878-.303 0-.034-.034-.034-.034-.034 0 .034 0 .067.034.101.067.135.135.372.135.608-.102.27-.237.575-.372.676zM0 30c.135.135.405.27.71.27.27 0 .472-.101.608-.135.067-.034.1-.034.1-.034l-.033.034c-.135.101-.54.405-.304.878.135.27.338.304.54.338.068 0 .102 0 .17.034-.372-.372-.102-1.081.168-1.081h1.25c.102.507-.135.98-.371 1.419-.237.473-.473.912-.17 1.284.237.337.677.236.71.169.17.236.136.574.136.878-.034.338-.034.642.236.743.44.135.71-.236.71-.371.135.135.135.405.135.641 0 .338-.034.642.405.642.304 0 .372-.169.372-.54.608 0 1.824.371 1.993 1.08.169.913-.17 1.453-.54 1.25-.237-.1-.203-.27-.203-.438v-.102c-.54 0-.744.845-.372 1.081.44.304.777.136.98.034.034-.034.067-.034.101-.034a.85.85 0 000 .71c.135.304.405.675.54.71.136-.845.17-2.737 0-3.244-.135-.405-.337-.608-.439-.777-.033-.068-.067-.101-.1-.135.54 0 .911-.372.911-.372s-.54-.371-.912-.169c0 0 .71-.912.71-1.79 0-.71-.136-1.014-.17-1.081-.033.371-.135.54-.371.71-.169-.136-.676-.372-1.25-.372a1.4 1.4 0 00-.642.135c-.203.067-.372.135-.777.033-.405-.1-.71-.27-.845-.337-.033 0-.033-.034-.033-.034.033.034.033.101.067.169.102.304.237.743.845.743 0 0-.338.203-.17.372.373.371.947-.068 1.082-.17-.169.372 0 .676.169.71.54.17.71-.169.71-.371-.17.067-.372.033-.372-.17 0-.54.912-.54 1.08-.371.136.135.17 1.081-.37 1.453-.541.371-1.791.169-2.535-.54-.709-.71-.912-1.082-1.08-1.791-.136-.575.303-1.453.54-1.791h.912c.54.169.507.608.372.912-.102.203-.372.102-.575.034-.067-.034-.135-.034-.169-.034 0 .71.777.845 1.082.54.236-.236.168-.641.1-.979.102.237.339.54.643.608.439.135.675.17.71.17 0-.237-.035-.744-.17-.913a2.58 2.58 0 00-.54-.372c.236.135.777.338 1.08.17.068-.035.17-.068.237-.136.237-.135.507-.236.642-.338-.101-.067-.338-.169-.54-.27-.135-.068-.237-.101-.372-.169-.304-.135-.845.068-1.081.169.135-.068.405-.203.54-.372.136-.135.17-.675.17-.912-.068 0-.305.034-.71.17-.304.1-.507.37-.642.607.101-.338.135-.777-.101-.98-.304-.304-1.081-.169-1.081.541.033 0 .101-.034.169-.034.202-.067.473-.169.574.034.135.304.169.71-.372.912h-.912c-.236-.372-.676-1.216-.54-1.79.169-.71.371-1.082 1.08-1.79.71-.71 1.994-.913 2.534-.541.541.371.473 1.317.372 1.452-.169.17-1.081.17-1.081-.371 0-.237.169-.237.372-.17 0-.168-.17-.54-.71-.37-.169.067-.371.37-.169.709-.135-.136-.71-.541-1.08-.17-.17.17.168.372.168.372-.608 0-.743.44-.845.744-.033.067-.033.1-.067.168 0 0 .034 0 .034-.033a4.66 4.66 0 01.844-.338c.406-.102.575-.034.777.034.17.067.338.135.642.135.575 0 1.081-.237 1.25-.372.237.169.338.338.372.71.067-.068.169-.372.169-1.082 0-.912-.71-1.79-.71-1.79.372.169.912-.169.912-.169s-.371-.372-.912-.372c0-.033.068-.067.102-.135.135-.135.304-.371.439-.777.169-.507.135-2.398 0-3.243-.135.067-.406.44-.54.71-.136.303-.068.607 0 .709-.034 0-.068-.034-.102-.034-.203-.101-.54-.236-.98.034-.371.236-.169 1.081.372 1.081v-.101c-.034-.136-.034-.304.203-.44.371-.168.709.372.54 1.25-.135.71-1.385 1.082-1.993 1.082 0-.372-.068-.541-.372-.541-.405 0-.405.304-.405.642 0 .236 0 .473-.135.642 0-.135-.304-.507-.71-.372-.304.102-.27.405-.236.743.034.304.034.608-.135.879-.068-.068-.473-.135-.71.169-.27.371-.067.81.17 1.284.202.439.438.912.37 1.418h-1.25c-.303 0-.54-.71-.168-1.08-.068 0-.102.033-.17.033-.202.034-.405.068-.54.338-.236.473.17.743.304.878.034 0 .034.034.034.034-.034 0-.067 0-.101-.034a1.472 1.472 0 00-.608-.135C.406 29.73.1 29.865 0 30z" fill="#00461C"/><path d="M8.784 8.784c0 .169.101.507.304.71.169.168.405.27.54.337.068.034.102.034.102.068h-.068c-.169-.034-.675-.102-.844.405-.102.304.034.473.169.608.034.034.067.102.101.135 0-.506.676-.844.878-.641l.879.878c-.304.405-.811.574-1.25.743-.507.17-.98.304-1.047.777-.068.406.304.642.371.642-.067.304-.304.507-.54.71-.27.236-.507.439-.372.709.203.405.676.338.777.27 0 .203-.169.372-.338.54-.236.237-.473.44-.169.744.203.203.372.135.642-.135.44.44 1.047 1.554.642 2.162-.507.777-1.149.878-1.284.507-.067-.237.034-.338.17-.44.033-.033.067-.033.1-.067-.371-.372-1.114.068-1.013.507.101.54.44.642.642.71.034 0 .067.033.101.033a.815.815 0 00-.506.507c-.102.304-.17.777-.136.878.676-.506 2.061-1.824 2.298-2.297.169-.372.202-.676.236-.845 0-.067 0-.135.034-.169.372.372.878.372.878.372s-.135-.642-.506-.777c0 0 1.148-.135 1.79-.777.507-.507.642-.81.642-.878-.304.236-.473.304-.777.27-.034-.203-.237-.743-.642-1.149-.236-.236-.405-.304-.54-.371-.203-.102-.372-.17-.609-.507-.202-.338-.304-.676-.371-.845 0-.034 0-.034-.034-.067-.034.034-.034.101-.068.135-.135.304-.371.71.068 1.115 0 0-.372-.102-.372.135 0 .507.71.642.879.642-.372.135-.473.473-.372.642.27.506.642.371.777.27-.169-.101-.27-.237-.135-.372.372-.371 1.014.27 1.014.507 0 .169-.642.878-1.284.777-.642-.135-1.385-1.149-1.385-2.162 0-1.014.135-1.385.506-2.027.304-.507 1.217-.811 1.656-.878l.642.641c.27.507-.068.777-.372.879-.236.067-.338-.203-.44-.372-.033-.067-.067-.101-.067-.135-.506.507-.034 1.149.372 1.149.304 0 .574-.338.743-.642-.067.236-.135.608 0 .878.203.405.338.608.372.642.169-.169.507-.574.507-.777 0-.203-.102-.507-.136-.642.102.27.338.777.642.879.068.033.17.067.27.1.27.102.541.204.71.237a4.053 4.053 0 00-.203-.574c-.033-.135-.101-.27-.135-.372-.101-.304-.642-.54-.878-.641.135.033.439.135.642.135.202 0 .608-.338.777-.507-.034-.034-.237-.17-.642-.372-.27-.135-.642-.101-.879 0 .304-.169.642-.439.642-.743 0-.405-.642-.878-1.148-.372.034.034.067.034.135.068.169.067.44.203.371.44-.1.303-.371.641-.878.37l-.642-.641c.102-.44.372-1.351.879-1.656.641-.371 1.013-.506 2.027-.506 1.013 0 2.027.777 2.162 1.385.135.642-.575 1.284-.777 1.284-.27 0-.879-.642-.507-1.014.169-.169.304-.034.372.135.135-.135.27-.506-.27-.777-.17-.101-.507 0-.643.372 0-.17-.135-.879-.641-.879-.203 0-.136.372-.136.372-.439-.44-.844-.236-1.114-.068-.068.034-.102.068-.136.068 0 0 .034 0 .068.034.169.067.507.169.845.372.371.202.439.405.506.608.068.168.135.337.372.54.405.405.946.608 1.149.642.033.27 0 .473-.27.777.1 0 .371-.135.878-.642.642-.642.777-1.79.777-1.79.135.371.777.506.777.506s0-.506-.372-.878c.034 0 .101-.034.17-.034.202-.034.472-.034.844-.236.473-.237 1.79-1.622 2.297-2.298-.135-.033-.574.034-.878.136a.815.815 0 00-.507.506c0-.033-.034-.067-.034-.101-.067-.203-.203-.54-.71-.642-.439-.101-.878.642-.506 1.014.034-.034.067-.068.067-.102.102-.135.203-.236.44-.169.371.135.27.777-.507 1.284-.608.405-1.757-.203-2.162-.642.27-.27.337-.439.135-.642-.304-.304-.507-.067-.743.17-.17.168-.338.337-.541.337.101-.101.169-.574-.27-.777-.27-.135-.473.101-.71.372-.202.236-.405.473-.71.54 0-.101-.236-.439-.641-.371-.473.067-.608.54-.777 1.047-.135.473-.304.946-.743 1.25l-.879-.879c-.202-.202.135-.878.642-.878-.034-.034-.101-.067-.135-.101-.169-.135-.338-.237-.608-.17-.507.17-.405.643-.405.845v.068s-.034-.034-.068-.101c-.068-.135-.135-.338-.338-.54a.678.678 0 00-.608-.44zm42.432.034c-.169 0-.506.1-.71.304-.168.168-.27.405-.337.54-.034.068-.034.101-.034.101v-.067c.034-.169.102-.676-.405-.845-.304-.101-.473.034-.608.17-.034.033-.102.067-.135.1.506 0 .844.676.642.879l-.879.878c-.405-.304-.574-.81-.743-1.25-.169-.506-.304-.98-.777-1.047-.405-.068-.642.304-.642.372-.304-.068-.507-.304-.71-.54-.236-.271-.439-.508-.709-.373-.405.203-.338.676-.27.778-.203 0-.372-.17-.54-.338-.237-.237-.44-.473-.744-.17-.203.203-.135.372.135.643-.439.439-1.554 1.047-2.162.642-.777-.507-.878-1.15-.507-1.284.237-.068.338.034.44.169.033.033.033.067.067.101.372-.372-.068-1.115-.507-1.013-.54.1-.642.439-.71.641 0 .034-.033.068-.033.102a.815.815 0 00-.507-.507c-.304-.101-.777-.169-.878-.135.507.676 1.824 2.06 2.297 2.297.372.17.676.203.845.237.067 0 .135 0 .169.033-.372.372-.372.879-.372.879s.642-.135.777-.507c0 0 .135 1.149.777 1.79.507.507.81.643.879.643-.237-.305-.305-.473-.27-.777.202-.034.742-.237 1.148-.642.236-.237.304-.406.371-.541.102-.203.17-.372.507-.608.338-.203.676-.304.845-.372.034 0 .034 0 .067-.034-.033-.033-.1-.033-.135-.067-.304-.135-.71-.372-1.115.068 0 0 .102-.372-.135-.372-.506 0-.642.71-.642.878-.135-.371-.473-.473-.642-.371-.506.27-.371.642-.27.777.102-.17.237-.27.372-.136.371.372-.27 1.014-.507 1.014-.169 0-.878-.642-.777-1.284.135-.642 1.149-1.385 2.162-1.385 1.014 0 1.385.135 2.027.507.507.304.811 1.216.879 1.655l-.642.642c-.507.27-.777-.067-.879-.371-.067-.237.203-.338.372-.44.068-.033.101-.067.135-.067-.507-.507-1.148-.034-1.148.371 0 .304.337.575.641.744-.236-.068-.608-.136-.878 0-.405.202-.608.338-.642.371.169.17.574.507.777.507.203 0 .507-.101.642-.135-.27.101-.777.338-.878.642a2.346 2.346 0 00-.102.27c-.101.27-.202.54-.236.71.135-.034.338-.102.574-.203.135-.034.27-.101.372-.135.304-.102.54-.642.642-.879-.034.136-.136.44-.136.642 0 .203.338.608.507.777.034-.034.17-.236.372-.642.135-.27.101-.641 0-.878.169.304.44.642.743.642.406 0 .879-.642.372-1.149-.034.034-.034.068-.068.135-.067.17-.203.44-.439.372-.304-.101-.642-.372-.372-.878l.642-.642c.44.101 1.352.371 1.656.878.371.642.506 1.014.506 2.027 0 1.014-.777 2.027-1.385 2.162-.642.135-1.283-.574-1.283-.777 0-.27.641-.878 1.013-.507.169.17.034.305-.135.372.135.135.507.27.777-.27.101-.17 0-.507-.372-.642.17 0 .879-.135.879-.642 0-.203-.372-.135-.372-.135.44-.44.236-.845.068-1.115-.034-.068-.068-.101-.068-.135v.067c-.068.17-.169.507-.372.845-.202.372-.405.44-.574.507a1.182 1.182 0 00-.54.372c-.406.405-.608.945-.642 1.148-.27.034-.473 0-.777-.27 0 .101.135.372.642.878.641.642 1.79.777 1.79.777-.372.135-.507.777-.507.777s.507 0 .879-.371c0 .033.033.101.033.169.034.202.034.473.237.844.236.473 1.622 1.79 2.297 2.297.034-.135-.034-.574-.135-.878a.815.815 0 00-.507-.507c.034 0 .068-.034.102-.034.202-.067.54-.202.642-.709.101-.44-.642-.878-1.014-.507.034.034.068.068.102.068.135.101.236.203.168.44-.135.37-.777.27-1.283-.508-.406-.608.202-1.756.642-2.162.27.27.439.338.641.135.304-.304.068-.506-.169-.743-.169-.169-.337-.338-.337-.54.101.1.574.168.777-.27.135-.271-.102-.474-.372-.71-.236-.203-.473-.406-.54-.71.1 0 .439-.236.371-.642-.067-.473-.54-.608-1.047-.777-.473-.135-.946-.304-1.25-.743l.878-.878c.203-.203.879.135.879.642.033-.034.067-.102.1-.136.136-.168.237-.337.17-.608-.17-.506-.642-.405-.845-.405h-.067s.033-.034.101-.068c.135-.067.338-.135.54-.337a.865.865 0 00.338-.608zM8.784 51.216c0-.169.101-.506.304-.71.169-.168.405-.27.54-.337.068-.034.102-.034.102-.034h-.068c-.169.034-.675.102-.844-.405-.102-.304.034-.473.169-.608.034-.034.067-.102.101-.135 0 .506.676.844.878.642l.879-.879c-.304-.405-.811-.574-1.25-.743-.507-.169-.98-.304-1.047-.777-.068-.405.304-.642.371-.642-.067-.304-.304-.507-.54-.71-.27-.236-.507-.439-.372-.709.203-.405.676-.338.777-.27 0-.203-.169-.372-.338-.54-.236-.237-.473-.44-.169-.744.203-.203.372-.135.642.135.44-.439 1.047-1.554.642-2.162-.507-.777-1.149-.878-1.284-.507-.067.237.034.338.17.44.033.033.067.033.1.067-.371.372-1.114-.068-1.013-.507.101-.54.44-.642.642-.71.034 0 .067-.033.101-.033a.815.815 0 01-.506-.507c-.102-.304-.17-.777-.136-.878.676.507 2.061 1.824 2.298 2.297.169.372.202.676.236.845 0 .067 0 .135.034.169.372-.372.878-.372.878-.372s-.135.642-.506.777c0 0 1.148.135 1.79.777.507.507.642.81.642.879-.304-.237-.473-.305-.777-.27-.034.202-.237.742-.642 1.148-.236.236-.405.304-.54.371-.203.102-.372.17-.609.507-.202.338-.304.676-.371.845 0 .034 0 .034-.034.067-.034-.033-.034-.1-.068-.135-.135-.304-.371-.71.068-1.115 0 0-.372.102-.372-.135 0-.506.71-.642.879-.642-.372-.135-.473-.473-.372-.642.27-.506.642-.371.777-.27-.169.102-.27.237-.135.372.372.371 1.014-.27 1.014-.507 0-.169-.642-.878-1.284-.777-.642.135-1.385 1.149-1.385 2.162 0 1.014.135 1.385.506 2.027.304.507 1.217.811 1.656.879l.642-.642c.27-.507-.068-.777-.372-.879-.236-.067-.338.203-.44.372-.033.068-.067.101-.067.135-.506-.507-.034-1.148.372-1.148.304 0 .574.337.743.641-.067-.236-.135-.608 0-.878.203-.405.338-.608.372-.642.169.169.507.574.507.777 0 .203-.102.507-.136.642.102-.27.338-.777.642-.878.068-.034.17-.068.27-.102.27-.101.541-.202.71-.236a4.053 4.053 0 01-.203.574c-.033.135-.101.27-.135.372-.101.304-.642.54-.878.642.135-.034.439-.136.642-.136.202 0 .608.338.777.507-.034.034-.237.17-.642.372-.27.135-.642.101-.879 0 .304.169.642.44.642.743 0 .406-.642.879-1.148.372.034-.034.067-.034.135-.068.169-.067.44-.203.371-.439-.1-.304-.371-.642-.878-.372l-.642.642c.102.44.372 1.352.879 1.656.641.371 1.013.506 2.027.506 1.013 0 2.027-.777 2.162-1.385.135-.642-.575-1.283-.777-1.283-.27 0-.879.641-.507 1.013.169.169.304.034.372-.135.135.135.27.507-.27.777-.17.101-.507 0-.643-.372 0 .17-.135.879-.641.879-.203 0-.136-.372-.136-.372-.439.44-.844.236-1.114.068-.068-.034-.102-.068-.136-.068h.068c.169-.068.507-.169.845-.372.371-.202.439-.405.506-.574.068-.169.135-.338.372-.54.405-.406.946-.608 1.149-.642.033-.27 0-.473-.27-.777.1 0 .371.135.878.642.642.641.777 1.79.777 1.79.135-.372.777-.507.777-.507s0 .507-.372.879c.034 0 .101.033.17.033.202.034.472.034.844.237.473.236 1.79 1.622 2.297 2.297-.135.034-.574-.034-.878-.135a.815.815 0 01-.507-.507c0 .034-.034.068-.034.102-.067.202-.203.54-.71.642-.439.101-.878-.642-.506-1.014.034.034.067.068.067.102.102.135.203.236.44.168.371-.135.27-.777-.507-1.283-.608-.406-1.757.202-2.162.642.27.27.337.439.135.641-.304.304-.507.068-.743-.169-.17-.169-.338-.337-.541-.337.101.101.169.574-.27.777-.27.135-.473-.102-.71-.372-.202-.236-.405-.473-.71-.54 0 .1-.236.439-.641.371-.473-.067-.608-.54-.777-1.047-.135-.473-.304-.946-.743-1.25l-.879.878c-.202.203.135.879.642.879-.034.033-.101.067-.135.1-.169.136-.338.237-.608.17-.507-.17-.405-.642-.405-.845v-.067s-.034.033-.068.101c-.068.135-.135.338-.338.54-.135.237-.439.338-.608.338zm42.398 0c-.169 0-.473-.101-.71-.337-.168-.17-.27-.406-.337-.541-.034-.068-.034-.101-.068-.101v.067c.034.17.102.676-.405.845-.304.101-.473-.034-.608-.17-.034-.033-.102-.067-.135-.1.506 0 .844-.676.642-.879l-.879-.878c-.405.304-.574.81-.743 1.25-.169.507-.304.98-.777 1.047-.405.068-.642-.304-.642-.371-.304.067-.507.303-.71.54-.236.27-.439.507-.709.372-.405-.203-.338-.676-.27-.777-.203 0-.372.169-.54.337-.237.237-.44.473-.744.17-.203-.203-.135-.372.135-.642-.439-.44-1.554-1.048-2.162-.642-.777.506-.878 1.148-.507 1.283.237.068.338-.033.44-.169.033-.033.033-.067.067-.1.372.37-.068 1.114-.507 1.013-.54-.102-.642-.44-.71-.642 0-.034-.033-.068-.033-.102a.815.815 0 01-.507.507c-.304.102-.777.17-.878.135.507-.675 1.824-2.06 2.297-2.297.372-.169.676-.203.845-.236.067 0 .135 0 .169-.034-.372-.372-.372-.879-.372-.879s.642.136.777.507c0 0 .135-1.149.777-1.79.507-.507.811-.642.879-.642-.237.304-.304.473-.27.777.202.033.742.236 1.148.642.236.236.304.405.372.54.1.203.168.372.506.574.338.203.676.304.845.372h.067c-.033.034-.1.034-.135.068-.304.135-.71.371-1.115-.068 0 0 .102.372-.135.372-.507 0-.642-.71-.642-.879-.135.372-.473.473-.642.372-.506-.27-.371-.642-.27-.777.102.169.237.304.372.135.372-.372-.27-1.014-.507-1.014-.169 0-.878.642-.777 1.284.135.642 1.149 1.385 2.162 1.385 1.014 0 1.385-.135 2.027-.506.507-.304.811-1.217.879-1.656l-.642-.642c-.507-.27-.777.068-.879.372-.067.236.203.338.372.44.068.033.101.067.135.067-.507.507-1.148.034-1.148-.372 0-.304.337-.574.641-.743-.236.067-.608.135-.878 0-.405-.203-.608-.338-.642-.372.169-.169.574-.507.777-.507.203 0 .507.102.642.136-.27-.102-.777-.338-.878-.642-.034-.102-.102-.237-.136-.372-.067-.236-.168-.44-.202-.574.169.034.439.135.71.236.1.034.168.068.27.102.304.101.54.642.641.878-.033-.135-.135-.44-.135-.642 0-.203.338-.608.507-.777.034.034.169.237.372.642.135.27.101.642 0 .878.169-.304.439-.642.743-.642.405 0 .878.642.371 1.15-.033-.035-.033-.068-.067-.136-.068-.169-.203-.44-.44-.372-.303.102-.641.372-.37.879l.641.642c.44-.102 1.351-.372 1.656-.879.371-.642.506-1.013.506-2.027 0-1.013-.777-2.027-1.385-2.162-.642-.135-1.284.574-1.284.777 0 .27.642.879 1.014.507.169-.17.034-.304-.135-.372.135-.135.506-.27.777.27.101.17 0 .507-.372.642.169 0 .879.136.879.642 0 .203-.372.135-.372.135.439.44.236.845.067 1.115-.033.068-.067.102-.067.135 0 0 0-.033-.034-.067-.067-.17-.169-.507-.372-.845-.202-.371-.405-.439-.608-.507a1.191 1.191 0 01-.54-.371c-.406-.406-.608-.946-.642-1.149-.27-.034-.473 0-.777.27 0-.1.135-.371.642-.878.642-.642 1.79-.777 1.79-.777-.371-.135-.507-.777-.507-.777s.507 0 .879.372c0-.034.034-.102.034-.17.034-.202.034-.472.236-.844.237-.473 1.622-1.79 2.297-2.297.034.135-.033.574-.135.878a.815.815 0 01-.506.507c.033 0 .067.034.101.034.203.067.54.203.642.71.101.438-.642.878-1.014.506.034-.034.068-.068.102-.068.135-.1.236-.202.169-.439-.136-.371-.777-.27-1.284.507-.406.608.203 1.757.642 2.162.27-.27.439-.338.642-.135.304.304.067.507-.17.743-.168.17-.337.338-.337.54.101-.1.574-.168.777.271.135.27-.101.473-.372.71-.236.202-.473.405-.54.709.101 0 .439.236.371.642-.067.473-.54.608-1.047.777-.473.135-.946.304-1.25.743l.878.879c.203.202.879-.136.879-.642.034.033.067.101.101.135.135.169.237.338.17.608-.17.507-.643.405-.846.405h-.067s.034.034.101.034c.135.068.338.135.54.338.305.236.406.54.406.71zm9.527-21.182a1.054 1.054 0 00-.71-.27c-.27 0-.473.1-.608.135-.067.033-.101.033-.101.033l.034-.033c.135-.102.54-.406.304-.879-.135-.27-.338-.304-.54-.338-.068 0-.102 0-.17-.033.372.371.102 1.08-.169 1.08H57.5c-.101-.506.136-.98.372-1.418.236-.473.473-.912.169-1.284-.237-.338-.676-.237-.71-.169-.169-.236-.135-.574-.135-.878.034-.338.034-.642-.236-.744-.44-.135-.71.237-.71.372-.135-.135-.135-.405-.135-.642 0-.338.034-.642-.405-.642-.304 0-.372.17-.372.54-.608 0-1.824-.37-1.993-1.08-.169-.912.169-1.453.54-1.25.237.101.203.27.203.439v.101c.54 0 .743-.844.372-1.08-.44-.305-.777-.136-.98-.035-.034.034-.068.034-.101.034a.85.85 0 000-.71c-.135-.303-.406-.675-.54-.709-.136.845-.17 2.737 0 3.243.134.406.337.609.438.777.034.068.068.102.102.136-.54 0-.912.371-.912.371s.54.372.912.17c0 0-.71.911-.71 1.79 0 .71.135 1.013.17 1.08.033-.37.134-.54.37-.709.17.136.677.372 1.25.372.305 0 .508-.068.643-.135.202-.068.371-.135.777-.034.405.101.71.27.844.338.034 0 .034.034.034.034-.034-.034-.034-.102-.067-.17-.102-.303-.237-.742-.845-.742 0 0 .338-.203.169-.372-.372-.372-.946.067-1.081.169.169-.372 0-.676-.17-.71-.54-.169-.709.17-.709.372.17-.068.372-.034.372.169 0 .54-.912.54-1.081.372-.135-.136-.169-1.082.372-1.453.54-.372 1.79-.17 2.533.54.71.71.912 1.081 1.081 1.79.136.575-.304 1.454-.54 1.791h-.912c-.54-.169-.507-.608-.372-.912.102-.202.372-.101.574-.034a.37.37 0 00.17.034c0-.71-.778-.844-1.082-.54-.236.236-.169.642-.101.98-.101-.237-.338-.541-.642-.609-.44-.135-.676-.169-.71-.169 0 .237.034.744.17.913.135.135.405.304.54.371-.236-.135-.777-.338-1.081-.169-.068.034-.169.068-.236.135-.237.135-.507.237-.642.338.1.068.337.17.54.27.135.068.237.102.372.17.304.135.844-.068 1.08-.17-.134.068-.405.203-.54.372-.135.135-.169.676-.169.912.068 0 .304-.034.71-.169.304-.101.507-.371.642-.608-.102.338-.135.777.101.98.304.304 1.081.169 1.081-.54-.034 0-.101.033-.169.033-.203.068-.473.17-.574-.034-.135-.304-.169-.709.371-.912h.913c.236.372.675 1.216.54 1.79-.169.71-.371 1.082-1.08 1.791-.71.71-1.994.913-2.535.54-.54-.37-.473-1.317-.371-1.452.169-.169 1.08-.169 1.08.372 0 .236-.168.236-.37.169 0 .169.168.54.709.371.169-.067.371-.371.169-.71.135.136.709.541 1.08.17.17-.17-.168-.372-.168-.372.608 0 .743-.439.844-.743.034-.068.034-.101.068-.169 0 0-.034 0-.034.034-.135.067-.473.236-.845.338-.405.101-.574.034-.776-.034a1.516 1.516 0 00-.642-.135c-.575 0-1.082.236-1.25.371-.237-.168-.338-.337-.372-.71-.068.068-.169.373-.169 1.082 0 .912.71 1.79.71 1.79-.372-.168-.913.17-.913.17s.372.371.912.371c0 .034-.067.068-.1.135-.136.135-.305.372-.44.777-.169.507-.135 2.399 0 3.243.135-.067.405-.439.54-.709.136-.304.068-.608 0-.71.034 0 .068.034.102.034.203.102.54.237.98-.033.371-.237.168-1.082-.372-1.082v.102c.034.135.034.304-.203.439-.371.169-.71-.372-.54-1.25.135-.71 1.385-1.081 1.993-1.081 0 .372.068.54.372.54.405 0 .405-.304.405-.641 0-.237 0-.473.135-.642 0 .135.304.507.71.371.304-.101.27-.405.236-.743-.034-.304-.034-.608.135-.878.068.067.473.135.71-.17.27-.37.067-.81-.17-1.283-.202-.44-.438-.912-.37-1.419h1.25c.303 0 .54.71.168 1.081.068 0 .101-.034.169-.034.203-.033.405-.067.54-.337.237-.473-.168-.744-.303-.879-.034 0-.034-.034-.034-.034.034 0 .067 0 .101.034.135.068.372.135.608.135.27-.135.54-.27.676-.371z" fill="#00461C"/><path d="M68.49 47.705v-4.017h3.178v4.017h-.85v-3.308H69.34v3.308h-.849zm6.913-1.542c0 .51-.135.904-.405 1.182-.266.277-.63.416-1.09.416-.286 0-.54-.062-.766-.186a1.322 1.322 0 01-.523-.54c-.127-.24-.191-.53-.191-.872 0-.51.133-.902.4-1.175.266-.274.631-.411 1.096-.411.289 0 .544.062.765.186.221.123.396.303.523.54.128.232.191.52.191.86zm-2.12 0c0 .304.049.535.146.692.101.154.264.231.49.231.22 0 .38-.077.478-.23.1-.158.151-.389.151-.693 0-.303-.05-.53-.151-.68-.098-.154-.26-.23-.484-.23-.221 0-.383.076-.484.23-.097.15-.146.377-.146.68zm5.535-.725a.607.607 0 01-.157.422c-.101.116-.253.19-.456.225v.022a.88.88 0 01.512.22c.131.12.197.273.197.46a.824.824 0 01-.14.473.882.882 0 01-.434.327c-.199.078-.46.118-.782.118h-1.462v-3.072h1.462c.24 0 .454.026.642.079a.906.906 0 01.45.247c.112.117.168.276.168.479zm-.849.067c0-.187-.148-.281-.444-.281h-.59v.608h.494c.176 0 .31-.025.4-.074.093-.052.14-.137.14-.253zm.079 1.238c0-.12-.047-.206-.14-.259-.095-.056-.235-.084-.423-.084h-.55v.725h.567a.793.793 0 00.388-.084c.105-.06.158-.16.158-.298zm1.585.962v-3.072h.838v1.187h.405c.47 0 .816.075 1.041.225.225.15.337.377.337.681a.894.894 0 01-.315.714c-.21.177-.554.265-1.034.265h-1.272zm3.066 0v-3.072h.838v3.072h-.838zm-1.84-.58c.166 0 .299-.03.4-.09.105-.06.157-.159.157-.298 0-.225-.189-.337-.568-.337h-.377v.725h.388zm8.126-2.492v3.072h-4.573v-3.072h.838v2.442h1.03v-2.442h.838v2.442h1.029v-2.442h.838zm2.142-.056c.423 0 .759.122 1.006.366.248.24.372.583.372 1.03v.404h-1.98c.007.236.077.422.208.557.135.135.32.203.557.203.198 0 .378-.02.54-.057.16-.04.328-.103.5-.185v.647c-.15.075-.31.13-.478.163a2.753 2.753 0 01-.602.056c-.307 0-.579-.056-.815-.169a1.291 1.291 0 01-.557-.523c-.135-.232-.203-.525-.203-.878 0-.36.06-.658.18-.894.124-.24.295-.42.512-.54.218-.12.47-.18.76-.18zm.005.596a.56.56 0 00-.405.158c-.105.105-.167.268-.185.49h1.175a.753.753 0 00-.146-.462c-.094-.124-.24-.186-.439-.186zm2.89-.54v1.182h1.17v-1.182h.838v3.072h-.838v-1.266h-1.17v1.266h-.838v-3.072h.838zm3.696 1.215c0 .064-.003.143-.01.237-.005.093-.01.19-.018.287a4.326 4.326 0 01-.034.416l1.418-2.155h1.007v3.072h-.81v-1.227c0-.1.004-.211.011-.331l.023-.344c.01-.108.018-.19.022-.247l-1.412 2.149h-1.007v-3.072h.81v1.215zm4.504-1.271c.424 0 .759.122 1.007.366.247.24.371.583.371 1.03v.404h-1.98c.008.236.077.422.208.557.135.135.321.203.557.203.199 0 .379-.02.54-.057a2.7 2.7 0 00.501-.185v.647c-.15.075-.31.13-.478.163a2.756 2.756 0 01-.602.056c-.308 0-.579-.056-.816-.169a1.293 1.293 0 01-.557-.523c-.135-.232-.202-.525-.202-.878 0-.36.06-.658.18-.894.124-.24.294-.42.512-.54.217-.12.47-.18.759-.18zm.006.596a.561.561 0 00-.405.158c-.105.105-.167.268-.186.49h1.176a.753.753 0 00-.147-.462c-.093-.124-.24-.186-.438-.186zm5.746-.557c.533.045.939.209 1.221.49.281.277.421.632.421 1.063 0 .431-.136.788-.41 1.069-.274.281-.684.444-1.232.49v1.327h-.776v-1.328c-.529-.048-.938-.213-1.226-.495-.285-.281-.428-.635-.428-1.063 0-.439.133-.797.4-1.075.27-.28.688-.44 1.254-.478V43.43h.776v1.187zm-.776.63a.885.885 0 00-.793.923c0 .251.069.461.208.63.139.165.334.263.585.293v-1.846zm.776 1.846c.251-.03.444-.128.579-.293a.977.977 0 00.203-.63.919.919 0 00-.208-.613.844.844 0 00-.574-.298v1.834zm3.147-1.244c0 .064-.004.143-.011.237a9.94 9.94 0 01-.017.287 5 5 0 01-.017.258l-.017.158 1.417-2.155h1.007v3.072h-.81v-1.227c0-.1.004-.211.011-.331l.023-.344c.011-.108.019-.19.022-.247l-1.411 2.149h-1.007v-3.072h.81v1.215zm4.076-1.215v1.182h1.17v-1.182h.838v3.072h-.838v-1.266h-1.17v1.266h-.838v-3.072h.838zm4.146-.062c.413 0 .728.09.945.27.221.177.332.449.332.816v2.048h-.585l-.163-.416h-.023c-.131.165-.27.285-.416.36-.146.075-.347.112-.602.112a.996.996 0 01-.68-.236c-.18-.161-.27-.407-.27-.737 0-.326.114-.566.343-.72.229-.158.572-.244 1.029-.259l.535-.017v-.135c0-.161-.044-.28-.13-.354a.5.5 0 00-.349-.113c-.15 0-.296.023-.438.068a3.287 3.287 0 00-.428.157l-.275-.568a2.41 2.41 0 01.545-.203c.203-.048.413-.073.63-.073zm.118 1.722c-.27.007-.457.056-.562.146a.445.445 0 00-.158.355c0 .127.038.219.113.275a.497.497 0 00.292.079c.18 0 .332-.053.456-.158.124-.108.186-.26.186-.455v-.253l-.327.01zm2.855-1.66v1.182h1.17v-1.182h.838v3.072h-.838v-1.266h-1.17v1.266h-.838v-3.072h.838zm4.135 3.128c-.458 0-.812-.126-1.063-.377-.248-.255-.372-.654-.372-1.198 0-.375.064-.68.192-.917.127-.236.303-.41.528-.523a1.76 1.76 0 01.788-.169 2.111 2.111 0 01.956.208l-.248.647a4.043 4.043 0 00-.371-.13 1.164 1.164 0 00-.337-.05c-.435 0-.653.31-.653.928 0 .308.057.535.169.681.116.146.278.22.484.22.176 0 .332-.023.467-.068.135-.049.266-.114.393-.197v.715c-.127.082-.262.14-.405.174a2.06 2.06 0 01-.528.056zm4.43-1.598c0 .51-.135.904-.405 1.182-.266.277-.63.416-1.091.416-.285 0-.54-.062-.765-.186a1.32 1.32 0 01-.523-.54c-.128-.24-.191-.53-.191-.872 0-.51.133-.902.399-1.175.266-.274.632-.411 1.097-.411.288 0 .543.062.765.186.221.123.395.303.523.54.127.232.191.52.191.86zm-2.12 0c0 .304.048.535.146.692.101.154.264.231.489.231.221 0 .381-.077.478-.23.101-.158.152-.389.152-.693 0-.303-.051-.53-.152-.68-.097-.154-.259-.23-.484-.23-.221 0-.382.076-.483.23-.098.15-.146.377-.146.68zm5.535-.725a.611.611 0 01-.157.422c-.102.116-.254.19-.456.225v.022a.88.88 0 01.512.22c.131.12.197.273.197.46a.823.823 0 01-.141.473.88.88 0 01-.433.327c-.199.078-.459.118-.782.118h-1.462v-3.072h1.462c.24 0 .454.026.641.079a.899.899 0 01.45.247c.113.117.169.276.169.479zm-.849.067c0-.187-.148-.281-.445-.281h-.59v.608h.495c.176 0 .309-.025.399-.074.094-.052.141-.137.141-.253zm.078 1.238c0-.12-.046-.206-.14-.259-.094-.056-.235-.084-.422-.084h-.551v.725h.568a.793.793 0 00.388-.084c.105-.06.157-.16.157-.298zm4.376-.58c0 .51-.135.904-.405 1.182-.266.277-.63.416-1.091.416-.285 0-.54-.062-.765-.186a1.32 1.32 0 01-.523-.54c-.128-.24-.192-.53-.192-.872 0-.51.134-.902.4-1.175.266-.274.632-.411 1.097-.411.288 0 .543.062.765.186.221.123.395.303.523.54.127.232.191.52.191.86zm-2.121 0c0 .304.049.535.147.692.101.154.264.231.489.231.221 0 .381-.077.478-.23.101-.158.152-.389.152-.693 0-.303-.051-.53-.152-.68-.097-.154-.259-.23-.484-.23-.221 0-.382.076-.483.23-.098.15-.147.377-.147.68zm5.755-2.852a1.222 1.222 0 01-.163.518.89.89 0 01-.422.343c-.191.083-.448.124-.77.124-.33 0-.589-.04-.777-.118a.795.795 0 01-.393-.344 1.292 1.292 0 01-.141-.523h.748c.019.206.071.343.158.41.086.068.227.102.422.102a.667.667 0 00.393-.107c.105-.075.167-.21.186-.405h.759zm-2.132 2.537c0 .064-.003.143-.011.237-.004.093-.009.19-.017.287a3.453 3.453 0 01-.017.258l-.016.158 1.417-2.155h1.007v3.072h-.81v-1.227c0-.1.004-.211.011-.331l.023-.344c.011-.108.018-.19.022-.247l-1.412 2.149h-1.006v-3.072h.809v1.215zm6.809-1.215v.63h-1.282v2.442h-.838v-3.072h2.12zm2.276-.056c.345 0 .624.135.838.405.214.266.32.66.32 1.181 0 .522-.11.92-.331 1.193-.222.27-.505.405-.85.405-.221 0-.397-.04-.528-.118a1.28 1.28 0 01-.321-.276h-.045c.03.158.045.308.045.45v1.238h-.838v-4.422h.68l.119.4h.039c.082-.124.193-.231.332-.321s.318-.135.54-.135zm-.27.67c-.218 0-.371.067-.461.202-.087.135-.134.341-.141.619v.09c0 .296.043.525.129.686.09.158.252.236.484.236a.452.452 0 00.422-.236c.094-.161.14-.392.14-.692 0-.604-.191-.906-.573-.906zm3.379-.676c.413 0 .728.09.945.27.221.177.332.449.332.816v2.048h-.585l-.163-.416h-.023c-.131.165-.27.285-.416.36-.146.075-.347.112-.602.112a.996.996 0 01-.68-.236c-.18-.161-.27-.407-.27-.737 0-.326.114-.566.343-.72.229-.158.572-.244 1.029-.259l.534-.017v-.135c0-.161-.043-.28-.129-.354a.5.5 0 00-.349-.113c-.15 0-.296.023-.438.068a3.287 3.287 0 00-.428.157l-.275-.568a2.41 2.41 0 01.545-.203c.203-.048.413-.073.63-.073zm.118 1.722c-.27.007-.457.056-.562.146a.445.445 0 00-.158.355c0 .127.038.219.113.275a.497.497 0 00.292.079c.18 0 .332-.053.456-.158.124-.108.185-.26.185-.455v-.253l-.326.01zm5.887-1.66v3.072h-.782v-1.508c0-.15.002-.296.005-.439.008-.142.017-.273.028-.393h-.016l-.85 2.34h-.63l-.86-2.346h-.023c.015.124.025.257.028.4.008.138.012.292.012.46v1.486h-.782v-3.072h1.187l.765 2.082.776-2.082h1.142zm3.665 1.53c0 .51-.135.904-.405 1.182-.266.277-.63.416-1.091.416-.285 0-.54-.062-.765-.186a1.326 1.326 0 01-.523-.54c-.127-.24-.191-.53-.191-.872 0-.51.133-.902.399-1.175.267-.274.632-.411 1.097-.411.289 0 .544.062.765.186.221.123.396.303.523.54.128.232.191.52.191.86zm-2.12 0c0 .304.049.535.146.692.101.154.265.231.49.231.221 0 .38-.077.478-.23.101-.158.151-.389.151-.693 0-.303-.05-.53-.151-.68-.098-.154-.259-.23-.484-.23-.221 0-.383.076-.484.23-.097.15-.146.377-.146.68zm5.3-.9h-1.006v2.442h-.838v-2.442h-1.007v-.63h2.851v.63zm1.405-.63v1.182h1.17v-1.182h.838v3.072h-.838v-1.266h-1.17v1.266h-.838v-3.072h.838zm5.676 1.53c0 .51-.135.904-.405 1.182-.266.277-.63.416-1.091.416-.285 0-.54-.062-.765-.186a1.32 1.32 0 01-.523-.54c-.128-.24-.191-.53-.191-.872 0-.51.133-.902.399-1.175.266-.274.632-.411 1.097-.411.288 0 .543.062.765.186.221.123.395.303.523.54.127.232.191.52.191.86zm-2.12 0c0 .304.048.535.146.692.101.154.264.231.489.231.221 0 .381-.077.478-.23.101-.158.152-.389.152-.693 0-.303-.051-.53-.152-.68-.097-.154-.259-.23-.484-.23-.221 0-.382.076-.483.23-.098.15-.146.377-.146.68zm4.061 1.598c-.457 0-.811-.126-1.063-.377-.247-.255-.371-.654-.371-1.198 0-.375.064-.68.191-.917a1.21 1.21 0 01.529-.523 1.76 1.76 0 01.787-.169 2.125 2.125 0 01.957.208l-.248.647a4.043 4.043 0 00-.371-.13 1.17 1.17 0 00-.338-.05c-.435 0-.652.31-.652.928 0 .308.056.535.169.681.116.146.277.22.483.22.177 0 .332-.023.467-.068a1.91 1.91 0 00.394-.197v.715c-.127.082-.262.14-.405.174a2.07 2.07 0 01-.529.056zm4.183-2.498h-1.007v2.442h-.838v-2.442h-1.006v-.63h2.851v.63zm1.377.585c0 .064-.004.143-.011.237a9.94 9.94 0 01-.017.287 5 5 0 01-.017.258l-.017.158 1.417-2.155h1.007v3.072h-.81v-1.227c0-.1.004-.211.011-.331l.023-.344c.011-.108.019-.19.022-.247l-1.411 2.149h-1.007v-3.072h.81v1.215zm5.526-1.215v1.182h1.17v-1.182h.838v3.072h-.838v-1.266h-1.17v1.266h-.838v-3.072h.838zm4.146-.062c.413 0 .728.09.945.27.221.177.332.449.332.816v2.048h-.585l-.163-.416h-.023c-.131.165-.27.285-.416.36-.146.075-.347.112-.602.112a.996.996 0 01-.68-.236c-.18-.161-.27-.407-.27-.737 0-.326.114-.566.343-.72.229-.158.572-.244 1.029-.259l.535-.017v-.135c0-.161-.044-.28-.13-.354a.499.499 0 00-.348-.113c-.15 0-.297.023-.439.068a3.287 3.287 0 00-.428.157l-.275-.568c.165-.086.347-.154.545-.203.203-.048.413-.073.63-.073zm.118 1.722c-.27.007-.457.056-.562.146a.445.445 0 00-.158.355c0 .127.038.219.113.275a.497.497 0 00.292.079c.18 0 .332-.053.456-.158.124-.108.186-.26.186-.455v-.253l-.327.01zm3.266 1.468c-.458 0-.812-.126-1.063-.377-.248-.255-.372-.654-.372-1.198 0-.375.064-.68.192-.917.127-.236.303-.41.528-.523.229-.113.491-.169.788-.169a2.111 2.111 0 01.956.208l-.248.647a4.043 4.043 0 00-.371-.13 1.164 1.164 0 00-.337-.05c-.435 0-.653.31-.653.928 0 .308.056.535.169.681.116.146.277.22.484.22.176 0 .332-.023.467-.068.135-.049.266-.114.393-.197v.715c-.127.082-.262.14-.405.174a2.06 2.06 0 01-.528.056zm2.906-3.184c.423 0 .759.122 1.006.366.248.24.372.583.372 1.03v.404h-1.98c.007.236.077.422.208.557.135.135.321.203.557.203.199 0 .379-.02.54-.057.161-.04.328-.103.5-.185v.647c-.15.075-.309.13-.478.163a2.75 2.75 0 01-.602.056c-.307 0-.579-.056-.815-.169a1.293 1.293 0 01-.557-.523c-.135-.232-.202-.525-.202-.878 0-.36.06-.658.179-.894.124-.24.295-.42.512-.54.218-.12.471-.18.76-.18zm.005.596a.561.561 0 00-.405.158c-.105.105-.167.268-.185.49h1.175a.746.746 0 00-.146-.462c-.094-.124-.24-.186-.439-.186zm4.803 2.532h-.838v-2.442h-.771c-.049.6-.114 1.084-.197 1.452-.078.363-.189.63-.332.799a.717.717 0 01-.573.247c-.195 0-.355-.03-.478-.09v-.67a.668.668 0 00.27.057c.067 0 .129-.034.185-.101.056-.068.109-.19.158-.366a5.02 5.02 0 00.14-.737c.042-.319.079-.726.113-1.22h2.323v3.07zm2.14-3.128c.424 0 .759.122 1.007.366.247.24.371.583.371 1.03v.404h-1.98c.008.236.077.422.208.557.135.135.321.203.557.203.199 0 .379-.02.54-.057a2.7 2.7 0 00.501-.185v.647c-.15.075-.31.13-.478.163a2.756 2.756 0 01-.602.056c-.308 0-.579-.056-.816-.169a1.293 1.293 0 01-.557-.523c-.135-.232-.202-.525-.202-.878 0-.36.06-.658.18-.894.124-.24.294-.42.512-.54.217-.12.47-.18.759-.18zm.006.596a.561.561 0 00-.405.158c-.105.105-.167.268-.186.49h1.176a.753.753 0 00-.147-.462c-.093-.124-.24-.186-.438-.186zm2.89-.54v1.182h1.17v-1.182h.838v3.072h-.838v-1.266h-1.17v1.266h-.838v-3.072h.838zm3.696 1.215c0 .064-.004.143-.011.237a9.94 9.94 0 01-.017.287 5 5 0 01-.017.258l-.017.158 1.417-2.155h1.007v3.072h-.81v-1.227c0-.1.004-.211.011-.331l.023-.344c.011-.108.019-.19.022-.247l-1.411 2.149h-1.007v-3.072h.81v1.215zm3.705 1.857h-.906l.827-1.215a1.114 1.114 0 01-.422-.31c-.12-.146-.18-.345-.18-.596 0-.308.117-.542.349-.703.233-.165.531-.248.894-.248h1.429v3.072h-.838v-1.142h-.461l-.692 1.142zm.141-2.115c0 .127.05.228.151.303a.673.673 0 00.394.107h.467v-.776h-.574c-.15 0-.26.037-.332.113a.346.346 0 00-.106.253zM71.735 40.367h-.973l-.933-1.519-.934 1.52h-.911l1.333-2.071-1.249-1.947h.94l.866 1.446.849-1.446h.917l-1.26 1.992 1.355 2.025zm1.98-3.133c.413 0 .728.09.945.27.221.176.332.448.332.815v2.048h-.585l-.163-.416h-.022c-.132.165-.27.285-.417.36-.146.075-.347.112-.602.112a.996.996 0 01-.68-.236c-.18-.161-.27-.407-.27-.737 0-.326.114-.566.343-.72.229-.157.572-.244 1.03-.259l.534-.017v-.135c0-.161-.043-.28-.13-.354a.5.5 0 00-.349-.113c-.15 0-.296.023-.438.068a3.295 3.295 0 00-.428.157l-.275-.568a2.42 2.42 0 01.545-.202 2.68 2.68 0 01.63-.073zm.118 1.721c-.27.008-.457.056-.562.146a.444.444 0 00-.158.355c0 .127.038.22.113.275a.5.5 0 00.292.08.68.68 0 00.456-.158.577.577 0 00.186-.456v-.253l-.327.011zm5.049 1.412h-.839v-2.441h-.77a10.91 10.91 0 01-.197 1.45c-.079.365-.19.631-.332.8a.72.72 0 01-.573.247 1.1 1.1 0 01-.479-.09v-.67a.669.669 0 00.27.057c.068 0 .13-.034.186-.101.056-.068.109-.19.157-.366.053-.176.1-.422.141-.737.041-.319.079-.725.113-1.22h2.323v3.071zm1.156 0v-3.072h.838v1.188h.405c.468 0 .815.075 1.04.225.225.15.338.376.338.68a.895.895 0 01-.315.715c-.21.176-.555.264-1.035.264h-1.271zm3.065 0v-3.072h.838v3.072h-.838zm-1.84-.58c.166 0 .299-.03.4-.09.105-.06.158-.159.158-.298 0-.225-.19-.337-.568-.337h-.377v.726h.388zm6.304 1.683v-1.103h-.377l-1.254-1.558v1.558h-.838v-3.072h.838v1.491l1.175-1.49h.923l-1.215 1.473.815.985h.687v1.716h-.754zm4.095-3.545h-1.007v2.442h-.838v-2.441H88.81v-.63h2.852v.63zm.848 2.442v-3.072h.838v1.188h.405c.469 0 .815.075 1.04.225.225.15.338.376.338.68a.894.894 0 01-.315.715c-.21.176-.555.264-1.035.264H92.51zm3.065 0v-3.072h.838v3.072h-.838zm-1.84-.58c.166 0 .299-.03.4-.09.105-.06.158-.159.158-.298 0-.225-.19-.337-.568-.337h-.377v.726h.388zm6.686 1.683v-1.103h-.843v-1.266h-1.17v1.266h-.838v-3.072h.838v1.182h1.17v-1.181h.838v2.458h.759v1.716h-.754zm5.811 0v-1.103h-.377L104.6 38.81v1.558h-.838v-3.072h.838v1.491l1.176-1.49h.922l-1.215 1.473.816.985h.686v1.716h-.753zm2.812-4.236c.413 0 .728.09.945.27.221.176.332.448.332.815v2.048h-.585l-.163-.416h-.023c-.131.165-.27.285-.416.36-.146.075-.347.112-.602.112a.996.996 0 01-.68-.236c-.18-.161-.27-.407-.27-.737 0-.326.114-.566.343-.72.229-.157.572-.244 1.029-.259l.534-.017v-.135c0-.161-.043-.28-.129-.354a.5.5 0 00-.349-.113c-.15 0-.296.023-.438.068a3.301 3.301 0 00-.428.157l-.275-.568a2.41 2.41 0 01.545-.202c.203-.05.413-.073.63-.073zm.118 1.721c-.27.008-.457.056-.562.146a.445.445 0 00-.158.355c0 .127.038.22.113.275a.498.498 0 00.292.08c.18 0 .332-.053.456-.158.124-.11.185-.261.185-.456v-.253l-.326.011zm4.008-1.715c.345 0 .624.134.838.404.214.267.321.66.321 1.182 0 .52-.111.919-.332 1.192-.222.27-.505.405-.85.405-.221 0-.397-.04-.528-.118a1.298 1.298 0 01-.321-.276h-.045c.03.158.045.308.045.45v1.238h-.838v-4.422h.681l.118.4h.039c.083-.124.193-.23.332-.32s.319-.136.54-.136zm-.27.669c-.218 0-.371.067-.461.202-.087.135-.133.342-.141.619v.09c0 .296.043.525.129.686.09.158.252.237.484.237a.452.452 0 00.422-.237c.094-.16.141-.392.141-.692 0-.603-.192-.905-.574-.905zm6.655-.614l-1.13 1.474 1.237 1.598h-.894l-1.17-1.558v1.558h-.782V38.81l-1.17 1.558h-.894l1.237-1.598-1.13-1.474h.866l1.091 1.491v-1.49h.782v1.49l1.091-1.49h.866zm.828 3.072v-3.072h.838v1.188h.405c.468 0 .815.075 1.04.225.225.15.338.376.338.68a.894.894 0 01-.315.715c-.21.176-.555.264-1.035.264h-1.271zm3.065 0v-3.072h.838v3.072h-.838zm-1.839-.58c.165 0 .298-.03.399-.09.105-.06.158-.159.158-.298 0-.225-.19-.337-.569-.337h-.376v.726h.388zm6.584.58h-.838v-2.441h-.771c-.048.6-.114 1.083-.197 1.45-.078.365-.189.631-.331.8a.72.72 0 01-.574.247c-.195 0-.354-.03-.478-.09v-.67a.667.667 0 00.27.057c.067 0 .129-.034.185-.101.057-.068.109-.19.158-.366a5.14 5.14 0 00.141-.737c.041-.319.078-.725.112-1.22h2.323v3.071zm1.156 0v-3.072h.838v1.188h.405c.469 0 .816.075 1.041.225.225.15.337.376.337.68a.894.894 0 01-.315.715c-.21.176-.555.264-1.035.264h-1.271zm3.066 0v-3.072h.838v3.072h-.838zm-1.84-.58c.165 0 .298-.03.4-.09.105-.06.157-.159.157-.298 0-.225-.189-.337-.568-.337h-.377v.726h.388zm6.303 1.683v-1.103h-.377l-1.254-1.558v1.558h-.838v-3.072h.838v1.491l1.176-1.49h.922l-1.215 1.473.816.985h.686v1.716h-.754zm4.533-1.047c-.458 0-.812-.125-1.063-.377-.248-.255-.371-.654-.371-1.198 0-.375.063-.68.191-.917.127-.236.304-.41.529-.523.228-.113.491-.169.787-.169a2.125 2.125 0 01.956.208l-.247.647a4.043 4.043 0 00-.371-.13 1.17 1.17 0 00-.338-.05c-.435 0-.652.31-.652.928 0 .308.056.535.168.681.117.146.278.22.484.22.176 0 .332-.023.467-.068a1.95 1.95 0 00.394-.197v.715c-.128.082-.263.14-.405.174a2.074 2.074 0 01-.529.056zm3.182-3.189c.412 0 .727.09.945.27.221.176.331.448.331.815v2.048h-.585l-.163-.416h-.022c-.131.165-.27.285-.416.36-.147.075-.347.112-.602.112a.997.997 0 01-.681-.236c-.18-.161-.27-.407-.27-.737 0-.326.115-.566.343-.72.229-.157.572-.244 1.03-.259l.534-.017v-.135c0-.161-.043-.28-.129-.354a.502.502 0 00-.349-.113c-.15 0-.296.023-.439.068a3.289 3.289 0 00-.427.157l-.276-.568a2.39 2.39 0 01.546-.202c.202-.05.412-.073.63-.073zm.118 1.721c-.27.008-.458.056-.563.146a.444.444 0 00-.157.355c0 .127.037.22.112.275a.501.501 0 00.293.08c.18 0 .332-.053.455-.158a.577.577 0 00.186-.456v-.253l-.326.011zm1.859-1.66h.917l.579 1.727c.03.083.052.17.067.26.015.086.027.177.034.275h.017c.011-.098.026-.19.045-.276a4.73 4.73 0 01.073-.258l.568-1.728h.9l-1.299 3.466c-.116.319-.287.557-.512.714a1.272 1.272 0 01-.77.242 1.6 1.6 0 01-.248-.017 1.866 1.866 0 01-.18-.028v-.664c.041.008.09.015.146.023.06.007.122.011.186.011a.54.54 0 00.416-.163.948.948 0 00.231-.383l.05-.152-1.22-3.049zm5.182-.061c.412 0 .727.09.945.27.221.176.332.448.332.815v2.048h-.585l-.163-.416h-.023c-.131.165-.27.285-.416.36-.146.075-.347.112-.602.112a.994.994 0 01-.68-.236c-.18-.161-.27-.407-.27-.737 0-.326.114-.566.343-.72.228-.157.572-.244 1.029-.259l.534-.017v-.135c0-.161-.043-.28-.129-.354a.5.5 0 00-.349-.113c-.15 0-.296.023-.438.068a3.301 3.301 0 00-.428.157l-.276-.568a2.39 2.39 0 01.546-.202c.203-.05.413-.073.63-.073zm.118 1.721c-.27.008-.457.056-.562.146a.445.445 0 00-.158.355c0 .127.038.22.113.275a.498.498 0 00.292.08c.18 0 .332-.053.456-.158a.577.577 0 00.185-.456v-.253l-.326.011zm4.84-1.03h-1.007v2.442h-.838v-2.441h-1.006v-.63h2.851v.63zm3.39 0h-1.006v2.442h-.838v-2.441h-1.007v-.63h2.851v.63zm.848 2.442v-3.072h.838v1.188h.405c.469 0 .816.075 1.041.225.225.15.337.376.337.68a.894.894 0 01-.315.715c-.21.176-.555.264-1.035.264h-1.271zm3.066 0v-3.072h.838v3.072h-.838zm-1.84-.58a.78.78 0 00.4-.09c.105-.06.157-.159.157-.298 0-.225-.189-.337-.568-.337h-.377v.726h.388zm6.585.58h-.838v-2.441h-.771c-.049.6-.114 1.083-.197 1.45-.079.365-.189.631-.332.8a.717.717 0 01-.573.247c-.195 0-.355-.03-.478-.09v-.67a.667.667 0 00.27.057c.067 0 .129-.034.185-.101.056-.068.109-.19.158-.366a5.02 5.02 0 00.14-.737c.041-.319.079-.725.113-1.22h2.323v3.071zm1.156 0v-3.072h.838v1.188h.405c.469 0 .815.075 1.04.225.225.15.338.376.338.68a.894.894 0 01-.315.715c-.21.176-.555.264-1.035.264h-1.271zm3.065 0v-3.072h.838v3.072h-.838zm-1.839-.58c.165 0 .298-.03.399-.09.105-.06.158-.159.158-.298 0-.225-.19-.337-.568-.337h-.377v.726h.388zm6.027-2.492v.681h-1.406v.596h.911v.647h-.911v1.148h-.838V39.22h-.377v-.647h.377v-1.277h2.244zm.851 3.072v-3.072h.838v1.188h.405c.469 0 .816.075 1.041.225.225.15.337.376.337.68a.894.894 0 01-.315.715c-.21.176-.555.264-1.035.264h-1.271zm3.065 0v-3.072h.838v3.072h-.838zm-1.839-.58c.165 0 .298-.03.399-.09.105-.06.158-.159.158-.298 0-.225-.189-.337-.568-.337h-.377v.726h.388zm4.672-2.492v1.182h1.17v-1.181h.838v3.071h-.838v-1.266h-1.17v1.266h-.838v-3.072h.838zm6.159-.061c.412 0 .727.09.944.27.222.176.332.448.332.815v2.048h-.585l-.163-.416h-.022c-.131.165-.27.285-.416.36-.147.075-.347.112-.602.112a.997.997 0 01-.681-.236c-.18-.161-.27-.407-.27-.737 0-.326.115-.566.343-.72.229-.157.572-.244 1.03-.259l.534-.017v-.135c0-.161-.043-.28-.129-.354a.502.502 0 00-.349-.113c-.15 0-.296.023-.439.068a3.289 3.289 0 00-.427.157l-.276-.568a2.39 2.39 0 01.546-.202c.202-.05.412-.073.63-.073zm.118 1.721c-.27.008-.458.056-.563.146a.444.444 0 00-.157.355c0 .127.037.22.112.275a.501.501 0 00.293.08c.18 0 .332-.053.455-.158a.577.577 0 00.186-.456v-.253l-.326.011zm4.007-1.715c.345 0 .625.134.838.404.214.267.321.66.321 1.182 0 .52-.111.919-.332 1.192-.221.27-.504.405-.849.405-.221 0-.398-.04-.529-.118a1.293 1.293 0 01-.32-.276h-.045c.03.158.045.308.045.45v1.238h-.839v-4.422h.681l.118.4h.04a1.13 1.13 0 01.331-.32.978.978 0 01.54-.136zm-.27.669c-.217 0-.371.067-.461.202-.086.135-.133.342-.14.619v.09c0 .296.043.525.129.686.09.158.251.237.484.237a.45.45 0 00.421-.237c.094-.16.141-.392.141-.692 0-.603-.191-.905-.574-.905zm4.888.016h-1.006v2.442h-.838v-2.441h-1.007v-.63h2.851v.63zm3.391 0h-1.007v2.442h-.838v-2.441h-1.007v-.63h2.852v.63zm.847 2.442v-3.072h.839v1.188h.405c.468 0 .815.075 1.04.225.225.15.338.376.338.68a.894.894 0 01-.315.715c-.21.176-.555.264-1.035.264h-1.272zm3.066 0v-3.072h.838v3.072h-.838zm-1.839-.58c.165 0 .298-.03.399-.09.105-.06.157-.159.157-.298 0-.225-.189-.337-.568-.337h-.376v.726h.388zm5.543-2.547c.345 0 .625.134.838.404.214.267.321.66.321 1.182 0 .52-.111.919-.332 1.192-.221.27-.504.405-.849.405-.221 0-.398-.04-.529-.118a1.293 1.293 0 01-.32-.276h-.045c.03.158.045.308.045.45v1.238h-.839v-4.422h.681l.118.4h.04a1.13 1.13 0 01.331-.32.978.978 0 01.54-.136zm-.27.669c-.217 0-.371.067-.461.202-.086.135-.133.342-.14.619v.09c0 .296.043.525.129.686.09.158.251.237.484.237a.45.45 0 00.421-.237c.094-.16.141-.392.141-.692 0-.603-.191-.905-.574-.905zm1.907-.614h.917l.58 1.727c.03.083.052.17.067.26.015.086.026.177.034.275h.017c.011-.098.026-.19.045-.276.022-.09.047-.176.073-.258l.568-1.728h.9l-1.299 3.466c-.117.319-.287.557-.512.714a1.275 1.275 0 01-.771.242c-.094 0-.176-.005-.247-.017a1.772 1.772 0 01-.18-.028v-.664c.041.008.09.015.146.023.06.007.122.011.185.011a.543.543 0 00.417-.163.935.935 0 00.23-.383l.051-.152-1.221-3.049z" fill="#916D0E"/><path d="M123.522 29.231c-.611.826-1.545 1.51-2.803 2.12-1.222.61-2.838.898-4.779.898-2.407 0-4.419-.754-5.928-2.3-1.509-1.544-2.3-3.485-2.3-5.928V19.89c0-2.407.755-4.383 2.228-5.928 1.509-1.545 3.413-2.3 5.785-2.3 2.443 0 4.311.575 5.641 1.725 1.293 1.15 1.94 2.695 1.868 4.635l-.036.072h-3.772c0-1.078-.324-1.905-.935-2.48-.61-.574-1.509-.898-2.694-.898-1.222 0-2.228.467-2.983 1.437-.754.97-1.113 2.156-1.113 3.665v4.204c0 1.51.395 2.73 1.149 3.7.755.971 1.797 1.438 3.09 1.438.97 0 1.725-.108 2.264-.287.539-.18.97-.431 1.293-.719v-3.88h-3.844v-2.767h7.904v7.725h-.035zm10.922-8.695l-1.473-.036c-.611 0-1.078.108-1.473.36-.395.25-.683.61-.898 1.041v10.06h-3.989v-14.91h3.737l.18 2.191c.359-.79.79-1.4 1.365-1.832.539-.431 1.186-.647 1.904-.647.216 0 .396 0 .575.036.18.036.36.072.503.108l-.431 3.629zm10.888 11.461a7.509 7.509 0 01-.396-1.077 5.982 5.982 0 01-.215-1.15 5.27 5.27 0 01-1.653 1.796c-.683.467-1.473.719-2.407.719-1.545 0-2.767-.395-3.593-1.222-.827-.826-1.258-1.904-1.258-3.27 0-1.473.575-2.586 1.689-3.377 1.114-.79 2.766-1.221 4.922-1.221h2.264v-1.186c0-.719-.18-1.258-.575-1.653-.359-.395-.934-.575-1.689-.575-.647 0-1.15.144-1.509.467-.359.324-.539.755-.539 1.294h-3.88l-.036-.072c-.072-1.258.467-2.335 1.653-3.27 1.149-.898 2.694-1.365 4.563-1.365 1.796 0 3.233.467 4.347 1.365 1.114.899 1.653 2.192 1.653 3.88v6.145c0 .682.036 1.365.144 1.976.108.61.287 1.222.503 1.832h-3.988v-.036zm-3.665-2.694c.682 0 1.329-.18 1.868-.54.539-.359.934-.754 1.114-1.22v-2.12h-2.264c-.862 0-1.509.215-1.94.646a2.09 2.09 0 00-.647 1.545c0 .503.18.898.503 1.222.324.323.791.467 1.366.467zm13.76-12.216l.18 1.976a4.945 4.945 0 011.796-1.653c.719-.395 1.545-.575 2.515-.575.97 0 1.761.215 2.444.647.682.43 1.185 1.042 1.545 1.904.467-.79 1.042-1.437 1.796-1.868.719-.468 1.581-.683 2.587-.683 1.473 0 2.623.503 3.485 1.545.863 1.042 1.258 2.623 1.258 4.779v8.838h-4.024v-8.874c0-1.186-.18-2.012-.539-2.48-.36-.466-.899-.718-1.653-.718-.575 0-1.078.144-1.473.395-.431.252-.755.611-1.006 1.042v10.6h-3.989v-8.84c0-1.149-.179-1.975-.538-2.478-.36-.467-.935-.719-1.653-.719-.539 0-1.006.108-1.437.323a2.63 2.63 0 00-1.007.863v10.85h-3.988v-14.91h3.701v.036zm20.05 7.329c0-2.227.611-4.024 1.868-5.461 1.258-1.437 2.947-2.12 5.138-2.12 2.192 0 3.917.719 5.174 2.12 1.258 1.401 1.869 3.234 1.869 5.461v.288c0 2.227-.611 4.06-1.869 5.461-1.257 1.401-2.946 2.12-5.138 2.12-2.191 0-3.916-.719-5.174-2.12-1.257-1.401-1.868-3.234-1.868-5.461v-.288zm3.988.288c0 1.365.252 2.443.719 3.27.467.826 1.257 1.22 2.299 1.22s1.797-.394 2.264-1.22c.467-.827.719-1.905.719-3.27v-.288c0-1.33-.252-2.407-.719-3.233-.503-.827-1.257-1.258-2.299-1.258s-1.797.431-2.264 1.258c-.467.826-.719 1.904-.719 3.233v.288zm17.353-11.247v3.665h2.516v2.839h-2.516v7.581c0 .575.108 1.006.36 1.222.251.251.575.36.97.36.215 0 .395 0 .539-.037a7.02 7.02 0 01.539-.108l.323 2.91a6.833 6.833 0 01-2.443.431c-1.401 0-2.443-.394-3.198-1.149-.754-.754-1.114-1.976-1.114-3.629v-7.581h-2.156v-2.839h2.192v-3.665h3.988zm13.763 18.54a7.51 7.51 0 01-.395-1.077 6.459 6.459 0 01-.216-1.15 5.276 5.276 0 01-1.652 1.796c-.683.467-1.474.719-2.408.719-1.545 0-2.766-.395-3.593-1.222-.826-.79-1.257-1.904-1.257-3.27 0-1.473.575-2.586 1.688-3.377 1.114-.79 2.767-1.221 4.923-1.221h2.263v-1.186c0-.719-.179-1.258-.575-1.653-.359-.395-.934-.575-1.688-.575-.647 0-1.15.144-1.509.467-.36.324-.539.755-.539 1.294h-3.845l-.036-.072c-.072-1.258.467-2.335 1.653-3.27 1.15-.898 2.695-1.365 4.563-1.365 1.797 0 3.234.467 4.348 1.365 1.114.899 1.653 2.192 1.653 3.88v6.145c0 .682.035 1.365.143 1.976.108.61.288 1.222.503 1.832h-4.024v-.036zm-3.665-2.694c.683 0 1.33-.18 1.869-.54.539-.359.934-.754 1.113-1.22v-2.12h-2.263c-.862 0-1.509.215-1.94.646a2.087 2.087 0 00-.647 1.545c0 .503.18.898.503 1.222.323.323.79.467 1.365.467z" fill="#044317"/><path d="M79.734 23.95h-7.689v8.335h-4.024V13.581s0-.392.477-.868c.476-.477.832-.477.832-.477h11.806v3.09h-9.09v5.534h7.688v3.09zm7.904-10.133h-4.024V10.8h4.024v3.018zm0 18.468h-4.024v-14.91h4.024v14.91zm6.971-14.911l.18 2.12c.502-.755 1.113-1.365 1.832-1.76.719-.432 1.545-.647 2.443-.647 1.509 0 2.695.467 3.521 1.437.827.97 1.258 2.515 1.258 4.599v9.126h-4.024v-9.126c0-1.078-.18-1.832-.575-2.264-.36-.43-.934-.682-1.689-.682-.61 0-1.114.108-1.58.323a2.83 2.83 0 00-1.115.934v10.78h-4.024v-14.84h3.773z" fill="#916C0E"/></svg>