<svg width="26" height="18" fill="none" xmlns="http://www.w3.org/2000/svg"><path d="M12.93 8.213c0 1.328-.215 2.484-.645 3.467-.43.976-1.025 1.76-1.787 2.353l2.363 1.856-1.865 1.65-3.027-2.432a6.407 6.407 0 01-1.074.088c-1.179 0-2.23-.283-3.155-.85-.924-.566-1.64-1.373-2.148-2.421C1.084 10.869.827 9.658.82 8.29v-.703c0-1.4.251-2.63.752-3.692.508-1.067 1.221-1.884 2.139-2.45.924-.574 1.98-.86 3.164-.86 1.185 0 2.236.286 3.154.86.925.566 1.638 1.383 2.139 2.45.508 1.062.762 2.289.762 3.682v.635zm-2.97-.645c0-1.49-.266-2.623-.8-3.398-.534-.775-1.295-1.162-2.285-1.162-.983 0-1.742.384-2.275 1.152-.534.762-.804 1.882-.81 3.36v.693c0 1.452.266 2.578.8 3.379.534.8 1.302 1.201 2.305 1.201.983 0 1.738-.384 2.265-1.152.527-.775.794-1.901.8-3.38v-.693zm8.224 5.079h7.168V15h-10.83v-1.719l7.03-10.127h-7.02V.781h10.663v1.68l-7.011 10.185z" fill="#000"/></svg>