<svg width="1048" height="474" fill="none" xmlns="http://www.w3.org/2000/svg"><g clip-path="url(#clip0)"><path d="M117.676 475.788s-185.46-126.87-90.728-269.891c80.302-121.21 224.266-90.355 299.735-40.035 32.176 21.398 125.252 55.773 204.242-70.337 97.633-155.791 466.207-122.383 398.264 142.4-32.935 128.112 151.281 110.096 83.481 238.139l-894.994-.276z" fill="#2973B4"/><path d="M772.985 43.831c.069-.759.621-9.25 13.533-9.732 0 0-6.352.759-7.388 3.589 0 0 4.281-3.451 7.802-2.347 3.522 1.105 5.593 7.317 5.593 9.319 0 2.001-1.933 8.559-4.143 9.18-.888.18-1.804.18-2.693 0a27.49 27.49 0 011.727 3.106c5.109 10.561-.139 20.915-4.489 19.81-2.761-.759-3.59 4.073-3.59 4.073L752.27 58.81c-.069-.137 9.805-20.845 20.715-14.978z" fill="#2C3A64"/><path d="M643.59 206.801l-.622 4.004c-.659 1.477-1.213 3-1.657 4.555h-5.247c4.281-5.176 7.526-8.559 7.526-8.559z" fill="#AFCDFB"/><path d="M763.525 355.621l5.731 2.14s24.995-34.789 28.033-65.437a47.054 47.054 0 00-.828-15.669l.69-3.865.76-4.142 3.245-18.361c2.969-16.773 6.767-38.171 9.736-53.909l-1.519-.483-16.779-5.453-3.452-11.044-12.498-3.313s-2.762 5.453-5.317 31.337c-.414 3.383-.897 7.11-1.173 11.183a223.81 223.81 0 001.173 45.35c.553 4.486 1.312 9.18 2.21 13.943.621 3.451.759 8.283.483 13.736-1.312 25.125-10.495 63.987-10.495 63.987z" fill="#2B478B"/><path d="M770.085 218.674l27.135 54.116.76-4.142 3.245-18.361c2.969-16.773 6.767-38.171 9.736-53.909l-1.519-.483-16.779-5.453-3.452-11.044-12.498-3.313s-2.762 5.453-5.317 31.337c-.621 3.452-.966 7.179-1.311 11.252z" fill="#233862"/><path d="M782.03 183.056l.621-5.453c10.495 2.761 38.598-7.869 38.598-7.869s10.219 8.974 8.838 30.579c-.622 10.492-1.865 55.22-3.107 68.473-.415 4.763-.829 8.214-1.036 9.526-.02.419.101.832.345 1.173a63.7 63.7 0 014.626 9.733c12.222 32.718-1.864 73.029-1.864 73.029l-3.66-1.518s-8.009-44.867-14.568-64.678a38.557 38.557 0 00-3.177-7.592c-2.831-4.625-5.454-12.08-7.871-21.053-4.488-16.912-8.148-38.862-10.564-55.842-.276.138-7.181-28.508-7.181-28.508z" fill="#2B478B"/><path d="M706.561 165.11l.76 5.315h.966c1.934-.138 6.56-.415 11.876-.967 7.941-.759 17.331-2.209 21.06-4.486 5.662-3.452 15.052-14.22 21.128-24.919l.415-.759c3.176-5.66 5.385-11.32 5.592-15.807a22.904 22.904 0 00-.759-7.179 18.307 18.307 0 00-3.245-6.488 3.317 3.317 0 00-.622-.759 14.42 14.42 0 00-4.143-3.521c-1.035-.414-2.209.069-3.383 1.312a20.59 20.59 0 00-3.038 4.418v.138l-.69 1.311a.833.833 0 00-.139.345l-1.45 3.175c-5.385 11.666-11.047 29.474-15.811 34.789-2.072 2.278-11.393 6.696-18.85 10.009-5.317 2.347-9.667 4.073-9.667 4.073z" fill="#FFB27D"/><path d="M761.937 117.482a32.238 32.238 0 0012.083 2.83c18.091 1.035 22.164-14.91 22.924-25.47a15.127 15.127 0 00-6.214-.76l-3.729.345c-2.209-1.173-6.145-6.833-8.424-16.22l-.759.344-13.05 6.144s1.381 4.28 2.417 8.352c1.035 4.072 1.381 6.281.897 7.109l-1.657.691a90.258 90.258 0 00-4.488 16.635z" fill="#FFB27D"/><path d="M757.449 129.423c.117.376.255.745.414 1.105 4.626 9.939 13.05 50.941 13.05 50.941-1.174 7.386 55.169-1.45 55.307-8.145 2.002-7.11-7.043-18.568-12.152-24.297a15.67 15.67 0 01-1.727-2.278 16.36 16.36 0 01-2.278-6.765c-1.036-9.525-.622-18.43-.691-23.883l-2.83-2.07a24.792 24.792 0 01-3.453-2.899c-.922-.849-1.51-2-1.657-3.245-.06-.92-.037-1.844.069-2.761.023-.439.069-.877.138-1.311a36.376 36.376 0 012.624-8.766c-4.833-2.002-13.464-.829-13.464-.829v1.243c.069 3.175 0 11.32-1.036 12.838-1.036 1.519-24.374 10.354-25.617 7.662-1.242-2.692 2.072-14.564 2.21-14.978-7.733 3.037-10.495 5.66-10.495 5.66 4.695 2.899-2.072 13.184 1.588 22.778z" fill="#F99746"/><path d="M764.699 84.695s1.381 4.28 2.417 8.352c7.595-2.14 9.942-10.216 10.633-14.496l-13.05 6.144z" fill="#ED985F"/><path d="M763.18 89.181s18.228-4.28 15.466-15.6c-2.761-11.32-2.347-19.603-14.085-17.394-11.738 2.209-12.912 7.11-12.912 11.113 0 4.004 6.698 22.71 11.531 21.881z" fill="#FFB27D"/><path d="M750.061 59.914c2.002-4.141 4.281-3.865 5.731-3.175 8.562-8.007 16.985-1.45 16.985-1.45a22.23 22.23 0 0010.219 11.045s-1.795 2.76-10.012 1.932c-2.485-.276-4.971-2.553-7.319-4.141a48.532 48.532 0 009.115 7.11c-16.503-3.038-17.469-11.459-18.16-12.701-.828 1.311-2.485 4.003-2.624 6.281-.138 2.278.898 9.18-.897 9.388 0 .069-6.007-8.076-3.038-14.289z" fill="#2C3A64"/><path d="M755.93 106.507s-4.419 7.662-5.041 9.663c0 0 5.662-.207 8.01 4.142-.069 0 .483-12.839-2.969-13.805z" fill="#F99746"/><path d="M786.104 167.595c11.116-.139 20.576-11.735 26.306-20.984a16.293 16.293 0 01-2.278-6.765c-1.036-9.525-.621-18.43-.691-23.883l-2.9-2.071a24.703 24.703 0 01-3.452-2.899c-9.183 15.462-32.107 56.809-16.985 56.602z" fill="#ED7D2B"/><path d="M807.715 365.284h29s.691-4.486-.828-7.799c-1.519-3.314-3.729-4.694-3.177-8.56-1.864 1.933-4.833 4.073-9.045 3.452-.552.828-3.314 5.315-5.04 6.557-1.726 1.243-10.288.897-10.91 6.35zm-62.142 0h29s1.104-4.624-.829-7.8c-1.933-3.175-1.036-4.348.207-6.695a11.95 11.95 0 01-4.902.897 9.734 9.734 0 01-4.281-1.518c-1.243 1.449-6.56 7.455-8.286 8.697-1.726 1.242-10.357.966-10.909 6.419z" fill="#233862"/><path d="M705.663 164.972s-5.385-1.036-6.628 0c-1.243 1.035-7.043 6.971-5.8 8.973 1.243 2.002 7.25-1.588 8.493-1.933 1.243-.345 4.695-1.725 4.695-1.725l-.76-5.315z" fill="#FFB27D"/><path d="M744.675 157.793a10.592 10.592 0 00-1.519-2.416 10.29 10.29 0 00-1.519-1.519l-2.209-2.277-.622.414c-11.393-5.66-35.007.345-58.828 16.014-28.793 18.913-47.298 44.936-41.981 58.741l-.829.621 3.246 3.175.483.483h.138c.84.752 1.768 1.401 2.762 1.933 11.255 5.936 35.076.069 59.174-15.807 29.414-19.051 48.056-45.695 41.704-59.362z" fill="#88ADD8"/><path d="M676.595 164.558c29.345-19.259 58.345-23.814 64.697-10.216 6.352 13.598-12.291 40.242-41.705 59.5-29.414 19.258-58.345 23.814-64.628 10.216-6.283-13.598 12.29-40.242 41.636-59.5z" fill="#AFCDFB"/><path d="M655.535 226.129a24.163 24.163 0 01-6.421-.829c-3.66-1.035-6.215-3.106-7.526-6.005-2.693-5.798-.208-14.426 6.904-24.228 7.112-9.802 17.538-19.327 29.829-27.472 18.85-12.425 38.114-18.43 48.954-15.255 3.66 1.035 6.214 3.106 7.526 6.005 2.624 5.798.208 14.427-6.904 24.228-7.112 9.802-17.538 19.327-29.829 27.473-15.673 10.215-31.416 16.083-42.533 16.083zm65.25-72.478c-10.633 0-26.238 5.799-41.36 15.738-12.083 7.938-22.44 17.464-29.276 26.851-6.835 9.388-8.976 17.05-6.697 22.089 1.105 2.346 3.176 4.003 6.214 4.831 1.889.522 3.841.778 5.8.76 10.633 0 26.307-5.798 41.359-15.738 12.084-7.938 22.441-17.464 29.276-26.851 6.836-9.388 8.977-17.05 6.698-22.088-1.105-2.347-3.176-4.004-6.214-4.832a21.47 21.47 0 00-5.869-.691l.069-.069z" fill="#98B9EA"/><path d="M744.261 174.359l1.312 4.901 4.971-.897 1.45-.345 8.562-1.795h.069c5.455-1.312 11.531-2.899 16.71-4.625a45.76 45.76 0 008.838-3.934l.621-.414c5.04-3.728 11.117-14.634 15.812-26.368l1.864-4.832a121.38 121.38 0 004.972-16.566 47.311 47.311 0 001.173-7.869 20.36 20.36 0 00.069-2.209c-.069-12.7-6.352-14.426-6.352-14.426l-.414-.139c-1.105-.137-2.21.553-3.384 2.002-1.173 1.45-3.038 4.763-4.695 8.283-2.486 5.66-5.04 12.977-7.526 20.225-1.312 3.934-2.624 8.007-3.936 11.596a286.21 286.21 0 01-2.209 6.213 59.672 59.672 0 01-3.66 8.559c-.69 1.242-2.693 2.899-5.385 4.832a192.12 192.12 0 01-17.262 10.768c-2.417 1.449-4.212 3.106-6.145 4.141l-5.455 2.899z" fill="#FFB27D"/><path d="M795.77 104.988c8.355-2.278 14.845 4.28 14.845 4.28-.138-12.7-6.352-14.358-6.352-14.358-2.555-1.104-5.524 3.314-8.493 10.078z" fill="#F99746"/><path d="M745.573 179.329s-4.627 7.317-6.698 8.628c-2.071 1.312-5.178 4.142-6.283 3.451-1.105-.69 4.074-7.454 4.005-8.835-.07-1.38-.208-2.416-.208-2.416s-3.245 1.933-5.04.828a28.191 28.191 0 002.555-1.449c1.104-.69 2.071-3.106 4.557-3.313 2.485-.207 6.559-2.278 6.559-2.278l.553 5.384z" fill="#FFB27D"/><path d="M536.014 65.436s-16.364 27.818-31.347 28.232c-14.984.414-37.769-12.908-37.769-12.908s-13.81-37.067-4.419-51.562c0 0 9.321-4.97 19.126 3.796a31.519 31.519 0 015.109 5.867c2.348 3.452 5.041 5.454 7.872 6.42 10.702 3.934 23.407-5.315 28.102 3.59a59.71 59.71 0 008.286 11.803 39.415 39.415 0 005.04 4.762zM301.461 472.274S261.344 118.517 484.712 93.668c0 0 173.309 41.415 130.085 378.606H301.461z" fill="#F9DDBF"/><path d="M456.127 98.845s41.704 11.182 54.547 4.625c0 0 1.933-21.122-15.605-18.154-12.014 2.002-19.816-4.97-24.442-7.8-6.491-4.004-16.158 12.494-14.5 21.329z" fill="#F99746"/><path d="M492.445 67.093c-2.693 2.416-10.84-34.099-10.84-34.099a31.519 31.519 0 015.109 5.868c2.348 3.45 5.041 5.453 7.872 6.419 0 1.104.483 19.465-2.141 21.812zm38.529-6.351c-.622.415-19.886 14.358-22.51 14.358-2.623 0 14.224-26.23 14.224-26.23a58.463 58.463 0 008.286 11.873zm-112.202 76.274s58.276 119.76 122.145 102.02c63.868-17.739 28.102 73.858 28.102 73.858s-142.307-.829-142.928-3.382c-.622-2.554-7.319-172.496-7.319-172.496z" fill="#E5C1A1"/><path d="M739.842 460.402v9.18a3.72 3.72 0 01-.622 2.002 3.654 3.654 0 01-1.657 1.312l-.621.207H590.493a3.525 3.525 0 01-3.522-3.383v-9.525a3.524 3.524 0 013.522-3.382h146.38l.621.207a3.377 3.377 0 011.657 1.311c.449.597.691 1.324.691 2.071z" fill="#AFCDFB"/><path d="M658.642 456.812h-68.564a3.317 3.317 0 00-3.176 3.383v9.594a3.31 3.31 0 003.176 3.383h78.093c-5.869-4.901-8.493-11.528-9.529-16.36zm63.455 0h-1.658v16.291h1.658v-16.291zm-5.593 0h-1.657v16.291h1.657v-16.291zm-6.767 0h-1.657v16.291h1.657v-16.291zm-10.288 0h-1.657v16.291h1.657v-16.291zm-10.909 0h-1.657v16.291h1.657v-16.291zm-16.779 0h-1.657v16.291h1.657v-16.291zm55.652 0h-1.657v16.291h1.657v-16.291zm3.522 0h-1.657v16.291h1.657v-16.291zm3.452 0h-1.657v16.291h1.657v-16.291zm.898 0v16.291h1.657v-16.221h-1.657v-.07zm2.348.277v15.806a3.386 3.386 0 001.657-1.311V458.4a3.8 3.8 0 00-1.657-1.311z" fill="#98B9EA"/><path d="M733.213 444.112v9.18a3.652 3.652 0 01-.621 2.002 3.593 3.593 0 01-1.657 1.311l-.622.208H583.864a3.525 3.525 0 01-3.521-3.383v-9.525a3.525 3.525 0 013.521-3.383h146.449l.622.208a3.308 3.308 0 011.657 1.311c.415.61.632 1.333.621 2.071z" fill="#AFCDFB"/><path d="M651.945 440.592h-68.564a3.31 3.31 0 00-3.177 3.382v9.525a3.315 3.315 0 003.177 3.383h78.161c-5.938-4.901-8.424-11.528-9.597-16.29zm63.523 0h-1.657v16.29h1.657v-16.29zm-5.662 0h-1.657v16.29h1.657v-16.29zm-6.697 0h-1.657v16.29h1.657v-16.29zm-10.357 0h-1.588v16.29h1.657l-.069-16.29zm-10.91 0h-1.657v16.29h1.657v-16.29zm-16.64 0h-1.658v16.29h1.658v-16.29zm55.583 0h-1.657v16.29h1.657v-16.29zm3.521 0h-1.657v16.29h1.657v-16.29zm3.384 0h-1.658v16.29h1.658v-16.29zm.897 0v16.29h1.657v-16.29h-1.657zm2.348.207v15.806a3.382 3.382 0 001.657-1.311V442.11a3.525 3.525 0 00-1.657-1.311z" fill="#98B9EA"/><path d="M740.808 427.753v9.18a3.727 3.727 0 01-.621 2.002 3.593 3.593 0 01-1.657 1.311l-.622.207H591.459a3.521 3.521 0 01-3.521-3.382v-9.525c.035-.91.422-1.77 1.079-2.401a3.527 3.527 0 012.442-.982h146.449l.622.207a3.384 3.384 0 011.657 1.312c.428.604.647 1.331.621 2.071z" fill="#AFCDFB"/><path d="M659.609 424.232h-68.564a3.317 3.317 0 00-3.176 3.383v9.594a3.313 3.313 0 003.176 3.383h78.092c-5.938-4.97-8.492-11.597-9.528-16.36zm63.454 0h-1.657v16.291h1.657v-16.291zm-5.662 0h-1.657v16.291h1.657v-16.291zm-6.697 0h-1.657v16.291h1.657v-16.291zm-10.288 0h-1.657v16.291h1.657v-16.291zm-10.91 0h-1.657v16.291h1.657v-16.291zm-16.778 0h-1.657v16.291h1.657v-16.291zm55.652 0h-1.657v16.291h1.657v-16.291zm3.521 0h-1.657v16.291h1.657v-16.291zm3.384 0h-1.657v16.291h1.657v-16.291zm.967 0v16.291h1.657v-16.291h-1.657zm2.278.207v15.807a3.382 3.382 0 001.657-1.311v-13.184a3.384 3.384 0 00-1.657-1.312z" fill="#98B9EA"/><path d="M733.213 411.463v9.18a3.655 3.655 0 01-.621 2.002 3.593 3.593 0 01-1.657 1.311l-.622.207H583.864a3.52 3.52 0 01-3.521-3.382v-9.525a3.52 3.52 0 013.521-3.383h146.449l.622.207a3.315 3.315 0 011.657 1.312c.411.612.628 1.334.621 2.071z" fill="#AFCDFB"/><path d="M651.945 407.873h-68.564a3.315 3.315 0 00-3.177 3.383v9.594a3.314 3.314 0 003.177 3.382h78.161c-5.938-4.9-8.424-11.527-9.597-16.359zm63.523 0h-1.657v16.29h1.657v-16.29zm-5.662 0h-1.657v16.29h1.657v-16.29zm-6.697 0h-1.657v16.29h1.657v-16.29zm-10.357 0h-1.588v16.29h1.657l-.069-16.29zm-10.91 0h-1.657v16.29h1.657v-16.29zm-16.64 0h-1.658v16.29h1.658v-16.29zm55.583 0h-1.657v16.29h1.657v-16.29zm3.521 0h-1.657v16.29h1.657v-16.29zm3.384 0h-1.658v16.29h1.658v-16.29zm.897 0v16.29h1.657v-16.221h-1.657v-.069zm2.348.276v15.807a3.382 3.382 0 001.657-1.311v-13.184a3.804 3.804 0 00-1.657-1.312z" fill="#98B9EA"/><path d="M733.213 395.104v9.18a3.658 3.658 0 01-.621 2.002 3.593 3.593 0 01-1.657 1.311l-.622.207H583.864a3.516 3.516 0 01-2.442-.982 3.512 3.512 0 01-1.079-2.4v-9.526a3.516 3.516 0 011.079-2.4 3.516 3.516 0 012.442-.982h146.449l.622.207a3.31 3.31 0 011.657 1.312c.411.612.628 1.333.621 2.071z" fill="#AFCDFB"/><path d="M651.945 391.514h-68.564a3.315 3.315 0 00-3.177 3.382v9.595a3.314 3.314 0 003.177 3.382h78.161c-5.938-4.901-8.424-11.527-9.597-16.359zm63.523 0h-1.657v16.29h1.657v-16.29zm-5.662 0h-1.657v16.29h1.657v-16.29zm-6.697 0h-1.657v16.29h1.657v-16.29zm-10.357 0h-1.588v16.29h1.657l-.069-16.29zm-10.91 0h-1.657v16.29h1.657v-16.29zm-16.64 0h-1.658v16.29h1.658v-16.29zm55.583 0h-1.657v16.29h1.657v-16.29zm3.521 0h-1.657v16.29h1.657v-16.29zm3.384 0h-1.658v16.29h1.658v-16.29zm.897 0v16.29h1.657v-16.221h-1.657v-.069zm2.348.276v15.807a3.382 3.382 0 001.657-1.311v-13.184a3.804 3.804 0 00-1.657-1.312z" fill="#98B9EA"/><path d="M724.306 378.675v9.25a3.73 3.73 0 01-.621 2.002 3.593 3.593 0 01-1.657 1.311l-.622.207H574.957a3.52 3.52 0 01-3.522-3.382v-9.526a3.522 3.522 0 013.522-3.382h146.449l.622.207a3.384 3.384 0 011.657 1.312 3.52 3.52 0 01.621 2.001z" fill="#AFCDFB"/><path d="M643.107 375.155h-68.564a3.315 3.315 0 00-3.177 3.382v9.595a3.315 3.315 0 003.177 3.382h78.161c-5.938-4.901-8.493-11.527-9.597-16.359zm63.454 0h-1.657v16.29h1.657v-16.29zm-5.593 0h-1.657v16.29h1.657v-16.29zm-6.697 0h-1.657v16.29h1.657v-16.29zm-10.357 0h-1.658v16.29h1.658v-16.29zm-10.91 0h-1.657v16.29h1.657v-16.29zm-16.709 0h-1.658v16.29h1.658v-16.29zm55.583 0h-1.657v16.29h1.657v-16.29zm3.59 0h-1.657v16.29h1.657v-16.29zm3.383 0h-1.657v16.29h1.657v-16.29zm.898 0v16.29h1.657v-16.221h-1.657v-.069zm2.279.276v15.807a3.387 3.387 0 001.657-1.311v-13.184a3.384 3.384 0 00-1.657-1.312z" fill="#98B9EA"/><path d="M729.14 362.385v9.181a3.66 3.66 0 01-.622 2.001 3.584 3.584 0 01-1.657 1.312l-.621.207H579.79a3.518 3.518 0 01-3.521-3.382v-9.526a3.518 3.518 0 013.521-3.382h146.45l.621.207a3.313 3.313 0 011.657 1.311c.428.604.647 1.332.622 2.071z" fill="#AFCDFB"/><path d="M647.94 358.865h-68.564a3.313 3.313 0 00-3.176 3.382v9.595a3.313 3.313 0 003.176 3.382h78.161c-5.938-4.97-8.492-11.596-9.597-16.359zm63.454 0h-1.657v16.29h1.657v-16.29zm-5.592 0h-1.658v16.29h1.658v-16.29zm-6.698 0h-1.657v16.29h1.657v-16.29zm-10.357 0h-1.657v16.29h1.657v-16.29zm-10.91 0h-1.657v16.29h1.657v-16.29zm-16.709 0h-1.657v16.29h1.657v-16.29zm55.583 0h-1.657v16.29h1.657v-16.29zm3.59 0h-1.657v16.29h1.657v-16.29zm3.384 0h-1.657v16.29h1.657v-16.29zm.897 0v16.29h1.658v-16.29h-1.658zm2.279.207v15.807a3.31 3.31 0 001.657-1.312v-13.184a3.313 3.313 0 00-1.657-1.311z" fill="#98B9EA"/><path d="M739.842 346.095v9.181a3.716 3.716 0 01-.622 2.001 3.654 3.654 0 01-1.657 1.312l-.621.207H590.493a3.52 3.52 0 01-3.522-3.382v-9.526a3.522 3.522 0 013.522-3.382h146.38l.621.138a3.383 3.383 0 011.657 1.311c.463.617.706 1.37.691 2.14z" fill="#AFCDFB"/><path d="M658.642 342.506h-68.564a3.313 3.313 0 00-3.176 3.382v9.526a3.313 3.313 0 003.176 3.382h78.093c-5.869-4.832-8.493-11.458-9.529-16.29zm63.455 0h-1.658v16.29h1.658v-16.29zm-5.593 0h-1.657v16.29h1.657v-16.29zm-6.767 0h-1.657v16.29h1.657v-16.29zm-10.288 0h-1.657v16.29h1.657v-16.29zm-10.909 0h-1.657v16.29h1.657v-16.29zm-16.779 0h-1.657v16.29h1.657v-16.29zm55.652 0h-1.657v16.29h1.657v-16.29zm3.522 0h-1.657v16.29h1.657v-16.29zm3.452 0h-1.657v16.29h1.657v-16.29zm.898 0v16.29h1.657v-16.221h-1.657v-.069zm2.348.276v15.807a3.388 3.388 0 001.657-1.312v-13.184a3.807 3.807 0 00-1.657-1.311z" fill="#98B9EA"/><path d="M733.213 329.736v9.181a3.652 3.652 0 01-.621 2.001 3.589 3.589 0 01-1.657 1.312l-.622.207H583.864a3.516 3.516 0 01-2.442-.982 3.516 3.516 0 01-1.079-2.4v-9.457a3.514 3.514 0 011.079-2.4 3.516 3.516 0 012.442-.982h146.449l.622.207c.68.245 1.262.705 1.657 1.311.391.596.606 1.29.621 2.002z" fill="#AFCDFB"/><path d="M651.945 326.216h-68.564a3.315 3.315 0 00-3.177 3.382v9.595a3.315 3.315 0 003.177 3.382h78.161c-5.938-4.901-8.424-11.527-9.597-16.359zm63.523 0h-1.657v16.29h1.657v-16.29zm-5.662 0h-1.657v16.29h1.657v-16.29zm-6.697 0h-1.657v16.29h1.657v-16.29zm-10.357 0h-1.588v16.29h1.657l-.069-16.29zm-10.91 0h-1.657v16.29h1.657v-16.29zm-16.64 0h-1.658v16.29h1.658v-16.29zm55.583 0h-1.657v16.29h1.657v-16.29zm3.521 0h-1.657v16.29h1.657v-16.29zm3.384 0h-1.658v16.29h1.658v-16.29zm.897 0v16.29h1.657v-16.221h-1.657v-.069zm2.348.276v15.807a3.384 3.384 0 001.657-1.312v-13.184a3.525 3.525 0 00-1.657-1.311z" fill="#98B9EA"/><path d="M740.808 313.446v9.18a3.727 3.727 0 01-.621 2.002 3.589 3.589 0 01-1.657 1.312l-.622.207H591.459a3.522 3.522 0 01-3.521-3.382v-9.526a3.516 3.516 0 013.521-3.382h146.449l.622.207a3.382 3.382 0 011.657 1.311c.428.604.647 1.331.621 2.071z" fill="#AFCDFB"/><path d="M659.609 309.926h-68.564a3.316 3.316 0 00-3.176 3.382v9.595a3.313 3.313 0 003.176 3.382h78.092c-5.938-4.97-8.492-11.596-9.528-16.359zm63.454 0h-1.657v16.29h1.657v-16.29zm-5.662 0h-1.657v16.29h1.657v-16.29zm-6.697 0h-1.657v16.29h1.657v-16.29zm-10.288 0h-1.657v16.29h1.657v-16.29zm-10.91 0h-1.657v16.29h1.657v-16.29zm-16.778 0h-1.657v16.29h1.657v-16.29zm55.652 0h-1.657v16.29h1.657v-16.29zm3.521 0h-1.657v16.29h1.657v-16.29zm3.384 0h-1.657v16.29h1.657v-16.29zm.967 0v16.29h1.657v-16.29h-1.657zm2.278.207v15.807a3.384 3.384 0 001.657-1.312v-13.184a3.52 3.52 0 00-1.657-1.311z" fill="#98B9EA"/><path d="M733.213 297.156v9.18a3.652 3.652 0 01-.621 2.002 3.589 3.589 0 01-1.657 1.312l-.622.207H583.864a3.52 3.52 0 01-3.521-3.383v-9.525a3.516 3.516 0 013.521-3.382h146.449l.622.207a3.308 3.308 0 011.657 1.311c.411.612.628 1.334.621 2.071z" fill="#AFCDFB"/><path d="M651.945 293.567h-68.564a3.314 3.314 0 00-3.177 3.382v9.595a3.315 3.315 0 003.177 3.382h78.161c-5.938-4.901-8.424-11.528-9.597-16.359zm63.523 0h-1.657v16.29h1.657v-16.29zm-5.662 0h-1.657v16.29h1.657v-16.29zm-6.697 0h-1.657v16.29h1.657v-16.29zm-10.357 0h-1.588v16.29h1.657l-.069-16.29zm-10.91 0h-1.657v16.29h1.657v-16.29zm-16.64 0h-1.658v16.29h1.658v-16.29zm55.583 0h-1.657v16.29h1.657v-16.29zm3.521 0h-1.657v16.29h1.657v-16.29zm3.384 0h-1.658v16.29h1.658v-16.29zm.897 0v16.29h1.657v-16.221h-1.657v-.069zm2.348.276v15.807a3.384 3.384 0 001.657-1.312v-13.184a3.794 3.794 0 00-1.657-1.311z" fill="#98B9EA"/><path d="M733.213 280.797v9.18a3.652 3.652 0 01-.621 2.002 3.593 3.593 0 01-1.657 1.311l-.622.208H583.864a3.525 3.525 0 01-3.521-3.383v-9.525a3.516 3.516 0 013.521-3.382h146.449l.622.207a3.308 3.308 0 011.657 1.311c.411.612.628 1.334.621 2.071z" fill="#AFCDFB"/><path d="M651.945 277.208h-68.564a3.31 3.31 0 00-3.177 3.382v9.594a3.315 3.315 0 003.177 3.383h78.161c-5.938-4.901-8.424-11.528-9.597-16.359zm63.523 0h-1.657v16.29h1.657v-16.29zm-5.662 0h-1.657v16.29h1.657v-16.29zm-6.697 0h-1.657v16.29h1.657v-16.29zm-10.357 0h-1.588v16.29h1.657l-.069-16.29zm-10.91 0h-1.657v16.29h1.657v-16.29zm-16.64 0h-1.658v16.29h1.658v-16.29zm55.583 0h-1.657v16.29h1.657v-16.29zm3.521 0h-1.657v16.29h1.657v-16.29zm3.384 0h-1.658v16.29h1.658v-16.29zm.897 0v16.29h1.657v-16.221h-1.657v-.069zm2.348.276v15.807a3.39 3.39 0 001.657-1.312v-13.184a3.525 3.525 0 00-1.657-1.311z" fill="#98B9EA"/><path d="M724.306 264.369v9.18a3.727 3.727 0 01-.621 2.002 3.593 3.593 0 01-1.657 1.311l-.622.207H574.957a3.524 3.524 0 01-3.522-3.382v-9.525a3.525 3.525 0 013.522-3.383h146.449l.622.207a3.384 3.384 0 011.657 1.312c.428.604.646 1.331.621 2.071z" fill="#AFCDFB"/><path d="M643.107 260.848h-68.564a3.315 3.315 0 00-3.177 3.383v9.594a3.31 3.31 0 003.177 3.382h78.161c-5.938-4.9-8.493-11.527-9.597-16.359zm63.454 0h-1.657v16.29h1.657v-16.29zm-5.593 0h-1.657v16.29h1.657v-16.29zm-6.697 0h-1.657v16.29h1.657v-16.29zm-10.357 0h-1.658v16.29h1.658v-16.29zm-10.91 0h-1.657v16.29h1.657v-16.29zm-16.709 0h-1.658v16.29h1.658v-16.29zm55.583 0h-1.657v16.29h1.657v-16.29zm3.59 0h-1.657v16.29h1.657v-16.29zm3.383 0h-1.657v16.29h1.657v-16.29zm.898 0v16.29h1.657v-16.221h-1.657v-.069zm2.279.277v15.806a3.382 3.382 0 001.657-1.311v-13.184a3.382 3.382 0 00-1.657-1.311z" fill="#98B9EA"/><path d="M729.14 248.01v9.18a3.664 3.664 0 01-.622 2.002 3.588 3.588 0 01-1.657 1.311l-.621.207H579.79a3.521 3.521 0 01-3.521-3.382v-9.456a3.52 3.52 0 013.521-3.383h146.45l.621.207a3.315 3.315 0 011.657 1.312 3.38 3.38 0 01.622 2.002z" fill="#AFCDFB"/><path d="M647.94 244.489h-68.564a3.317 3.317 0 00-3.176 3.383v9.594a3.313 3.313 0 003.176 3.382h78.161c-5.938-4.9-8.492-11.527-9.597-16.359zm63.454 0h-1.657v16.29h1.657v-16.29zm-5.592 0h-1.658v16.29h1.658v-16.29zm-6.698 0h-1.657v16.29h1.657v-16.29zm-10.357 0h-1.657v16.29h1.657v-16.29zm-10.91 0h-1.657v16.29h1.657v-16.29zm-16.709 0h-1.657v16.29h1.657v-16.29zm55.583 0h-1.657v16.29h1.657v-16.29zm3.59 0h-1.657v16.29h1.657v-16.29zm3.384 0h-1.657v16.29h1.657v-16.29zm.897 0v16.29h1.658v-16.221h-1.658v-.069zm2.279.207v15.807a3.308 3.308 0 001.657-1.311v-13.115a3.595 3.595 0 00-1.657-1.381z" fill="#98B9EA"/><path d="M518.614 416.847l-169.373 54.806-72.776-226.818-30.588-95.532L415.25 94.496l57.241 178.432 46.123 143.919z" fill="#A8D29F"/><path d="M518.614 416.847l-169.373 54.806-72.776-226.819s87.621 56.809 195.957 28.094l46.192 143.919z" fill="#9DC993"/><path d="M493.757 404.56l-131.535 42.52-92.868-289.77 131.466-42.52 92.937 289.77zm-116.621 33.27l99.152-32.097a12.91 12.91 0 008.286-16.221l-82.442-256.983a13.048 13.048 0 00-11.36-9.069 13.057 13.057 0 00-5.074.579l-98.737 32.028a12.981 12.981 0 00-8.355 16.359l82.511 257.19a12.713 12.713 0 006.303 7.433 12.697 12.697 0 009.716.781z" fill="#82B378"/><path d="M392.948 316.414a37.285 37.285 0 0017.865-12.261 37.258 37.258 0 003.504-41.309 37.29 37.29 0 00-56.747-10.389 37.268 37.268 0 00-11.367 39.869 37.343 37.343 0 0018.414 21.662 37.362 37.362 0 0028.331 2.428z" fill="#82B378"/><path d="M531.112 196.93c-47.643 0-86.585 38.172-88.104 85.661v.276a25.772 25.772 0 013.521-.276h9.459c1.52-40.311 34.593-72.546 75.124-72.546 40.531 0 73.604 32.235 75.123 72.546h13.05c-1.588-47.489-40.53-85.661-88.173-85.661z" fill="#ED7D2B"/><path d="M599.193 472.067H421.672a18.443 18.443 0 01-13.432-5.903 18.438 18.438 0 01-4.866-13.838l2.348-33.616 1.105-15.806 7.181-103.194a18.358 18.358 0 0118.297-17.118h154.666a18.36 18.36 0 0118.229 16.911l12.29 152.616a18.348 18.348 0 01-4.761 13.996 18.367 18.367 0 01-13.536 5.952z" fill="#ED7D2B"/><path d="M637.79 471.998H460.269a18.435 18.435 0 01-18.297-19.741l10.633-152.616a18.36 18.36 0 0118.298-17.049H625.5a18.367 18.367 0 0118.228 16.911l12.29 152.616a18.35 18.35 0 01-4.764 13.925 18.36 18.36 0 01-13.464 5.954z" fill="#F99746"/><path d="M577.097 393.378a26.361 26.361 0 01-7.701 18.62 26.382 26.382 0 01-18.606 7.748 27.371 27.371 0 01-4.142-.345 26.45 26.45 0 01-15.012-8.118 26.432 26.432 0 0110.454-42.823v-46.524a6.831 6.831 0 014.558-6.419 6.406 6.406 0 012.14-.345h3.936a6.766 6.766 0 016.697 6.695v46.524a26.44 26.44 0 0117.676 24.987z" fill="#DB6A1D"/><path d="M568.95 393.378a26.363 26.363 0 01-6.271 17.13 26.384 26.384 0 01-15.893 8.962 26.438 26.438 0 01-21.937-23.713 26.442 26.442 0 0117.38-27.228v-46.593a6.835 6.835 0 014.557-6.419 6.762 6.762 0 014.557 6.419v46.524a26.374 26.374 0 0117.607 24.918z" fill="#EA863B"/><path d="M933.727 461.921v8.076a2.69 2.69 0 01-.622 1.725 3.518 3.518 0 01-1.726 1.174l-.69.138H777.473c-2.003 0-3.591-1.312-3.66-2.968v-8.283c.069-1.588 1.726-2.969 3.66-2.969H930.62l.69.139a3.51 3.51 0 011.726 1.173c.438.496.683 1.133.691 1.795z" fill="#FFB93E"/><path d="M858.81 473.172h-81.752a3.245 3.245 0 01-3.314-2.969v-8.421a3.245 3.245 0 013.314-2.968h71.671a25.2 25.2 0 0010.081 14.358zm56.274-14.358h-1.726v14.289h1.726v-14.289zm-5.8 0h-1.726v14.289h1.726v-14.289zm-7.043 0h-1.726v14.289h1.726v-14.289zm-10.84 0h-1.726v14.289h1.726v-14.289zm-11.393 0h-1.726v14.289h1.726v-14.289zm-17.469 0h-1.726v14.289h1.726v-14.289z" fill="#FFA412"/><path d="M846.175 458.814h-1.727v14.289h1.727v-14.289zm-14.638 0h-1.726v14.289h1.726v-14.289zm89.209 0h-1.726v14.289h1.726v-14.289zm3.659 0h-1.726v14.289h1.726v-14.289zm3.591 0h-1.726v14.289h1.726v-14.289zm2.624.069v14.22h-1.727v-14.22h1.727zm2.416 1.312v11.527a3.587 3.587 0 01-1.726 1.174v-13.875c.679.212 1.28.621 1.726 1.174z" fill="#FFA412"/><path d="M917.362 447.632v8.076a2.759 2.759 0 01-.621 1.726 3.59 3.59 0 01-1.726 1.173l-.691.138H761.108c-2.002 0-3.59-1.311-3.659-2.968v-8.283c.069-1.588 1.726-2.968 3.659-2.968h153.147l.691.138h.759l.207.138h.277l.276.276h.138l.138.138a2.761 2.761 0 01.621 2.416z" fill="#FFB93E"/><path d="M842.446 458.814h-81.683a3.245 3.245 0 01-3.314-2.968v-8.421a3.242 3.242 0 013.314-2.968h71.671c.04.111.064.227.069.345a24.987 24.987 0 009.943 14.012zm56.343-14.288h-1.727v14.288h1.727v-14.288zm-5.8 0h-1.726v14.288h1.726v-14.288zm-7.112 0h-1.726v14.288h1.726v-14.288zm-10.772 0h-1.726v14.288h1.726v-14.288zm-11.392 0h-1.726v14.288h1.726v-14.288zm-17.469 0h-1.796v14.288h1.727l.069-14.288z" fill="#FFA412"/><path d="M829.811 444.526h-1.727v14.288h1.727v-14.288zm-14.57 0h-1.726v14.288h1.726v-14.288zm89.141 0h-1.727v14.288h1.727v-14.288zm3.728 0h-1.726v14.288h1.726v-14.288zm3.522 0h-1.727v14.288h1.727v-14.288zm2.692.069v14.219h-1.726v-14.288h1.726v.069zm2.417 1.311v11.528a3.59 3.59 0 01-1.726 1.173v-13.874c.679.212 1.279.62 1.726 1.173z" fill="#FFA412"/><path d="M925.303 433.689v8.076a2.765 2.765 0 01-.622 1.726 3.592 3.592 0 01-1.726 1.173l-.69.138H769.049a3.786 3.786 0 01-1.726-.345 3.1 3.1 0 01-2.003-2.485v-8.421c.069-1.588 1.726-2.968 3.66-2.968h153.147l.69.138c.679.211 1.28.62 1.726 1.173.458.49.727 1.126.76 1.795z" fill="#FFB93E"/><path d="M850.387 444.871h-81.752a3.315 3.315 0 01-1.519-.345 3.108 3.108 0 01-1.796-2.485v-8.49a3.245 3.245 0 013.315-2.968h71.671a25.26 25.26 0 009.528 13.943l.553.345zm56.342-14.288h-1.726v14.288h1.726v-14.288zm-5.938 0h-1.726v14.288h1.726v-14.288zm-6.974 0h-1.726v14.288h1.726v-14.288zm-10.84 0h-1.726v14.288h1.726v-14.288zm-11.393 0h-1.726v14.288h1.726v-14.288zm-17.469 0h-1.726v14.288h1.726v-14.288z" fill="#FFA412"/><path d="M837.751 430.583h-1.726v14.288h1.726v-14.288zm-14.638 0h-1.726v14.288h1.726v-14.288zm89.209 0h-1.726v14.288h1.726v-14.288zm3.66 0h-1.727v14.288h1.727v-14.288zm3.59 0h-1.726v14.288h1.726v-14.288zm2.624 0v14.219h-1.726v-14.219h1.726zm2.416 1.38v11.528a3.592 3.592 0 01-1.726 1.173V430.79c.679.211 1.28.62 1.726 1.173z" fill="#FFA412"/><path d="M928.893 419.401v8.076a2.754 2.754 0 01-.621 1.725 3.592 3.592 0 01-1.726 1.174l-.691.138H772.639c-2.002 0-3.59-1.312-3.659-2.968v-8.352c.069-1.519 1.519-2.762 3.245-2.9h153.63l.691.138a3.599 3.599 0 011.726 1.174c.418.503.639 1.141.621 1.795z" fill="#FFB93E"/><path d="M854.046 430.583h-81.752a3.246 3.246 0 01-3.314-2.968v-8.421a3.173 3.173 0 012.9-2.9h72.085a24.783 24.783 0 0010.081 14.289zm56.343-14.289h-1.726v14.289h1.726v-14.289zm-5.938 0h-1.727v14.289h1.727v-14.289zm-7.043 0h-1.726v14.289h1.726v-14.289zm-10.772 0h-1.726v14.289h1.726v-14.289zm-11.392 0h-1.727v14.289h1.727v-14.289zm-17.469 0h-1.726v14.289h1.726v-14.289z" fill="#FFA412"/><path d="M841.341 416.294h-1.726v14.289h1.726v-14.289zm-14.569 0h-1.726v14.289h1.726v-14.289zm89.141 0h-1.727v14.289h1.727v-14.289zm3.728 0h-1.726v14.289h1.726v-14.289zm3.521 0h-1.726v14.289h1.726v-14.289zm2.693 0v14.22h-1.726v-14.22h1.726zm2.417 1.381v11.527a3.592 3.592 0 01-1.726 1.174v-13.875a4.078 4.078 0 011.726 1.174z" fill="#FFA412"/><path d="M917.708 405.112v8.076a2.694 2.694 0 01-.622 1.726 3.586 3.586 0 01-1.726 1.173l-.69.138H761.454c-2.003 0-3.591-1.311-3.66-2.968v-8.421a3.381 3.381 0 012.762-2.692H914.67l.69.138c.679.212 1.28.62 1.726 1.174.375.474.592 1.053.622 1.656z" fill="#FFB93E"/><path d="M842.791 416.294h-81.752a3.247 3.247 0 01-3.314-2.968v-8.559a3.17 3.17 0 01.825-1.799 3.17 3.17 0 011.73-.962h72.361a.148.148 0 00.014.08.134.134 0 00.055.058 25.746 25.746 0 0010.081 14.15zm56.343-14.288h-1.726v14.288h1.726v-14.288zm-5.869 0h-1.726v14.288h1.726v-14.288zm-7.043 0h-1.726v14.288h1.726v-14.288zm-10.771 0h-1.727v14.288h1.727v-14.288zm-11.462 0h-1.726v14.288h1.726v-14.288zm-17.469 0h-1.726v14.288h1.726v-14.288z" fill="#FFA412"/><path d="M830.156 402.006h-1.726v14.288h1.726v-14.288zm-14.638 0h-1.726v14.288h1.726v-14.288zm89.209 0h-1.726v14.288h1.726v-14.288zm3.728 0h-1.726v14.288h1.726v-14.288zm3.522 0h-1.726v14.288h1.726v-14.288zm2.693 0v14.219h-1.727v-14.219h1.727zm2.416 1.381v11.527a3.586 3.586 0 01-1.726 1.173v-13.874c.679.212 1.28.62 1.726 1.174z" fill="#FFA412"/><path d="M917.362 390.893v8.076a2.759 2.759 0 01-.621 1.726 3.592 3.592 0 01-1.726 1.173l-.553.138H760.418a3.313 3.313 0 01-3.038-2.899v-8.421c.069-1.588 1.726-2.968 3.659-2.968h153.147l.691.138h.69l.207.138h.207l.277.276h.138l.138.138a2.763 2.763 0 01.828 2.485z" fill="#FFB93E"/><path d="M842.446 402.075h-82.097a3.243 3.243 0 01-2.9-2.899v-8.421a3.245 3.245 0 013.314-2.968h71.671c.04.111.064.227.069.345a24.92 24.92 0 009.805 13.874l.138.069zm56.343-14.288h-1.727v14.288h1.727v-14.288zm-5.8 0h-1.726v14.288h1.726v-14.288zm-7.112 0h-1.726v14.288h1.726v-14.288zm-10.772 0h-1.726v14.288h1.726v-14.288zm-11.392 0h-1.726v14.288h1.726v-14.288zm-17.469 0h-1.796v14.288h1.727l.069-14.288z" fill="#FFA412"/><path d="M829.811 387.787h-1.727v14.288h1.727v-14.288zm-14.57 0h-1.726v14.288h1.726v-14.288zm89.141 0h-1.727v14.288h1.727v-14.288zm3.728 0h-1.726v14.288h1.726v-14.288zm3.522 0h-1.727v14.288h1.727v-14.288zm2.692 0v14.219h-1.726v-14.219h1.726zm2.417 1.38v11.528a3.597 3.597 0 01-1.726 1.173v-13.874c.679.212 1.279.62 1.726 1.173z" fill="#FFA412"/><path d="M925.303 376.95v8.076a2.765 2.765 0 01-.622 1.726 3.592 3.592 0 01-1.726 1.173l-.69.138H769.049a3.786 3.786 0 01-1.726-.345 3.109 3.109 0 01-2.003-2.485v-8.49c.069-1.588 1.726-2.968 3.66-2.968h153.147l.69.138c.679.211 1.28.62 1.726 1.173a2.83 2.83 0 01.76 1.864z" fill="#FFB93E"/><path d="M850.387 388.132h-81.752a3.315 3.315 0 01-1.519-.345 3.108 3.108 0 01-1.796-2.485v-8.559a3.25 3.25 0 013.315-2.969h71.671a25.263 25.263 0 009.528 13.944l.553.414zm56.342-14.288h-1.726v14.288h1.726v-14.288zm-5.938 0h-1.726v14.288h1.726v-14.288zm-6.974 0h-1.726v14.288h1.726v-14.288zm-10.84 0h-1.726v14.288h1.726v-14.288zm-11.393 0h-1.726v14.288h1.726v-14.288zm-17.469 0h-1.726v14.288h1.726v-14.288z" fill="#FFA412"/><path d="M837.751 373.844h-1.726v14.288h1.726v-14.288zm-14.638 0h-1.726v14.288h1.726v-14.288zm89.209 0h-1.726v14.288h1.726v-14.288zm3.66 0h-1.727v14.288h1.727v-14.288zm3.59 0h-1.726v14.288h1.726v-14.288zm2.624.069v14.219h-1.726v-14.288h1.726v.069zm2.416 1.242v11.527a3.587 3.587 0 01-1.726 1.174v-13.874c.672.225 1.27.631 1.726 1.173z" fill="#FFA412"/><path d="M937.731 362.661v8.076a2.686 2.686 0 01-.621 1.726 3.586 3.586 0 01-1.726 1.173l-.691.138H781.477c-2.002 0-3.59-1.311-3.659-2.968v-8.352c.069-1.518 1.519-2.761 3.245-2.899h153.63l.691.138c.679.212 1.28.62 1.726 1.174a2.89 2.89 0 01.621 1.794z" fill="#FFB93E"/><path d="M862.815 373.843h-81.752a3.245 3.245 0 01-3.314-2.968v-8.421a3.17 3.17 0 012.9-2.899h72.085a25.055 25.055 0 0010.081 14.288zm56.343-14.288h-1.727v14.288h1.727v-14.288zm-5.869 0h-1.727v14.288h1.727v-14.288zm-7.043 0h-1.726v14.288h1.726v-14.288zm-10.771 0h-1.727v14.288h1.727v-14.288zm-11.462 0h-1.727v14.288h1.727v-14.288zm-17.469 0h-1.727v14.288h1.727v-14.288z" fill="#FFA412"/><path d="M850.18 359.555h-1.727v14.288h1.727v-14.288zm-14.639 0h-1.726v14.288h1.726v-14.288zm89.21 0h-1.727v14.288h1.727v-14.288zm3.728 0h-1.726v14.288h1.726v-14.288zm3.521 0h-1.726v14.288H932v-14.288zm2.693 0v14.219h-1.726v-14.219h1.726zm2.417 1.312v11.527a3.592 3.592 0 01-1.726 1.174v-13.875c.679.212 1.279.62 1.726 1.174z" fill="#FFA412"/><path d="M917.708 348.373v8.076a2.765 2.765 0 01-.622 1.726 3.592 3.592 0 01-1.726 1.173l-.69.138H761.523c-2.003 0-3.591-1.311-3.66-2.968v-8.352c.069-1.588 1.726-2.968 3.66-2.968H914.67l.69.138.345.138h.415l.138.138.345.276h.207l.138.138.138.138c.435.653.652 1.426.622 2.209z" fill="#FFB93E"/><path d="M842.791 359.555h-81.752a3.243 3.243 0 01-3.314-2.968v-8.421a3.243 3.243 0 013.314-2.968h71.671v.345a25.473 25.473 0 009.943 14.012h.138zm56.343-14.357h-1.726v14.288h1.726v-14.288zm-5.869 0h-1.726v14.288h1.726v-14.288zm-7.043 0h-1.726v14.288h1.726v-14.288zm-10.771 0h-1.727v14.288h1.727v-14.288zm-11.462 0h-1.726v14.288h1.726v-14.288zm-17.469 0h-1.726v14.288h1.726v-14.288z" fill="#FFA412"/><path d="M830.156 345.198h-1.726v14.288h1.726v-14.288zm-14.638 0h-1.726v14.288h1.726v-14.288zm89.209 0h-1.726v14.288h1.726v-14.288zm3.728 0h-1.726v14.288h1.726v-14.288zm3.522 0h-1.726v14.288h1.726v-14.288zm2.693.069v14.219h-1.727v-14.288h1.727v.069zm2.416 1.311v11.528a3.586 3.586 0 01-1.726 1.173v-13.874c.679.212 1.28.62 1.726 1.173z" fill="#FFA412"/><path d="M928.893 334.361v8.076a2.759 2.759 0 01-.621 1.726 3.597 3.597 0 01-1.726 1.173l-.691.138H772.639a4.29 4.29 0 01-1.657-.345 3.179 3.179 0 01-2.002-2.485v-8.421c.069-1.519 1.519-2.761 3.245-2.899h153.63l.691.138a3.59 3.59 0 011.726 1.173c.403.485.623 1.096.621 1.726z" fill="#FFB93E"/><path d="M854.046 345.543h-81.752a3.662 3.662 0 01-1.519-.345 3.17 3.17 0 01-1.795-2.485v-8.559a3.173 3.173 0 012.9-2.899h72.085a25.196 25.196 0 009.529 13.943l.552.345zm56.343-14.288h-1.726v14.288h1.726v-14.288zm-5.938 0h-1.727v14.288h1.727v-14.288zm-7.043 0h-1.726v14.288h1.726v-14.288zm-10.772 0h-1.726v14.288h1.726v-14.288zm-11.392 0h-1.727v14.288h1.727v-14.288zm-17.469 0h-1.726v14.288h1.726v-14.288z" fill="#FFA412"/><path d="M841.341 331.255h-1.726v14.288h1.726v-14.288zm-14.569 0h-1.726v14.288h1.726v-14.288zm89.141 0h-1.727v14.288h1.727v-14.288zm3.728 0h-1.726v14.288h1.726v-14.288zm3.521 0h-1.726v14.288h1.726v-14.288zm2.693.069v14.219h-1.726v-14.288h1.726v.069zm2.417 1.311v11.527a3.592 3.592 0 01-1.726 1.174v-13.874a4.076 4.076 0 011.726 1.173z" fill="#FFA412"/><path d="M933.727 320.072v8.076a2.692 2.692 0 01-.622 1.726 3.518 3.518 0 01-1.726 1.174l-.69.138H777.473c-2.003 0-3.591-1.312-3.66-2.969v-8.283c.069-1.587 1.726-2.968 3.66-2.968H930.62l.69.138a3.518 3.518 0 011.726 1.174c.444.493.689 1.132.691 1.794z" fill="#FFB93E"/><path d="M858.81 331.324h-81.752a3.248 3.248 0 01-3.314-2.968v-8.422a3.245 3.245 0 013.314-2.968h71.671a24.993 24.993 0 0010.012 14.358c0-.069.069-.069.069 0zm56.274-14.358h-1.726v14.289h1.726v-14.289zm-5.8 0h-1.726v14.289h1.726v-14.289zm-7.043 0h-1.726v14.289h1.726v-14.289zm-10.84 0h-1.726v14.289h1.726v-14.289zm-11.393 0h-1.726v14.289h1.726v-14.289zm-17.469 0h-1.726v14.289h1.726v-14.289z" fill="#FFA412"/><path d="M846.175 316.966h-1.727v14.289h1.727v-14.289zm-14.638 0h-1.726v14.289h1.726v-14.289zm89.209 0h-1.726v14.289h1.726v-14.289zm3.659 0h-1.726v14.289h1.726v-14.289zm3.591 0h-1.726v14.289h1.726v-14.289zm2.624.069v14.22h-1.727v-14.289h1.727v.069zm2.416 1.312v11.527a3.587 3.587 0 01-1.726 1.174v-13.875c.679.212 1.28.62 1.726 1.174z" fill="#FFA412"/><path d="M764.906 473.172c40.047 0 72.5-32.58 72.5-72.822 0-40.242-32.453-72.823-72.5-72.823s-72.5 32.581-72.5 72.823c0 40.242 32.453 72.822 72.5 72.822z" fill="#E2810E"/><path d="M758.623 473.172c40.047 0 72.499-32.58 72.499-72.822 0-40.242-32.452-72.823-72.499-72.823-40.048 0-72.5 32.581-72.5 72.823 0 40.242 32.452 72.822 72.5 72.822z" fill="#FFB93E"/><path d="M758.623 467.581a66.234 66.234 0 01-42.056-14.94 66.176 66.176 0 01-16.543-82.372 66.206 66.206 0 0133.028-30.009 66.235 66.235 0 0144.576-2.239 66.215 66.215 0 0135.871 26.548 66.18 66.18 0 01-8.2 83.615 65.393 65.393 0 01-46.676 19.397zm0-128.734c-34.248 0-62.074 27.956-62.074 62.4s27.826 62.399 62.074 62.399c34.247 0 62.073-27.955 62.073-62.399s-27.826-62.469-62.073-62.469v.069z" fill="#FFA412"/><path d="M896.717 237.794s-7.802 11.044-14.914 11.182c-7.112.138-18.021-5.108-18.021-5.108s-6.56-14.702-2.072-20.432a9.465 9.465 0 019.115 1.519 14.13 14.13 0 012.416 2.278 7.598 7.598 0 003.729 2.554c5.109 1.518 11.185-2.071 13.395 1.449a23.506 23.506 0 003.936 4.694c.761.677 1.568 1.3 2.416 1.864zm-101.499 79.379s27.55-67.024 77.126-68.266c0 0 45.709 5.108 48.264 68.266h-125.39z" fill="#F9DDBF"/><path d="M858.672 250.978s19.886 4.417 26.031 1.794c0 0 .898-8.352-7.457-7.178-5.731.828-9.46-1.933-11.669-3.106-2.21-1.174-7.733 4.969-6.905 8.49z" fill="#DB6A1D"/><path d="M875.934 238.346c-1.312.966-5.178-13.46-5.178-13.46a14.13 14.13 0 012.416 2.278 7.602 7.602 0 003.729 2.554c.069.483.276 7.731-.967 8.628zm18.367-2.416c-.276.138-9.46 5.729-10.702 5.729-1.243 0 6.766-10.354 6.766-10.354a25.319 25.319 0 003.936 4.625zm-72.224 62.538c-.483-.415 19.471-29.543 24.995-29.82 5.524-.276 17.883 6.42 26.86 7.248 8.976.828 17.676-1.726 19.333 3.589 1.657 5.315 6.352 24.159 3.521 27.197-2.831 3.037-63.73 1.242-74.709-8.214z" fill="#E5C1A1"/><path d="M880.491 244.627c-1.657-1.173-5.454-3.796-5.662-3.175-.068.67.13 1.34.553 1.864-2.279-.828-4.626-1.45-10.081-.345a4.136 4.136 0 00-2.693 1.794c-.552.898-.76 2.002.621 2.831 2.762 1.725 2.003.69 5.869 3.244 3.867 2.554 8.631 3.175 11.462 1.449l3.798-.621.483-6.281-4.35-.76zm99.774-52.735s-8.977 10.699-20.438 6.212c0 0-2.486-6.005-2.486-10.423v-1.588c-.069-4.969-.207-7.73-.207-7.73s17.469-7.179 17.469-6.627c-.276 13.46 5.662 20.156 5.662 20.156z" fill="#FFB27D"/><path d="M972.945 174.911c-1.657 3.037-7.25 8.974-15.535 11.182-.069-4.969-.207-7.73-.207-7.73s16.226-4.349 15.742-3.452z" fill="#ED975D"/><path d="M953.543 177.88s19.057 4.486 21.681-7.455c2.624-11.942 6.836-19.466-5.247-22.848-12.084-3.382-15.398.621-17.262 4.418-.829 1.725-2.279 9.318-4.212 14.633-.484 1.243 2.555 1.174 2.624 2.485.069 4.97.345 8.076 2.416 8.767z" fill="#FFB27D"/><path d="M974.603 173.669c.207.138 4.35 1.449 12.152-14.15a13.598 13.598 0 00-.829-12.356c-2.9-4.625-12.911-8.352-21.335-9.94-8.424-1.587-10.426 3.175-12.36 7.869-1.933 4.694-8.078 9.112-8.078 9.112 7.181 4.072 15.881-1.726 18.919-.829 3.038.898 4.074 5.729 4.35 7.248.276 1.518.552 2.761 4.35 1.449 3.797-1.311 1.726 5.384 1.104 6.696.069.069-.483 3.52 1.727 4.901z" fill="#A9453D"/><path d="M1023.76 472.274h11.6c2.42 0 5.11-2.415 5.8-6.902.69-4.487 5.67-6.903 6.7-10.492 1.04-3.589-4.42-8.766-4.42-8.766l-.89-1.174-.97-1.242-9.12 2.14s-.2 2.208-.34 4.969-.14 4.349-.07 6.42c.28 4.832-1.38 10.147-5.66 11.044-4.28.897-2.63 4.003-2.63 4.003zm-80.436 0h30.657l.622-.207c2.071-1.035 1.381-8.904 1.174-11.32-.07-.414-.07-.759-.07-.759s-10.771-8.629-12.221-2.002c-.069.207-.138.414-.138.621-1.864 6.212-10.219 9.043-15.052 9.802-3.729.69-4.696 2.83-4.972 3.865z" fill="#2C3A64"/><path d="M949.469 294.947s1.658 20.501 3.522 45.143c2.624 33.478 5.731 74.548 6.076 82.348.552 13.529 2.693 35.134 2.693 35.134s5.109 5.108 15.328 2.968c0 0 9.115-30.854 11.738-63.573l.138-1.587c2.417-33.271 6.215-103.263 6.215-103.263l-45.71 2.83z" fill="#2B478B"/><path d="M949.469 294.947s1.658 20.501 3.522 45.143l35.835 56.946.138-1.587c2.417-33.271 6.215-103.263 6.215-103.263l-45.71 2.761z" fill="#233862"/><path d="M956.996 297.363s29.483 74.203 48.814 109.061c19.34 34.858 25.41 44.591 25.41 44.591s11.12-4.487 12.15-7.455c0 0-7.38-67.3-20.37-83.729-7.31-9.249-15.95-37.135-16.36-46.868-.41-9.733-2.62-28.991-2.62-28.991l-47.024 13.391z" fill="#2B478B"/><path d="M1024.18 283.903l.34 4.763s-3.17 8.49 5.67 12.839c0 0 3.72 1.518 3.93-1.45.21-2.968-.34-1.795-.07-6.005.28-4.211-1.31-8.076-4-9.319l-2.21-2.623-3.66 1.795z" fill="#FFB27D"/><path d="M1027.63 287.354c-3.24 1.036-3.8.829-3.8.829s-15.88-28.991-17.47-31.683c-1.58-2.692-33.691-32.511-33.691-32.511l8.286-30.855s36.525 47.49 40.465 54.323c6.56 11.252 10.28 37.412 10.28 37.412a9.839 9.839 0 01-4.07 2.485z" fill="#1E3D70"/><path d="M943.324 236.068c.138 6.351.484 13.46.967 20.708.069.414.069.828.069 1.311.345 4.487.621 8.974 1.036 13.391l.483 5.246V277c.008.67.054 1.338.138 2.002 1.588 16.428 3.314 29.405 3.66 29.612.362.254.801.376 1.242.345 4.281-.552 17.055.415 27.55-1.863 8.838-1.864 16.434-5.453 24.511-10.216 1.11-.621 3.52-2.278 3.32-3.589a228.62 228.62 0 00-1.04-5.937c-1.59-8.766-4.35-23.745-5.317-41.346-.207-3.244-.414-6.489-.828-9.733a146.763 146.763 0 00-4.281-23.123c-3.591-12.977-8.838-22.986-15.536-26.851-.829-.484-5.524 2.485-9.805 5.246a18.72 18.72 0 01-12.152 2.899l-3.521 3.934c-4.281 5.039-8.908 11.735-10.15 21.26-.07.69-.139 1.45-.208 2.209-.138 3.796-.276 8.697-.138 14.219z" fill="#2A4E96"/><path d="M943.324 236.068c.138 6.351.484 13.46.967 20.708.069.414.069.828.069 1.311 24.512-15.392 28.309-43.624 28.309-43.624-12.083.552-21.611 3.313-28.999 7.317-.346 3.865-.484 8.766-.346 14.288z" fill="#1E3D70"/><path d="M881.389 248.217c-.207-3.659 1.588-4.28 1.588-4.28s36.94-6.695 40.117-7.731c3.176-1.035 29.966-29.06 29.966-29.06s10.288-11.665 18.712-9.042c7.319 2.209 10.219 8.007 11.185 13.46a16.086 16.086 0 01-7.457 16.497c-12.635 7.8-37.837 23.055-43.776 24.78-13.257 3.866-48.816.345-48.816.345a11.105 11.105 0 01-1.519-4.969z" fill="#2A4E96"/><path d="M173.585 307.027l3.038 2.485s8.286-2.969 10.081 6.902c0 0 .483 4.211-2.141 4.211-2.623 0-1.588-.414-5.316-.345-3.729.069-6.836-1.864-7.388-4.97l-1.795-2.623 3.521-5.66z" fill="#EA8E50"/><path d="M173.309 312.273c2.416-2.485 2.209-4.418 2.209-4.418s-27.895-22.917-30.726-24.78c-2.831-1.864-22.44-19.535-32.107-30.717-4.764-5.522-10.702-3.382-17.4-1.449l-5.593 1.587c-6.697 1.933-8.492 11.39-2.969 15.945 15.536 12.908 41.291 27.404 46.124 30.51 11.945 7.593 35.421 16.566 35.421 16.566a14.442 14.442 0 005.041-3.244z" fill="#1E3D70"/><path d="M205.07 453.223s6.767 5.108 17.124 2.416c0 0 8.355-1.933 10.219 2.278 0 0-12.843 6.557-16.088 8.352a37.616 37.616 0 00-6.836 5.108 3.378 3.378 0 01-3.84.513 3.384 3.384 0 01-1.062-.858l-1.933-2.485c-2.003-2.692-6.56-11.389-6.56-11.389l8.976-3.935z" fill="#233862"/><path d="M209.075 450.6s-4.143 9.526-13.602 7.8c0 0-19.402-16.083-32.728-32.856-4.281-5.453-8.01-10.906-10.15-15.945-8.838-20.501-32.66-51.148-47.781-66.679l37.907-13.736s12.152 24.504 28.309 54.668c11.531 21.674 25.271 46.317 38.045 66.748z" fill="#2B478B"/><path d="M170.961 383.783l-8.216 41.761c-4.281-5.453-8.01-10.906-10.15-15.945-8.838-20.501-32.66-51.148-47.781-66.679l37.907-13.736c-.069 0 12.083 24.504 28.24 54.599zm-31.002 74.962s-.414 7.593 8.769 8.629c0 0 5.247.069 5.247 4.831h-26.652s-.759-1.932-.966-6.143c-.208-4.21 3.107-11.596 3.107-11.596l10.495 4.279z" fill="#233862"/><path d="M130.223 329.184s16.917 18.637 27.619 52.183c5.869 18.223-10.702 64.194-13.878 80.139 0 0-11.048.898-18.643-2.001 0 0-.553-32.926 3.866-58.396 2.486-14.22-22.233-30.372-33.073-56.118-7.32-17.464 1.588-17.188 12.566-17.602l21.543 1.795z" fill="#2B478B"/><path d="M110.683 246.008c-9.391 5.315-28.586.414-28.586.414s7.803-8.973 4.281-23.4l7.388 3.797 7.941 4.072c.43 2.352.73 4.725.897 7.11.069 1.173.138 2.485.276 3.934a24.369 24.369 0 017.803 4.073z" fill="#FFB07B"/><path d="M145.137 328.218c0 1.656-1.864 2.485-2.278 2.554-3.798.69-14.362 4.831-23.89 5.798-8.01.828-15.467.069-23.684-1.588-1.105-.207-3.66-.897-3.797-1.933-.138-1.035-31.624-64.194-7.181-91.252.552-.621 5.385.553 9.805 1.519 3.705.903 7.603.588 11.116-.897l4.143 2.208c5.109 2.83 14.638 12.908 15.743 20.777.552 4.004 2.831 6.972 3.521 10.492.276 1.312.483 2.623.76 3.865.483 2.416 1.035 4.763 1.519 6.972a210.917 210.917 0 004.419 15.6c1.45 4.487 3.176 8.628 4.488 11.941 1.312 3.314 3.314 7.455 4.281 9.871a11.377 11.377 0 011.035 4.073z" fill="#2A4E96"/><path d="M144.102 324.007c-44.26-20.915-59.588-61.157-59.588-61.157s35.974 13.322 44.812 16.773c.483 2.416 1.035 4.763 1.519 6.972a210.917 210.917 0 004.419 15.6c1.45 4.486 3.176 8.628 4.488 11.941 1.312 3.313 3.452 7.455 4.35 9.871z" fill="#1E3D70"/><path d="M102.535 237.932c-9.252.552-15.26-7.11-15.26-7.11a65.137 65.137 0 006.422-4.072l7.941 4.072s.483 2.554.897 7.11z" fill="#EA8E50"/><path d="M106.471 228.406s-14.017 10.078-20.093 1.243c-6.076-8.836-12.083-13.529-3.383-20.294 8.7-6.764 11.255-4.832 14.016-2.416a51.829 51.829 0 018.7 9.112c.622.828-1.588 2.07-1.311 2.968 1.242 3.382 3.383 8.352 2.071 9.387z" fill="#FFB07B"/><path d="M153.447 323.056l-3.496 2.16a.499.499 0 11-.526-.85l3.496-2.161.526.851z" fill="#D87532"/><path d="M99.98 199.07a22.23 22.23 0 00-1.588-5.798s-.897 3.659-7.526 3.175c-6.628-.483-17.192.622-20.714 8.284-.207.483-.414.966-.621 1.518a17.675 17.675 0 01-.829-4.21c-1.243 3.313 0 7.385 0 7.385s-.069.276-.069.345c-1.45 1.243-2.693 5.108-2.693 5.108a4.626 4.626 0 012.486-2.209c-.07 5.937 2.347 11.666 6.56 13.461 6.145 2.484 6.075.621 12.22 4.693 0 0 1.658-2.071.553-3.451-1.105-1.381-5.386-3.382-3.038-5.453 2.348-2.071 3.245.276 4.143-1.104.897-1.381-3.522-5.454 2.14-9.181 5.662-3.727 9.46-9.111 8.977-12.563z" fill="#233862"/><path d="M195.266 316.069c36.526-9.457 58.483-46.799 49.092-83.521-9.39-36.722-46.606-58.741-83.132-49.354-36.526 9.388-58.484 46.8-49.093 83.522 9.39 36.721 46.607 58.74 83.133 49.353z" fill="#FFB93E"/><path d="M193.885 310.892a61.394 61.394 0 01-47.09-6.695 62.556 62.556 0 01-24.482-26.725 62.519 62.519 0 019.709-68.684 62.56 62.56 0 0130.93-18.898 61.394 61.394 0 0147.09 6.696 62.534 62.534 0 0129.971 62.469 62.536 62.536 0 01-46.059 51.768l-.069.069zm-30.036-117.344c-31.209 8.007-50.059 40.104-42.05 71.511 8.01 31.407 39.979 50.32 71.188 42.244 31.21-8.076 50.059-40.173 42.05-71.511-8.009-31.338-39.978-50.32-71.188-42.244z" fill="#FFA412"/><path d="M170.961 318.761s7.526 2.554 11.807 2.416c4.281-.138 11.807-4.625 11.876-4.97.069-.345-3.383-2.278-8.285-1.657-4.903.622-5.938-.138-4.419-.759 1.519-.621 2.969-1.725 2.554-2.416-.414-.69-2.692.414-3.521.691-.829.276-2.969-.484-4.695.759-1.726 1.242-5.593 1.449-5.593 1.449l.276 4.487z" fill="#FFC299"/><path d="M173.861 316.276l1.933-5.453s-29.483-22.916-32.452-24.849c-2.969-1.933-22.371-15.807-32.383-27.265a20.297 20.297 0 00-19.955-6.42l-6.076 1.45a9.05 9.05 0 00-6.75 6.765 9.04 9.04 0 003.09 9.042c16.365 13.391 43.708 28.645 48.817 31.89 12.705 7.938 40.6 18.775 40.6 18.775a7.042 7.042 0 003.176-3.935z" fill="#2A4E96"/><path d="M600.228 268.372c-5.869 10.285-13.257 14.219-13.257 14.219h-30.726s48.471-22.088 43.983-14.219z" fill="#233862"/><path d="M576.614 347.752a2.902 2.902 0 00-.552 3.037c.69 2.002 3.176 4.28 5.938 6.558l.966.828.207.207.139.138c2.623 2.416 1.657 2.968 6.352 7.869s9.045 5.729 10.081 5.246c1.036-.483-.898-3.382-2.9-6.765l-.276-.483-.691-1.311c-2.347-4.004-1.726-5.937-1.174-11.873.415-4.832 7.527-27.196 7.527-27.196l-10.289-1.795s-3.107 17.74-6.559 20.501c-1.795 1.45-3.867 1.519-5.662 2.554l-.345.276a13.407 13.407 0 00-2.762 2.209z" fill="#FFB27D"/><path d="M576.614 347.752a2.898 2.898 0 00-.552 3.037c.897 2.002 3.245 4.279 5.938 6.557l.966.829.207.207.139.138c2.623 2.416 1.657 2.968 6.352 7.869 4.695 4.9 9.045 5.729 10.081 5.246 1.035-.484-.898-3.383-2.9-6.765a23.136 23.136 0 01-9.598-7.11c-3.245-4.141-5.385-9.456-7.595-12.562l-.345.276c-.994.637-1.9 1.403-2.693 2.278z" fill="#233862"/><path d="M659.609 341.263c.621 3.176 5.179 2.692 10.219 1.45 5.04-1.243 3.867.276 11.048-.552 7.18-.829 9.39-3.452 9.597-4.556.207-1.104-3.314-1.311-7.181-1.726l-1.45-.138c-4.281-.552-7.457-3.313-11.393-5.66-3.935-2.347-9.252-11.044-9.252-11.044l-9.874.759s5.179 7.869 7.181 11.321c1.174 2.001 1.105 4.693.967 6.764a11.948 11.948 0 00.138 3.382z" fill="#FFB27D"/><path d="M669.828 342.713c5.109-1.243 3.867.276 11.047-.552 7.181-.829 9.391-3.452 9.598-4.556.207-1.104-3.314-1.311-7.181-1.726h-.069a20.298 20.298 0 01-10.288 3.245c-4.902.138-10.081-1.312-13.395-1.243a11.977 11.977 0 00.069 3.382c.621 3.176 5.178 2.692 10.219 1.45zm-48.057-64.815l-9.252 24.918-12.084 32.58a18.974 18.974 0 01-6.421-.621 27.92 27.92 0 01-6.214-3.037s3.314-34.996 9.597-55.083c1.588-5.107 3.384-9.318 5.386-11.665 9.736-11.458 18.988 12.908 18.988 12.908z" fill="#233862"/><path d="M537.602 254.567s61.107-20.777 74.779-16.359c13.671 4.418 54.547 86.282 54.547 86.282s-.898 1.243-3.452 2.209c-2.555.966-8.01.828-8.01.828s-36.94-31.821-41.359-41.07c-4.419-9.25-6.146-18.154-10.565-17.257-2.692.553-23.476 13.391-42.049 13.391h-26.929c-11.669-12.562-8.355-32.511-8.355-32.511l11.393 4.487z" fill="#2B478B"/><path d="M580.343 113.547c-1.707-2.566-5.869-2.346-8.079-2.415a4.004 4.004 0 011.726-.691c-1.381-.345-4.488.829-4.488.829-18.504-8.836-23.683 19.051-23.752 25.677-.069 6.627-.621 14.15-10.633 19.258-19.61 10.078-5.386 31.476-5.386 31.476l7.595 15.324c-.069-5.315 26.376-31.338 39.702-38.724 3.453-4.348 5.179-12.286 5.248-12.907-1.036 6.35-2.348 9.87-3.521 11.803 11.53-9.111 17.331-25.954 1.588-49.63z" fill="#B5453C"/><path d="M571.436 163.522c.069.069-6.56 2.278-10.979.345s-7.319-8.766-7.25-8.766c1.864-.069 4.005-1.726 5.593-12.701l.828.276 13.534 4.901s-.967 4.349-1.588 8.559c-.622 4.211-.898 6.903-.138 7.386z" fill="#FFB27D"/><path d="M573.092 147.646s-.966 4.349-1.588 8.559c-7.802-1.449-10.84-9.18-11.945-13.46l13.533 4.901z" fill="#ED975D"/><path d="M556.314 139.363s-4.143-6.557-5.109-12.217c-.76-4.004 1.312-18.914 16.226-16.774a20.381 20.381 0 018.354 3.175c3.246 2.209 7.872 6.903 2.693 19.949l-1.381 4.349-20.783 1.518z" fill="#B5453C"/><path d="M575.095 151.995s-18.505-2.485-16.779-14.082c1.727-11.596.484-19.741 12.429-18.568 11.945 1.174 13.533 5.868 13.878 9.871.346 4.004-4.626 23.124-9.528 22.779z" fill="#FFB27D"/><path d="M571.482 135.212c0 .847-.516.767-1.151.767-.636 0-1.151.08-1.151-.767 0-.846.515-1.532 1.151-1.532.635 0 1.151.686 1.151 1.532zm10.357-1.15c0 .846-.516.766-1.151.766-.636 0-1.151.08-1.151-.766s.515-1.532 1.151-1.532c.635 0 1.151.686 1.151 1.532z" fill="#772B25"/><path d="M572.349 134.266c-.16-.219-.839-.596-2.274-.353-1.435.242-2.729 1.322-3.197 1.831m11.738-2.064c.384-.384.691-1.15 2.302-1.15 1.273 0 1.534.383 1.726.575" stroke="#772B25" stroke-linecap="round"/><path d="M579.169 120.312s-7.112 12.77-15.191 13.667c-8.078.897-11.116-1.795-11.116-1.795a22.156 22.156 0 009.183-11.941s14.293-6.972 17.124.069z" fill="#B5453C"/><path d="M577.788 121.278s4.971 3.383 5.455 6.42c.483 3.037.897 6.212.138 9.525 0 0 5.178-8.697 1.726-14.564-3.453-5.867-7.319-1.381-7.319-1.381z" fill="#B5453C"/><path d="M523.24 254.912c1.036 2.83 4.143 3.521 8.286 3.037 7.872-.897 19.679-6.281 28.102-9.939 12.912-5.66 18.781-.345 22.924-3.935 4.143-3.589-4.695-11.527 2.969-48.456 2.555-12.494-13.947-39.483-13.947-39.483s-1.243 7.869-16.917-1.518c-.552-.345-6.698 8.835-12.636 20.155-6.559 12.494-12.842 27.542-10.978 35.342 3.383 14.909-10.703 36.652-7.803 44.797z" fill="#2A4E96"/><path d="M523.24 254.912c1.036 2.83 4.143 3.521 8.286 3.037 5.455-2.416 29.069-11.596 28.862-17.808-.415-9.25-4.557-9.526-1.588-20.915 2.347-9.181-19.472-26.161-22.993-29.819-6.559 12.493-6.698 13.046-4.902 20.846 3.521 14.771-10.565 36.514-7.665 44.659z" fill="#1E3D70"/><path d="M612.519 302.816l-12.084 32.58a18.974 18.974 0 01-6.421-.621 27.963 27.963 0 01-6.214-3.037s3.314-34.996 9.597-55.083l15.122 26.161z" fill="#2B478B"/><path d="M571.505 156.205s16.088 2.761 18.021 9.733l13.05 47.973s-8.148 1.518-11.945-2.278c-3.798-3.796-13.188-35.272-13.188-35.272l-5.938-20.156zm-16.917-1.518s-15.26.897-20.507 8.352c-7.388 10.423-22.164 54.737-13.741 60.674 9.529 6.695 43.293 1.725 43.293 1.725s1.105-5.246-.414-7.8c-1.519-2.554-26.998-6.695-28.172-7.869-1.173-1.173 14.569-22.985 14.569-26.506 0-3.52 4.972-28.576 4.972-28.576z" fill="#2A4E96"/><path d="M555.14 239.864h65.112l11.738-41.139h-64.973l-11.877 41.139z" fill="#F99746"/><path d="M534.979 239.865h85.066v-1.588h-85.066v1.588z" fill="#ED7D2B"/><path d="M599.607 218.674c.414-1.45-.414-2.623-1.864-2.623a3.723 3.723 0 00-3.315 2.623c-.414 1.449.415 2.623 1.865 2.623a3.726 3.726 0 003.314-2.623z" fill="#FFB93E"/><path d="M436.103 384.06l-30.312 34.581 1.105-15.806 6.49-18.775h22.717z" fill="#DB6A1D"/><path d="M389.358 287.561l49.576 85.661a8.006 8.006 0 01-2.831 10.837l-149.626 87.318a7.945 7.945 0 01-10.771-2.899l-49.645-85.661a8.006 8.006 0 012.831-10.837l149.694-87.318a7.873 7.873 0 0110.772 2.899z" fill="#409DE8"/><path d="M322.52 425.199l-39.909 23.261a3.509 3.509 0 01-2.691.353 3.53 3.53 0 01-2.143-1.664l-.276-.414a3.59 3.59 0 011.312-4.832l39.909-23.262a3.527 3.527 0 013.929.265c.368.286.675.641.905 1.047l.276.414a3.658 3.658 0 01-1.312 4.832zm52.614-30.648l-39.909 23.262a3.509 3.509 0 01-2.691.353 3.538 3.538 0 01-1.238-.617 3.538 3.538 0 01-.905-1.047l-.276-.415a3.587 3.587 0 011.312-4.831l39.909-23.262a3.527 3.527 0 013.929.265c.368.285.675.641.905 1.046l.276.415a3.587 3.587 0 01-1.312 4.831zM263.83 405.872a8.711 8.711 0 011.312 4.072 3.868 3.868 0 01-5.938 3.451 10.41 10.41 0 01-4.143-7.178 3.858 3.858 0 011.918-3.532 3.871 3.871 0 014.02.08 8.284 8.284 0 012.831 3.107zm-1.796 1.035a8.747 8.747 0 00-1.657-2.14c-.828-.759-1.657-.897-2.347-.483-.691.414-1.036 1.242-.76 2.278a8.843 8.843 0 001.036 2.485c1.45 2.485 2.762 3.382 4.074 2.623 1.312-.76.966-1.243.759-2.278a8.81 8.81 0 00-1.105-2.485zm10.012-5.798a8.689 8.689 0 011.312 4.072 3.858 3.858 0 01-1.918 3.532 3.863 3.863 0 01-4.02-.08 10.44 10.44 0 01-2.816-3.16 10.438 10.438 0 01-1.327-4.019 3.868 3.868 0 015.938-3.451 7.929 7.929 0 012.831 3.106zm-1.795 1.035a8.766 8.766 0 00-1.657-2.14c-.829-.759-1.657-.897-2.348-.483-.69.414-1.035 1.243-.759 2.278a8.731 8.731 0 001.036 2.485c1.45 2.485 2.762 3.382 4.073 2.623 1.312-.759.967-1.243.76-2.278a7.803 7.803 0 00-1.174-2.485h.069zm9.943-5.798a8.689 8.689 0 011.312 4.072 3.868 3.868 0 01-5.938 3.452 10.427 10.427 0 01-4.143-7.179 3.858 3.858 0 011.918-3.532 3.874 3.874 0 014.02.081 7.936 7.936 0 012.831 3.106zm-1.795 1.035a8.814 8.814 0 00-1.658-2.14c-.828-.759-1.657-.897-2.347-.483-.691.414-1.036 1.243-.76 2.278a8.79 8.79 0 001.036 2.485c1.45 2.485 2.762 3.382 4.074 2.623 1.312-.759.967-1.242.69-2.278a7.8 7.8 0 00-1.035-2.485zm10.011-5.867a8.689 8.689 0 011.312 4.073 3.869 3.869 0 01-3.939 4.055 3.885 3.885 0 01-1.999-.604 10.429 10.429 0 01-4.143-7.179 3.869 3.869 0 015.939-3.451 8.97 8.97 0 012.83 3.106zm-1.864 1.104a8.761 8.761 0 00-1.657-2.139c-.828-.76-1.657-.898-2.348-.483-.69.414-1.035 1.242-.759 2.277a8.79 8.79 0 001.036 2.485c1.45 2.485 2.762 3.383 4.073 2.623 1.312-.759.967-1.242.691-2.278a7.812 7.812 0 00-1.036-2.485zm14.224-8.351a8.685 8.685 0 011.312 4.072 3.868 3.868 0 01-5.938 3.451 10.417 10.417 0 01-4.143-7.178 3.868 3.868 0 015.938-3.452 7.939 7.939 0 012.831 3.107zm-1.795 1.035a8.747 8.747 0 00-1.657-2.14c-.829-.759-1.657-.897-2.348-.483-.69.414-1.036 1.242-.759 2.278a8.84 8.84 0 001.035 2.485c1.45 2.485 2.762 3.382 4.074 2.623 1.312-.76.967-1.243.76-2.278a8.156 8.156 0 00-1.105-2.416v-.069zm10.012-5.798a8.711 8.711 0 011.312 4.072 3.869 3.869 0 01-5.939 3.452 10.437 10.437 0 01-4.142-7.179 3.858 3.858 0 011.918-3.532 3.872 3.872 0 014.02.081 8.281 8.281 0 012.831 3.106zm-1.865 1.035a8.766 8.766 0 00-1.657-2.14c-.828-.759-1.657-.897-2.347-.483-.691.414-1.036 1.243-.76 2.278a8.76 8.76 0 001.036 2.485c1.45 2.485 2.762 3.382 4.074 2.623 1.312-.759.966-1.243.759-2.278a6.95 6.95 0 00-1.036-2.485h-.069zm10.081-5.798a8.689 8.689 0 011.312 4.072 3.868 3.868 0 01-5.938 3.452 10.44 10.44 0 01-2.816-3.16 10.438 10.438 0 01-1.327-4.019 3.868 3.868 0 015.938-3.451 7.929 7.929 0 012.831 3.106zm-1.864 1.035a8.785 8.785 0 00-1.657-2.14c-.829-.759-1.657-.897-2.348-.483-.69.414-1.036 1.243-.759 2.278a8.828 8.828 0 001.035 2.485c1.45 2.485 2.762 3.382 4.074 2.623 1.312-.759.967-1.242.76-2.278a6.977 6.977 0 00-1.105-2.485zm10.012-5.798a8.689 8.689 0 011.312 4.073 3.868 3.868 0 01-5.938 3.451 10.429 10.429 0 01-4.143-7.179 3.868 3.868 0 015.938-3.451 7.929 7.929 0 012.831 3.106zm-1.795 1.036a8.796 8.796 0 00-1.657-2.14c-.829-.759-1.658-.898-2.348-.483-.69.414-1.036 1.242-.76 2.277a8.847 8.847 0 001.036 2.485c1.45 2.485 2.762 3.383 4.074 2.623 1.312-.759.967-1.242.76-2.278a7.8 7.8 0 00-1.105-2.484zm14.223-8.284a8.692 8.692 0 011.312 4.073 3.858 3.858 0 01-1.918 3.532 3.872 3.872 0 01-4.02-.081 10.429 10.429 0 01-4.143-7.178 3.868 3.868 0 015.938-3.452 8.289 8.289 0 012.831 3.106zm-1.864 1.036a8.747 8.747 0 00-1.657-2.14c-.829-.759-1.657-.897-2.348-.483-.69.414-1.035 1.242-.759 2.278a8.84 8.84 0 001.035 2.485c1.45 2.484 2.762 3.382 4.074 2.623 1.312-.76.967-1.243.76-2.278a7.236 7.236 0 00-1.105-2.485zm10.081-5.798a8.689 8.689 0 011.312 4.072 3.868 3.868 0 01-5.938 3.452 10.421 10.421 0 01-4.143-7.179 3.868 3.868 0 015.938-3.452 8.284 8.284 0 012.831 3.107zm-1.795 1.035a8.76 8.76 0 00-1.726-2.14c-.829-.759-1.658-.897-2.348-.483-.69.414-1.036 1.243-.76 2.278a8.872 8.872 0 001.036 2.485c1.45 2.485 2.762 3.382 4.074 2.623 1.312-.759.967-1.243.759-2.278a7.771 7.771 0 00-1.104-2.485h.069zm9.943-5.867a8.711 8.711 0 011.312 4.072 3.869 3.869 0 01-5.938 3.452 10.427 10.427 0 01-4.143-7.179 3.858 3.858 0 011.918-3.532 3.872 3.872 0 014.02.081 7.944 7.944 0 012.831 3.106zm-1.796 1.035a8.785 8.785 0 00-1.657-2.14c-.828-.759-1.657-.897-2.347-.483-.691.414-1.036 1.243-.76 2.278a8.83 8.83 0 001.036 2.485c1.45 2.485 2.762 3.382 4.074 2.623 1.312-.759.966-1.242.759-2.278a7.799 7.799 0 00-1.105-2.416v-.069zm10.012-5.798a8.689 8.689 0 011.312 4.073 3.858 3.858 0 01-1.918 3.532 3.874 3.874 0 01-4.02-.081 10.429 10.429 0 01-4.143-7.179 3.868 3.868 0 015.938-3.451 8.289 8.289 0 012.831 3.106zm-1.864 1.036a8.747 8.747 0 00-1.657-2.14c-.829-.759-1.657-.898-2.348-.483-.69.414-1.035 1.242-.759 2.277a8.816 8.816 0 001.035 2.485c1.45 2.485 2.762 3.383 4.074 2.623 1.312-.759.967-1.242.76-2.277a7.795 7.795 0 00-1.105-2.485zm14.224-8.284a8.715 8.715 0 011.312 4.073 3.869 3.869 0 01-5.938 3.451 10.415 10.415 0 01-4.143-7.178 3.858 3.858 0 011.918-3.532 3.871 3.871 0 014.02.08 8.289 8.289 0 012.831 3.106zm-1.796 1.036a8.747 8.747 0 00-1.657-2.14c-.828-.759-1.657-.897-2.347-.483-.691.414-1.036 1.242-.76 2.278a8.843 8.843 0 001.036 2.485c1.45 2.485 2.762 3.382 4.074 2.623 1.312-.76.966-1.243.69-2.278a8.138 8.138 0 00-1.036-2.416v-.069zm10.012-5.798a8.689 8.689 0 011.312 4.072 3.858 3.858 0 01-1.918 3.532 3.874 3.874 0 01-4.02-.081 10.417 10.417 0 01-4.143-7.178 3.868 3.868 0 015.938-3.451 8.616 8.616 0 012.831 3.106zm-1.864 1.035a8.766 8.766 0 00-1.657-2.14c-.829-.759-1.657-.897-2.348-.483-.69.414-1.035 1.243-.759 2.278a8.84 8.84 0 001.035 2.485c1.45 2.485 2.762 3.382 4.074 2.623 1.312-.759.967-1.243.76-2.278a7.25 7.25 0 00-1.036-2.485h-.069zm10.081-5.798a8.689 8.689 0 011.312 4.072 3.868 3.868 0 01-5.938 3.452 10.44 10.44 0 01-2.816-3.16 10.438 10.438 0 01-1.327-4.019 3.868 3.868 0 015.938-3.451 8.281 8.281 0 012.831 3.106zm-1.864 1.035a8.766 8.766 0 00-1.657-2.14c-.829-.759-1.657-.897-2.348-.483-.69.414-1.036 1.243-.759 2.278a8.758 8.758 0 001.035 2.485c1.45 2.485 2.762 3.382 4.074 2.623 1.312-.759.967-1.243.691-2.278a6.986 6.986 0 00-1.036-2.485zm10.012-5.798a8.699 8.699 0 011.311 4.073 3.861 3.861 0 01-1.918 3.532 3.872 3.872 0 01-4.02-.081 10.412 10.412 0 01-4.142-7.179 3.858 3.858 0 011.918-3.532 3.872 3.872 0 014.02.081 7.944 7.944 0 012.831 3.106zm-1.796 1.035a8.761 8.761 0 00-1.657-2.139c-.828-.76-1.657-.898-2.347-.484-.691.415-1.036 1.243-.76 2.278a8.818 8.818 0 001.036 2.485c1.45 2.485 2.762 3.383 4.074 2.623 1.312-.759.966-1.242.759-2.278a8.834 8.834 0 00-1.105-2.485zm-114.894 30.303l-39.012 22.778a3.54 3.54 0 01-3.521-6.143l39.011-22.779a3.535 3.535 0 013.929.265c.368.286.675.641.905 1.047a3.587 3.587 0 01-1.312 4.832zm96.528-47.559a5.32 5.32 0 00-2.762-2.347.624.624 0 00-.76.414v.276a.556.556 0 00.346.691 3.868 3.868 0 012.002 1.725c.441.799.611 1.72.483 2.623a.556.556 0 00.415.622h.276a.55.55 0 00.759-.484 5.38 5.38 0 00-.759-3.52z" fill="#AFCDFB"/><path d="M381.624 309.166a8.426 8.426 0 00-4.626-3.796.556.556 0 00-.664.187.543.543 0 00-.095.227v.138a.547.547 0 00.058.435.541.541 0 00.356.256 7.04 7.04 0 014.626 8.076.622.622 0 00.414.69h.139a.622.622 0 00.759-.414 8.072 8.072 0 00-.967-5.799z" fill="#AFCDFB"/><path d="M383.834 307.855a10.703 10.703 0 00-6.145-4.97.565.565 0 00-.435.058.545.545 0 00-.256.356.565.565 0 00.058.435.557.557 0 00.357.256 9.872 9.872 0 015.523 4.417 9.594 9.594 0 011.105 6.972.62.62 0 00.414.69.624.624 0 00.76-.414 10.694 10.694 0 00-1.381-7.8z" fill="#AFCDFB"/><path d="M386.251 306.474a13.739 13.739 0 00-7.872-6.281.541.541 0 00-.435.058.553.553 0 00-.255.356v.276a.547.547 0 00.057.435.557.557 0 00.357.256 12.424 12.424 0 017.043 5.591 12.216 12.216 0 011.381 8.904.62.62 0 00.414.69h.276a.624.624 0 00.76-.414c.688-3.39.072-6.915-1.726-9.871zm-99.014 148.751c.354.587.567 1.249.621 1.933.032.343-.035.688-.194.995-.16.306-.404.559-.703.73a1.795 1.795 0 01-1.934-.069 4.145 4.145 0 01-1.381-1.518 4.421 4.421 0 01-.621-1.933 1.79 1.79 0 01.898-1.726 1.867 1.867 0 011.933 0c.585.406 1.06.952 1.381 1.588zm-.898.552a3.52 3.52 0 00-.828-1.035.897.897 0 00-1.105-.276.898.898 0 00-.345 1.104c.102.435.264.853.483 1.242.69 1.243 1.312 1.588 2.002 1.243.691-.345.484-.552.346-1.104a4.075 4.075 0 00-.553-1.174zm4.834-2.83c.354.587.567 1.249.621 1.933a1.798 1.798 0 01-.898 1.725 1.79 1.79 0 01-1.933-.069 4.145 4.145 0 01-1.381-1.518 4.417 4.417 0 01-.621-1.933 1.795 1.795 0 01.966-1.656 1.865 1.865 0 011.934 0 4.285 4.285 0 011.312 1.518zm-.898.552a3.507 3.507 0 00-.829-1.035.895.895 0 00-1.104-.276c-.346.207-.484.552-.346 1.104.102.435.265.853.484 1.243.69 1.242 1.312 1.587 2.002 1.242.691-.345.483-.552.345-1.104a3.793 3.793 0 00-.483-1.174h-.069zm2.624-4.486v.276l.414 5.453c.069.276-.069.414-.207.552h-.345c-.139-.069-.208-.069-.277-.207a.63.63 0 01-.069-.276l-.414-5.453c0-.276.069-.414.207-.552h.345c.208 0 .277.069.346.207zm4.971.069c.355.587.567 1.249.622 1.933a1.794 1.794 0 01-.898 1.725 1.8 1.8 0 01-1.933-.069 4.128 4.128 0 01-1.381-1.518 4.41 4.41 0 01-.622-1.933 1.796 1.796 0 01.898-1.726 1.87 1.87 0 011.933 0c.585.406 1.06.952 1.381 1.588zm-.897.552a3.585 3.585 0 00-.829-1.035.897.897 0 00-1.105-.276.896.896 0 00-.345 1.104c.102.435.265.853.483 1.242.691 1.243 1.312 1.588 2.003 1.243.69-.345.483-.552.345-1.105a4.074 4.074 0 00-.552-1.242v.069zm4.833-2.899c.354.587.567 1.249.621 1.933a1.79 1.79 0 01-.897 1.725 1.864 1.864 0 01-1.934 0 4.145 4.145 0 01-1.381-1.518 4.421 4.421 0 01-.621-1.933 1.797 1.797 0 01.897-1.726 1.873 1.873 0 011.934 0 3.8 3.8 0 011.381 1.519zm-.898.552a3.52 3.52 0 00-.828-1.035.899.899 0 00-1.105-.276.898.898 0 00-.345 1.104c.102.435.264.853.483 1.243.69 1.242 1.312 1.587 2.002 1.242.691-.345.484-.552.345-1.104a4.046 4.046 0 00-.552-1.174zm4.833-2.83c.355.587.568 1.249.622 1.933a1.798 1.798 0 01-.898 1.725 1.79 1.79 0 01-1.933-.069 4.137 4.137 0 01-1.381-1.518 4.417 4.417 0 01-.621-1.933 1.789 1.789 0 01.897-1.726 1.873 1.873 0 011.933 0 4.28 4.28 0 011.381 1.588zm-.897.552a3.507 3.507 0 00-.829-1.035.899.899 0 00-1.104-.276.897.897 0 00-.346 1.104c.102.435.265.853.484 1.243.69 1.242 1.311 1.587 2.002 1.242.69-.345.483-.552.345-1.104a4.09 4.09 0 00-.552-1.243v.069zm4.833-2.899c.355.587.567 1.249.622 1.933a1.798 1.798 0 01-.898 1.725 1.861 1.861 0 01-1.933 0 4.128 4.128 0 01-1.381-1.518 4.423 4.423 0 01-.622-1.933 1.798 1.798 0 01.898-1.726 1.87 1.87 0 011.933 0 4.139 4.139 0 011.381 1.519zm-.897.552a3.523 3.523 0 00-.829-1.035.899.899 0 00-1.105-.276.896.896 0 00-.345 1.104c.102.435.265.853.483 1.243.691 1.242 1.312 1.587 2.003 1.242.69-.345.483-.552.345-1.104a4.072 4.072 0 00-.552-1.174z" fill="#AFCDFB"/><path d="M201.963 218.19l-55.79 7.317 1.519 11.804 55.79-7.317-1.519-11.804zm-26.307 77.378l15.674-2.07-5.317-40.864 20.093-2.623-1.726-13.184-55.79 7.317 1.726 13.184 20.093-2.623 5.247 40.863zm620.459 78.828l-54.478-14.219-2.969 11.527 54.478 14.219 2.969-11.527zm-53.235 61.847l15.328 4.003 10.288-39.896 19.61 5.107 3.314-12.838-54.478-14.22-3.314 12.839 19.609 5.108-10.357 39.897z" fill="#FFA412"/><path d="M725.342 177.051l-19.748-16.221-9.39 7.179 19.678 16.221 9.46-7.179zm-70.428 33.685l5.523 4.555 32.453-24.78 7.111 5.867 10.496-8.007-19.679-16.221-10.495 8.007 7.112 5.867-32.521 24.712z" fill="#98B9EA"/><path d="M96.838 210.185a12.978 12.978 0 00-2.693 5.453c-.07.414.552.621.69.207a12.218 12.218 0 012.555-5.108c.207-.414-.276-.897-.552-.552z" fill="#000"/><path d="M96.423 212.67c-.276-.207-.621-.414-.897-.069a.278.278 0 00-.245.284.271.271 0 00.037.13v.138c.01.236.057.469.139.691.138.345.552 1.035.966 1.104l.276.207a.343.343 0 00.41-.078.343.343 0 00.074-.129 2.415 2.415 0 00-.76-2.278z" fill="#000"/><path d="M759.244 83.176s1.036.345 3.245 0c2.21-.345 3.591-1.035 3.591-1.035s-1.519 2.692-3.591 2.76c-2.071.07-3.245-1.725-3.245-1.725z" fill="#B5453C"/><path d="M760.073 74.272s-.622 5.246-.277 5.522c.346.276 2.97.069 2.97.069s-1.589-.345-2.141-1.036c-.552-.69-.552-4.555-.552-4.555z" fill="#CD7B44"/><path d="M768.911 71.235c-1.519-1.105-3.867-1.726-5.662-.898-.414.207-.069.76.345.622.457-.2.952-.295 1.45-.276-.063.373-.015.757.138 1.104.169.35.466.621.829.76a.275.275 0 00.345-.139.276.276 0 00.345-.207 2.617 2.617 0 00-.069-1.173c.687.197 1.339.5 1.934.897.414.138.759-.414.345-.69zm-10.15.897a5.112 5.112 0 00-4.35-1.243c-.414.07-.207.76.207.69h.829a1.027 1.027 0 000 .76c.16.372.456.668.828.828.345.138.483-.069.552-.276a.347.347 0 00.346-.345c.01-.184.01-.368 0-.552.428.19.824.446 1.174.76.276.137.759-.346.414-.622zm193.544 85.523a12.984 12.984 0 015.248 3.037c.345.276-.138.828-.484.552a12.212 12.212 0 00-4.902-2.899c-.414-.138-.276-.828.138-.69z" fill="#000"/><path d="M954.031 159.518c.138-.345.346-.69.691-.552a.284.284 0 01.13-.038.277.277 0 01.284.245v.138c.129.214.223.447.276.691a1.858 1.858 0 01-.207 1.449v.345a.343.343 0 01-.552.138 2.419 2.419 0 01-.622-2.416z" fill="#000"/><path d="M571.505 145.161s1.784.138 3.51 0c1.726-.138 3.601-.897 3.601-.897s-1.795 2.554-3.866 2.554-3.245-1.657-3.245-1.657z" fill="#B5453C"/><path d="M576.338 135.774s.967 5.177.69 5.453c-.276.276-2.9.276-2.9.276s1.588-.483 2.072-1.174c.483-.69.138-4.555.138-4.555z" fill="#CD7B44"/></g><defs><clipPath id="clip0"><path fill="#fff" d="M0 0h1048v474H0z"/></clipPath></defs></svg>