<svg width="15" height="14" fill="none" xmlns="http://www.w3.org/2000/svg"><g clip-path="url(#clip0)"><path d="M.827 11.09h2.467v1.637c0 .08.033.145.1.196a.4.4 0 00.252.077h1.84a.407.407 0 00.247-.077.233.233 0 00.105-.196v-1.636h5.561a.402.402 0 00.254-.077.237.237 0 00.099-.196v-1.09a.237.237 0 00-.1-.197.402.402 0 00-.252-.077H5.837V8.45h3.744c1.468 0 2.667-.347 3.596-1.04.929-.693 1.393-1.588 1.393-2.685 0-1.096-.464-1.99-1.393-2.684C12.249 1.347 11.05 1 9.582 1H3.646a.403.403 0 00-.253.077.238.238 0 00-.1.196v5.36H.828a.388.388 0 00-.253.081.242.242 0 00-.1.192v1.27c0 .08.033.145.1.196a.4.4 0 00.253.077h2.467v1.005H.827a.401.401 0 00-.253.077.237.237 0 00-.1.196v1.091c0 .08.033.145.1.196.066.051.15.077.253.077zm5.01-8.274h3.525c.778 0 1.406.176 1.883.528.477.352.716.813.716 1.38 0 .569-.239 1.03-.716 1.381-.477.353-1.105.529-1.883.529H5.838V2.816z" fill="#4CA261"/></g><defs><clipPath id="clip0"><path fill="#fff" transform="translate(.475)" d="M0 0h14.097v14H0z"/></clipPath></defs></svg>